<svg xmlns="http://www.w3.org/2000/svg" xmlns:xlink="http://www.w3.org/1999/xlink" viewBox="0 0 168.85 141.73"><defs><style>.cls-1{fill:none;}.cls-2{isolation:isolate;}.cls-3{fill:#69cfc0;}.cls-4{fill:#4bbfb4;}.cls-5{fill:#97bf30;}.cls-6{fill:#c1bdc3;}.cls-7{fill:#a5d039;}.cls-8{fill:#b0d642;}.cls-9{fill:#9fc935;}.cls-10{fill:#a2ce37;}.cls-11{fill:#b0acb2;}.cls-12{opacity:0.7;}.cls-104,.cls-113,.cls-13,.cls-165,.cls-20{fill:#fff;}.cls-14{fill:#d3ddb1;}.cls-15{clip-path:url(#clip-path);}.cls-16{fill:url(#linear-gradient);}.cls-17{fill:url(#linear-gradient-2);}.cls-18{fill:url(#linear-gradient-3);}.cls-19{fill:url(#linear-gradient-4);}.cls-104,.cls-113,.cls-20{mix-blend-mode:overlay;}.cls-20{opacity:0.12;}.cls-21{fill:#705849;}.cls-22{fill:#ba907f;}.cls-23{fill:#966372;}.cls-24{fill:#844e60;}.cls-25{fill:#eebba2;}.cls-26{fill:#d5a38f;}.cls-27{fill:#fcdbca;}.cls-28{fill:#ded3bd;}.cls-29{fill:#f1ede3;}.cls-30{fill:#f2e7d1;}.cls-31{fill:#aa7771;}.cls-32{fill:#e2a496;}.cls-33{fill:#c1b49f;}.cls-34{fill:#007575;}.cls-35{fill:#ddd;}.cls-36,.cls-47,.cls-98{fill:#424242;}.cls-130,.cls-36,.cls-42,.cls-43,.cls-47,.cls-78,.cls-86,.cls-96,.cls-98,.cls-99{mix-blend-mode:multiply;}.cls-162,.cls-165,.cls-168,.cls-36,.cls-43,.cls-99{opacity:0.3;}.cls-37{fill:#6d3b4e;}.cls-38{fill:#5b2c3f;}.cls-39{fill:#b7b7b7;}.cls-40,.cls-42,.cls-43{fill:#775547;}.cls-41{fill:#825d50;}.cls-104,.cls-42,.cls-47,.cls-78{opacity:0.2;}.cls-44{fill:#ccbfa8;}.cls-45{fill:#f3efe7;}.cls-46{fill:#e7dfd0;}.cls-48{fill:url(#linear-gradient-5);}.cls-49{fill:url(#linear-gradient-6);}.cls-50{fill:url(#linear-gradient-7);}.cls-51{fill:url(#linear-gradient-8);}.cls-52{fill:#ca9b2c;}.cls-53{fill:#8e6f59;}.cls-54{fill:#84654e;}.cls-55{fill:#f1d66a;}.cls-56{fill:#d29b8a;}.cls-57{fill:#fdeaab;}.cls-58{fill:#ad7474;}.cls-59{fill:#ead065;}.cls-60{fill:#ffffc4;}.cls-61{fill:#ffe97e;}.cls-62{fill:#c18778;}.cls-63{fill:#9e6767;}.cls-64{fill:#6e4d30;}.cls-65{fill:#7c5d44;}.cls-66{fill:#cecece;}.cls-67{fill:#005452;}.cls-68{fill:#685a50;}.cls-69{fill:#87776c;}.cls-70{fill:#75665b;}.cls-71{fill:#e2c28f;}.cls-72{fill:#d8b87e;}.cls-73{fill:#cba76c;}.cls-74{fill:url(#linear-gradient-9);}.cls-75{fill:url(#linear-gradient-10);}.cls-76{fill:#ba897b;}.cls-77,.cls-86{fill:#96635b;}.cls-79{fill:#e0afa3;}.cls-80{fill:#976759;}.cls-81{fill:#84564c;}.cls-82{fill:#f0d59e;}.cls-83{fill:#ffeeb7;}.cls-84{fill:#e4c085;}.cls-85{fill:#a5766d;}.cls-130,.cls-86{opacity:0.4;}.cls-87{fill:#fde2ab;}.cls-88{fill:#d8b479;}.cls-89{fill:#dbba8a;}.cls-90{fill:#bc955c;}.cls-91{fill:#965a5a;}.cls-92{fill:#753e3e;}.cls-93{fill:#a56767;}.cls-94{fill:#824848;}.cls-95{fill:#005957;}.cls-96{fill:#d1d1d1;}.cls-97{fill:#c59485;}.cls-98{opacity:0.1;}.cls-99{fill:#c57b62;}.cls-100{fill:#724a44;}.cls-101{fill:#c9c9c9;}.cls-102{fill:url(#linear-gradient-11);}.cls-103{fill:url(#linear-gradient-12);}.cls-105{clip-path:url(#clip-path-2);}.cls-106{fill:url(#linear-gradient-13);}.cls-107{fill:url(#linear-gradient-14);}.cls-108{fill:url(#linear-gradient-15);}.cls-109{fill:url(#linear-gradient-16);}.cls-110{fill:url(#linear-gradient-17);}.cls-111{fill:url(#linear-gradient-18);}.cls-112{fill:url(#linear-gradient-19);}.cls-113{opacity:0.15;}.cls-114{fill:#c4ac90;}.cls-115,.cls-130{fill:#c68979;}.cls-116{fill:#b57468;}.cls-117{fill:#f2eadd;}.cls-118{fill:#a57f75;}.cls-119{fill:#c19d97;}.cls-120{fill:#f0ebe0;}.cls-121{fill:#f7ecd6;}.cls-122{fill:#966f66;}.cls-123{fill:#b18c83;}.cls-124{fill:#9b5b53;}.cls-125{fill:#aa6761;}.cls-126{fill:#c48178;}.cls-127{fill:#a56d6f;}.cls-128{fill:#8c5659;}.cls-129{fill:#7c4a4f;}.cls-131{fill:#9d766b;}.cls-132{fill:#bcbcbc;}.cls-133{fill:#eaeaea;}.cls-134{fill:#b2977d;}.cls-135{fill:#d3d3d3;}.cls-136{fill:#de6656;}.cls-137{clip-path:url(#clip-path-3);}.cls-138{fill:url(#linear-gradient-20);}.cls-139{fill:url(#linear-gradient-21);}.cls-140{fill:url(#linear-gradient-22);}.cls-141{fill:url(#linear-gradient-23);}.cls-142{fill:url(#linear-gradient-24);}.cls-143{fill:#966c55;}.cls-144{fill:#b37e64;}.cls-145{fill:#524553;}.cls-146{clip-path:url(#clip-path-4);}.cls-147{fill:url(#linear-gradient-25);}.cls-148{fill:url(#linear-gradient-26);}.cls-149{fill:#876f5f;}.cls-150{fill:url(#linear-gradient-27);}.cls-151{fill:url(#linear-gradient-28);}.cls-152{fill:#57575b;}.cls-153{fill:#48484c;}.cls-154{fill:url(#linear-gradient-29);}.cls-155{fill:url(#linear-gradient-30);}.cls-156{fill:url(#linear-gradient-31);}.cls-157{fill:#33a8c0;}.cls-158{fill:#338fb2;}.cls-159{fill:#005d72;}.cls-160{fill:#464749;}.cls-161{fill:#b5b5b5;}.cls-162{fill:#fff7fa;}.cls-163{fill:#eabf53;}.cls-164{fill:#d3a337;}.cls-166{fill:#d16965;}.cls-167{fill:#b45151;}.cls-168{fill:#f2ffff;}.cls-169{fill:#e32f2e;}</style><clipPath id="clip-path" transform="translate(12.52)"><rect class="cls-1" y="49.87" width="19.76" height="50.02"/></clipPath><linearGradient id="linear-gradient" x1="3.35" y1="77.25" x2="3.35" y2="50.9" gradientUnits="userSpaceOnUse"><stop offset="0" stop-color="#93c511"/><stop offset="0.68" stop-color="#c6c270"/><stop offset="1" stop-color="#dbc198"/></linearGradient><linearGradient id="linear-gradient-2" x1="2.96" y1="77.25" x2="2.96" y2="57.99" gradientUnits="userSpaceOnUse"><stop offset="0" stop-color="#84b226"/><stop offset="1" stop-color="#b4bc65"/></linearGradient><linearGradient id="linear-gradient-3" x1="7.99" y1="77.25" x2="7.99" y2="50.9" xlink:href="#linear-gradient"/><linearGradient id="linear-gradient-4" x1="7.94" y1="77.25" x2="7.94" y2="57.99" xlink:href="#linear-gradient-2"/><linearGradient id="linear-gradient-5" x1="-35.13" y1="86.05" x2="-35.13" y2="59.15" gradientTransform="matrix(-1, 0, 0, 1, 6.49, 0)" xlink:href="#linear-gradient"/><linearGradient id="linear-gradient-6" x1="40.98" y1="86.27" x2="40.98" y2="66.14" xlink:href="#linear-gradient-2"/><linearGradient id="linear-gradient-7" x1="67.88" y1="87.72" x2="67.88" y2="60.82" gradientTransform="translate(-32.68)" xlink:href="#linear-gradient"/><linearGradient id="linear-gradient-8" x1="67.83" y1="87.72" x2="67.83" y2="68.06" gradientTransform="translate(-32.68)" xlink:href="#linear-gradient-2"/><linearGradient id="linear-gradient-9" x1="67.64" y1="91" x2="67.64" y2="75.25" gradientUnits="userSpaceOnUse"><stop offset="0" stop-color="#dbc198"/><stop offset="1" stop-color="#f9d9e0"/></linearGradient><linearGradient id="linear-gradient-10" x1="67.43" y1="91" x2="67.43" y2="80.08" gradientUnits="userSpaceOnUse"><stop offset="0" stop-color="#ccb192"/><stop offset="1" stop-color="#e4c4cb"/></linearGradient><linearGradient id="linear-gradient-11" x1="97.45" y1="99.45" x2="97.45" y2="87.68" xlink:href="#linear-gradient-9"/><linearGradient id="linear-gradient-12" x1="97.25" y1="99.45" x2="97.25" y2="90.84" gradientUnits="userSpaceOnUse"><stop offset="0" stop-color="#c6ac83"/><stop offset="1" stop-color="#e4c4cb"/></linearGradient><clipPath id="clip-path-2" transform="translate(12.52)"><rect class="cls-1" y="75.89" width="15.49" height="24"/></clipPath><linearGradient id="linear-gradient-13" x1="6.43" y1="92.64" x2="6.43" y2="76.25" xlink:href="#linear-gradient"/><linearGradient id="linear-gradient-14" x1="6.22" y1="92.64" x2="6.22" y2="81.27" xlink:href="#linear-gradient-2"/><linearGradient id="linear-gradient-15" x1="118.92" y1="87.34" x2="118.92" y2="57.4" xlink:href="#linear-gradient-2"/><linearGradient id="linear-gradient-16" x1="114.32" y1="83.82" x2="114.32" y2="50.08" xlink:href="#linear-gradient"/><linearGradient id="linear-gradient-17" x1="113.35" y1="87.34" x2="113.35" y2="57.4" xlink:href="#linear-gradient-2"/><linearGradient id="linear-gradient-18" x1="107.56" y1="87.34" x2="107.56" y2="57.4" xlink:href="#linear-gradient-2"/><linearGradient id="linear-gradient-19" x1="108.07" y1="83.82" x2="108.07" y2="50.08" xlink:href="#linear-gradient"/><clipPath id="clip-path-3" transform="translate(12.52)"><rect class="cls-1" x="127.58" y="61.38" width="20.6" height="38.51"/></clipPath><linearGradient id="linear-gradient-20" x1="145.77" y1="90.33" x2="145.77" y2="67.51" gradientUnits="userSpaceOnUse"><stop offset="0" stop-color="#deb29b"/><stop offset="1" stop-color="#f1afc0"/></linearGradient><linearGradient id="linear-gradient-21" x1="142.27" y1="87.65" x2="142.27" y2="61.93" gradientUnits="userSpaceOnUse"><stop offset="0" stop-color="#eec2ab"/><stop offset="1" stop-color="#ffbfd0"/></linearGradient><linearGradient id="linear-gradient-22" x1="141.53" y1="90.33" x2="141.53" y2="67.51" xlink:href="#linear-gradient-20"/><linearGradient id="linear-gradient-23" x1="137.12" y1="90.33" x2="137.12" y2="67.51" xlink:href="#linear-gradient-20"/><linearGradient id="linear-gradient-24" x1="137.51" y1="87.64" x2="137.51" y2="61.93" xlink:href="#linear-gradient-21"/><clipPath id="clip-path-4" transform="translate(12.52)"><rect class="cls-1" x="139" y="87.64" width="9.17" height="12.25"/></clipPath><linearGradient id="linear-gradient-25" x1="146.87" y1="99.79" x2="146.87" y2="88.35" xlink:href="#linear-gradient"/><linearGradient id="linear-gradient-26" x1="146.49" y1="99.79" x2="146.49" y2="91.5" xlink:href="#linear-gradient-2"/><linearGradient id="linear-gradient-27" x1="59.99" y1="99.5" x2="59.99" y2="89.55" xlink:href="#linear-gradient"/><linearGradient id="linear-gradient-28" x1="59.86" y1="99.5" x2="59.86" y2="92.6" xlink:href="#linear-gradient-2"/><linearGradient id="linear-gradient-29" x1="74.09" y1="86.18" x2="74.09" y2="83.96" gradientUnits="userSpaceOnUse"><stop offset="0.01" stop-color="#fffff9"/><stop offset="0.49" stop-color="#fff3b7"/><stop offset="1" stop-color="#ffbb93"/></linearGradient><linearGradient id="linear-gradient-30" x1="132.03" y1="86.19" x2="132.03" y2="83.96" xlink:href="#linear-gradient-29"/><linearGradient id="linear-gradient-31" x1="16.15" y1="86.19" x2="16.15" y2="83.96" xlink:href="#linear-gradient-29"/></defs><g class="cls-2"><g id="Layer_2" data-name="Layer 2"><g id="Layer_1-2" data-name="Layer 1"><rect class="cls-3" x="12.52" width="148.17" height="141.73"/><polygon class="cls-4" points="160.69 50.78 155.04 50.78 155.04 43.33 146.72 43.33 146.72 38.02 140.62 34.98 134.52 38.02 134.52 46.05 131.11 46.05 131.11 42.24 123.28 37.4 121.98 37.4 120.3 38.44 118.59 38.44 118.6 38.43 118.6 34.76 118.92 34.76 118.92 33.95 115.25 33.95 115.25 34.76 115.58 34.76 115.58 37.4 114.19 37.4 106.36 42.24 106.36 47.86 103.1 47.86 103.1 41.01 97.82 41.01 97.82 35.3 92.53 35.3 92.53 29.59 87.24 29.59 87.24 48.73 84.44 48.73 84.44 44.06 77.72 37.65 76.31 37.65 75.12 38.78 64.56 38.78 63.37 37.65 61.96 37.65 55.24 44.06 55.24 47.18 43.43 47.18 43.43 46.52 36.84 35.48 35.61 35.48 35.02 36.47 30.38 36.47 30.38 33.74 30.62 33.74 30.62 33.14 27.89 33.14 27.89 33.74 28.14 33.74 28.14 36.47 23.38 36.47 22.78 35.48 21.55 35.48 16.68 43.64 12.52 43.64 12.52 99.89 160.69 99.89 160.69 50.78"/><rect class="cls-5" x="12.52" y="111.76" width="148.17" height="29.97"/><rect class="cls-6" x="12.52" y="99.89" width="148.17" height="11.88"/><path class="cls-7" d="M129.83,118.3a.92.92,0,0,1,.92-.91H20.38a.92.92,0,0,1,0,1.83H130.75A.92.92,0,0,1,129.83,118.3Z" transform="translate(12.52)"/><path class="cls-8" d="M137.57,112.68a.92.92,0,0,1,.91-.92H7.59a.92.92,0,0,1,0,1.84H138.48A.92.92,0,0,1,137.57,112.68Z" transform="translate(12.52)"/><path class="cls-8" d="M143.85,113.6H3.72a1.9,1.9,0,0,0,0,3.79H143.85a1.9,1.9,0,1,0,0-3.79Z" transform="translate(12.52)"/><path class="cls-7" d="M134.29,119.22H18.09a1.9,1.9,0,1,0,0,3.79h116.2a1.9,1.9,0,1,0,0-3.79Z" transform="translate(12.52)"/><path class="cls-9" d="M129.83,123.93a.92.92,0,0,1,.92-.92H36.28a.92.92,0,1,1,0,1.83h94.47A.92.92,0,0,1,129.83,123.93Z" transform="translate(12.52)"/><path class="cls-9" d="M140,124.84H29.45a1.9,1.9,0,1,0,0,3.79H140a1.9,1.9,0,0,0,0-3.79Z" transform="translate(12.52)"/><path class="cls-9" d="M109,129.55a.92.92,0,0,1,.92-.92H57.85a.92.92,0,1,1,0,1.84h52.07A.92.92,0,0,1,109,129.55Z" transform="translate(12.52)"/><path class="cls-9" d="M111.92,130.47H47.71a1.9,1.9,0,1,0,0,3.79h64.21a1.9,1.9,0,1,0,0-3.79Z" transform="translate(12.52)"/><path class="cls-9" d="M34.23,130.47H20.12a1.9,1.9,0,1,0,0,3.79H34.23a1.9,1.9,0,0,0,0-3.79Z" transform="translate(12.52)"/><path class="cls-9" d="M120.76,130.47h-2.2a1.9,1.9,0,0,0,0,3.79h2.2a1.9,1.9,0,0,0,0-3.79Z" transform="translate(12.52)"/><path class="cls-9" d="M70.87,136.34H83.15a1.27,1.27,0,0,1,0,2.53H70.87a1.27,1.27,0,1,1,0-2.53Z" transform="translate(12.52)"/><path class="cls-9" d="M65,136.34h1.47a1.27,1.27,0,0,1,0,2.53H65a1.27,1.27,0,0,1,0-2.53Z" transform="translate(12.52)"/><path class="cls-10" d="M122.35,114.35H111.77a1,1,0,0,0,0,1.94h10.58a1,1,0,0,0,0-1.94Z" transform="translate(12.52)"/><path class="cls-7" d="M51.23,114.13H27.42a1,1,0,0,0,0,1.94H51.23a1,1,0,0,0,0-1.94Z" transform="translate(12.52)"/><path class="cls-7" d="M23.09,114.13H20.38a1,1,0,0,0,0,1.94h2.71a1,1,0,0,0,0-1.94Z" transform="translate(12.52)"/><path class="cls-7" d="M48.46,116.73a.66.66,0,0,1,.65-.66h-17a.66.66,0,0,1,0,1.32h17A.66.66,0,0,1,48.46,116.73Z" transform="translate(12.52)"/><path class="cls-10" d="M103.41,124.33H79.94a1,1,0,1,0,0,1.94h23.47a1,1,0,1,0,0-1.94Z" transform="translate(12.52)"/><path class="cls-10" d="M76.56,124.33h-3.4a1,1,0,1,0,0,1.94h3.4a1,1,0,1,0,0-1.94Z" transform="translate(12.52)"/><path class="cls-10" d="M98.61,123.67a.67.67,0,0,1,.66-.66h-18a.66.66,0,0,1,0,1.32h18A.67.67,0,0,1,98.61,123.67Z" transform="translate(12.52)"/><path class="cls-8" d="M60.39,119.77H29a1,1,0,1,0,0,1.94H60.39a1,1,0,1,0,0-1.94Z" transform="translate(12.52)"/><path class="cls-8" d="M115.74,119.77H94.26a1,1,0,1,0,0,1.94h21.48a1,1,0,1,0,0-1.94Z" transform="translate(12.52)"/><path class="cls-9" d="M11,119.22H7.73a1.9,1.9,0,1,0,0,3.79H11a1.9,1.9,0,1,0,0-3.79Z" transform="translate(12.52)"/><rect class="cls-6" x="12.52" y="99.89" width="148.17" height="11.88"/><rect class="cls-11" x="12.52" y="99.89" width="148.17" height="3.75"/><g class="cls-12"><path class="cls-13" d="M115.53,25.2c-.08-1.76-2.17-3.28-3.55-1,.39-3.46-3.18-4.3-4.61-2.13a4.85,4.85,0,0,0-9.44.18c-2-3.27-6-1.88-6.55,1.58-1-1.44-3-.5-3.08,1.33Z" transform="translate(12.52)"/><path class="cls-13" d="M132.56,25.2a2.21,2.21,0,0,0,0-.37,3.71,3.71,0,0,0-7.28-1c-1.69-2.21-3.83-.07-3.78,1.35Z" transform="translate(12.52)"/><circle class="cls-13" cx="147.42" cy="24.05" r="1.18"/><path class="cls-13" d="M70.84,21.64a3.36,3.36,0,0,0-2,.64,4,4,0,0,0-4.05-4.15,3.92,3.92,0,0,0-3.63,2.15,4.53,4.53,0,0,0-3.56-1.72,4.58,4.58,0,0,0-4.47,3.59A3.77,3.77,0,0,0,47,23.64a2,2,0,0,0-.89-.2A2.12,2.12,0,0,0,44,25.2H74.2A3.51,3.51,0,0,0,70.84,21.64Z" transform="translate(12.52)"/><path class="cls-13" d="M78.4,24.05A1.41,1.41,0,1,1,77,22.65,1.41,1.41,0,0,1,78.4,24.05Z" transform="translate(12.52)"/><path class="cls-13" d="M34.8,22.47v-.08a3.8,3.8,0,1,0-7.59,0s0,0,0,.07a2.58,2.58,0,0,0-.88-.15,2.76,2.76,0,0,0-2.76,2.77v.12H39.39A2.91,2.91,0,0,0,34.8,22.47Z" transform="translate(12.52)"/><circle class="cls-13" cx="32.81" cy="23.94" r="1.37"/><path class="cls-13" d="M15.65,24.26a1,1,0,1,1-1-1A1,1,0,0,1,15.65,24.26Z" transform="translate(12.52)"/></g><path class="cls-14 sun" d="M89.65,13.79A4.89,4.89,0,1,1,84.77,8.9,4.89,4.89,0,0,1,89.65,13.79Z" transform="translate(12.52)"/><g class="cls-15"><path class="cls-16" d="M11.59,57.58h-.27a5.73,5.73,0,0,0,.06-.84,6.38,6.38,0,0,0-12.75,0q0,.33,0,.66a10.37,10.37,0,0,0-1.12-.06A10.05,10.05,0,0,0-12.52,67.4,10.05,10.05,0,0,0-2.46,77.46a10.07,10.07,0,0,0,9.32-6.28,7.62,7.62,0,1,0,4.73-13.6Z" transform="translate(12.52)"/><path class="cls-17" d="M7.27,68.88c-7.74,10.32-21.89.6-15.5-9.72a10.06,10.06,0,0,0-4.29,8.24A10.05,10.05,0,0,0-2.46,77.46a10.07,10.07,0,0,0,9.32-6.28,7.62,7.62,0,0,0,11.58-2.63C13.68,72.52,7.89,69.28,7.27,68.88Z" transform="translate(12.52)"/><path class="cls-18" d="M12.23,72.94A4.25,4.25,0,1,1,8,68.69,4.24,4.24,0,0,1,12.23,72.94Z" transform="translate(12.52)"/><path class="cls-19" d="M7,74.93a4.4,4.4,0,0,1-2.81-3.84,4.13,4.13,0,0,0-.43,1.85,4.24,4.24,0,0,0,8.39.91A4.22,4.22,0,0,1,7,74.93Z" transform="translate(12.52)"/><path class="cls-20" d="M17.17,66.29c-1.25,2.27-4.47,2.89-7.19,1.38s-3.9-4.56-2.65-6.83,4.48-2.88,7.2-1.38S18.43,64,17.17,66.29Z" transform="translate(12.52)"/><path class="cls-20" d="M9.07,57.14c-.88,1.59-3.13,2-5,1s-2.73-3.2-1.85-4.78,3.13-2,5-1S10,55.56,9.07,57.14Z" transform="translate(12.52)"/><polygon class="cls-21" points="19.49 73.51 16.82 76.1 16.57 64.37 16.27 64.36 16.08 72.29 13.19 67.67 12.98 67.78 16.05 73.28 15.83 79.03 11.34 73.67 10.99 73.91 15.83 80.38 15.83 99.89 16.82 99.89 16.82 77.32 19.73 73.74 19.49 73.51"/></g><polygon class="cls-22" points="31.62 55.45 39.55 68.75 39.55 99.89 23.69 99.89 23.69 68.75 31.62 55.45"/><polygon class="cls-23" points="31.62 56.65 23.23 70.69 46.63 70.69 55.02 56.65 31.62 56.65"/><polygon class="cls-24" points="32.19 56.65 23.8 70.69 24.19 70.69 32.58 56.65 32.19 56.65"/><polygon class="cls-24" points="33.34 56.65 24.95 70.69 25.34 70.69 33.73 56.65 33.34 56.65"/><polygon class="cls-24" points="34.49 56.65 26.1 70.69 26.49 70.69 34.88 56.65 34.49 56.65"/><polygon class="cls-24" points="35.64 56.65 27.25 70.69 27.64 70.69 36.03 56.65 35.64 56.65"/><polygon class="cls-24" points="36.79 56.65 28.4 70.69 28.79 70.69 37.19 56.65 36.79 56.65"/><polygon class="cls-24" points="37.94 56.65 29.55 70.69 29.94 70.69 38.34 56.65 37.94 56.65"/><polygon class="cls-24" points="39.09 56.65 30.7 70.69 31.09 70.69 39.49 56.65 39.09 56.65"/><polygon class="cls-24" points="40.24 56.65 31.85 70.69 32.25 70.69 40.64 56.65 40.24 56.65"/><polygon class="cls-24" points="41.4 56.65 33 70.69 33.4 70.69 41.79 56.65 41.4 56.65"/><polygon class="cls-24" points="42.55 56.65 34.15 70.69 34.55 70.69 42.94 56.65 42.55 56.65"/><polygon class="cls-24" points="43.7 56.65 35.3 70.69 35.7 70.69 44.09 56.65 43.7 56.65"/><polygon class="cls-24" points="44.85 56.65 36.45 70.69 36.85 70.69 45.24 56.65 44.85 56.65"/><polygon class="cls-24" points="46 56.65 37.61 70.69 38 70.69 46.39 56.65 46 56.65"/><polygon class="cls-24" points="47.15 56.65 38.76 70.69 39.15 70.69 47.54 56.65 47.15 56.65"/><polygon class="cls-24" points="48.3 56.65 39.91 70.69 40.3 70.69 48.7 56.65 48.3 56.65"/><polygon class="cls-24" points="49.45 56.65 41.06 70.69 41.45 70.69 49.85 56.65 49.45 56.65"/><polygon class="cls-24" points="50.6 56.65 42.21 70.69 42.6 70.69 51 56.65 50.6 56.65"/><polygon class="cls-24" points="51.75 56.65 43.36 70.69 43.76 70.69 52.15 56.65 51.75 56.65"/><polygon class="cls-24" points="52.91 56.65 44.51 70.69 44.91 70.69 53.3 56.65 52.91 56.65"/><polygon class="cls-24" points="54.06 56.65 45.66 70.69 46.06 70.69 54.45 56.65 54.06 56.65"/><polygon class="cls-25" points="47.09 68.75 47.09 69.95 47.07 69.95 46.63 70.69 23.23 70.69 23.69 69.92 23.69 68.75 22.2 68.75 22.2 99.89 48.58 99.89 48.58 68.75 47.09 68.75"/><polygon class="cls-26" points="23.47 70.69 23.23 71.88 46.63 71.88 47.07 69.95 46.63 70.69 23.47 70.69"/><polygon class="cls-22" points="56.51 55.45 64.44 68.75 64.44 99.89 48.58 99.89 48.58 68.75 56.51 55.45"/><polygon class="cls-27" points="56.51 55.45 55.02 55.45 47.09 68.75 48.58 68.75 56.51 55.45"/><polygon class="cls-27" points="31.62 55.45 30.13 55.45 22.2 68.75 23.69 68.75 31.62 55.45"/><rect class="cls-28" x="48.57" y="97.85" width="16.29" height="2.04"/><rect class="cls-29" x="21.78" y="97.85" width="26.79" height="2.04"/><rect class="cls-30" x="48.57" y="97.85" width="16.29" height="0.34"/><rect class="cls-13" x="21.78" y="97.85" width="26.79" height="0.34"/><rect class="cls-28" x="48.57" y="83.64" width="16.29" height="1.01"/><rect class="cls-29" x="21.78" y="83.64" width="26.79" height="1.01"/><rect class="cls-31" x="48.58" y="84.65" width="15.86" height="0.47"/><rect class="cls-32" x="22.2" y="84.65" width="26.37" height="0.47"/><polygon class="cls-24" points="49.83 56.65 48.18 59.44 51.75 56.65 49.83 56.65"/><polygon class="cls-28" points="49.83 52.64 49.83 56.65 48.18 59.44 48.18 52.64 49.83 52.64"/><rect class="cls-29" x="46.53" y="52.64" width="1.65" height="6.81"/><rect class="cls-28" x="48.18" y="51.75" width="2.01" height="0.89"/><rect class="cls-29" x="46.17" y="51.75" width="2.01" height="0.89"/><rect class="cls-33" x="48.18" y="52.64" width="1.65" height="0.45"/><rect class="cls-28" x="46.53" y="52.64" width="1.65" height="0.45"/><polygon class="cls-24" points="42.71 66.46 39.97 69.95 42.05 66.46 42.71 66.46"/><polygon class="cls-22" points="39.94 65.57 39.97 69.95 42.58 65.57 39.94 65.57"/><polygon class="cls-25" points="39.94 65.57 35.38 62.37 30.8 65.57 30.8 69.95 39.97 69.95 39.94 65.57"/><polygon class="cls-22" points="39.94 67.09 39.96 69.95 39.97 69.95 39.94 65.57 35.38 62.37 30.8 65.57 30.8 67.09 35.38 63.9 39.94 67.09"/><rect class="cls-22" x="32.59" y="65.39" width="0.37" height="3.45"/><rect class="cls-34" x="35.96" y="65.92" width="2" height="2.39"/><rect class="cls-34" x="33.49" y="65.92" width="2" height="2.39"/><path class="cls-35" d="M20.44,65.39v3.45h5.23V65.39ZM21,68.31V65.92h2v2.39Zm4.48,0h-2V65.92h2Z" transform="translate(12.52)"/><polygon class="cls-36" points="33.74 66.89 38.18 66.89 38.18 65.39 32.96 65.39 32.96 68.84 33.74 68.84 33.74 66.89"/><polygon class="cls-23" points="34.28 62.29 39.71 66.03 42.93 66.03 40.75 62.29 34.28 62.29"/><path class="cls-24" d="M29.72,64.85,26,62.29h-.47L30,65.4ZM29,63.6,27.1,62.29h-.47l2.68,1.85Zm-.73-1.26-.07-.05h-.47l.86.59Zm-4.9-.05L28.78,66h.48l-5.43-3.74Zm-1.09,0L27.69,66h.48l-5.43-3.74Zm2.65,0h-.47L29.87,66h.48Z" transform="translate(12.52)"/><polygon class="cls-37" points="29.07 66.46 28.8 66.12 34.28 62.29 39.71 66.03 39.49 66.46 34.28 62.82 29.07 66.46"/><polygon class="cls-38" points="34.51 62.98 34.28 62.82 29.07 66.46 29.54 66.46 30.8 66.46 30.8 65.57 34.51 62.98"/><polygon class="cls-37" points="42.71 66.46 42.93 66.03 39.71 66.03 39.49 66.46 42.71 66.46"/><polygon class="cls-26" points="45.84 94.03 45.84 94.61 42.25 94.61 42.57 95.4 46.16 95.4 46.16 94.83 45.84 94.03"/><rect class="cls-22" x="42.25" y="86.93" width="0.37" height="7.1"/><rect class="cls-34" x="43.15" y="87.46" width="2.46" height="6.04"/><path class="cls-35" d="M30.1,86.93V94h3.22v-7.1Zm3,6.57H30.63v-6H33.1Z" transform="translate(12.52)"/><polygon class="cls-36" points="43.41 88.44 45.84 88.44 45.84 86.93 42.62 86.93 42.62 94.03 43.41 94.03 43.41 88.44"/><rect class="cls-13" x="41.66" y="94.03" width="3.59" height="0.58"/><rect class="cls-39" x="45.25" y="94.03" width="0.58" height="0.58"/><polygon class="cls-26" points="28.56 94.03 28.56 94.61 24.97 94.61 25.29 95.4 28.88 95.4 28.88 94.83 28.56 94.03"/><rect class="cls-22" x="24.97" y="86.93" width="0.37" height="7.1"/><rect class="cls-34" x="25.87" y="87.46" width="2.46" height="6.04"/><path class="cls-35" d="M12.83,86.93V94H16v-7.1Zm3,6.57H13.36v-6h2.46Z" transform="translate(12.52)"/><polygon class="cls-36" points="26.13 88.44 28.56 88.44 28.56 86.93 25.34 86.93 25.34 94.03 26.13 94.03 26.13 88.44"/><rect class="cls-13" x="24.38" y="94.03" width="3.59" height="0.58"/><rect class="cls-39" x="27.97" y="94.03" width="0.58" height="0.58"/><polygon class="cls-26" points="34.32 80.59 34.32 81.17 30.73 81.17 31.05 81.96 34.64 81.96 34.64 81.38 34.32 80.59"/><rect class="cls-22" x="30.73" y="73.49" width="0.37" height="7.1"/><rect class="cls-34" x="31.63" y="74.02" width="2.46" height="6.04"/><path class="cls-35" d="M18.59,73.49v7.1H21.8v-7.1Zm3,6.57H19.11V74h2.47Z" transform="translate(12.52)"/><polygon class="cls-36" points="31.89 75 34.32 75 34.32 73.49 31.1 73.49 31.1 80.59 31.89 80.59 31.89 75"/><rect class="cls-13" x="30.14" y="80.59" width="3.59" height="0.58"/><rect class="cls-39" x="33.73" y="80.59" width="0.58" height="0.58"/><polygon class="cls-26" points="40.08 80.59 40.08 81.17 36.49 81.17 36.81 81.96 40.4 81.96 40.4 81.38 40.08 80.59"/><rect class="cls-22" x="36.49" y="73.49" width="0.37" height="7.1"/><rect class="cls-34" x="37.39" y="74.02" width="2.46" height="6.04"/><path class="cls-35" d="M24.34,73.49v7.1h3.22v-7.1Zm3,6.57H24.87V74h2.47Z" transform="translate(12.52)"/><polygon class="cls-36" points="37.65 75 40.08 75 40.08 73.49 36.86 73.49 36.86 80.59 37.65 80.59 37.65 75"/><rect class="cls-13" x="35.9" y="80.59" width="3.59" height="0.58"/><rect class="cls-39" x="39.49" y="80.59" width="0.58" height="0.58"/><polygon class="cls-26" points="45.84 80.59 45.84 81.17 42.25 81.17 42.57 81.96 46.16 81.96 46.16 81.38 45.84 80.59"/><rect class="cls-22" x="42.25" y="73.49" width="0.37" height="7.1"/><rect class="cls-34" x="43.15" y="74.02" width="2.46" height="6.04"/><path class="cls-35" d="M30.1,73.49v7.1h3.22v-7.1Zm3,6.57H30.63V74H33.1Z" transform="translate(12.52)"/><polygon class="cls-36" points="43.41 75 45.84 75 45.84 73.49 42.62 73.49 42.62 80.59 43.41 80.59 43.41 75"/><rect class="cls-13" x="41.66" y="80.59" width="3.59" height="0.58"/><rect class="cls-39" x="45.25" y="80.59" width="0.58" height="0.58"/><rect class="cls-22" x="32.82" y="86.93" width="0.52" height="10.89"/><rect class="cls-40" x="33.33" y="86.93" width="4.62" height="10.89"/><rect class="cls-41" x="33.96" y="87.37" width="1.39" height="2.99"/><rect class="cls-42" x="35.35" y="87.37" width="0.27" height="2.99"/><rect class="cls-41" x="36.03" y="87.37" width="1.39" height="2.99"/><rect class="cls-42" x="37.41" y="87.37" width="0.27" height="2.99"/><rect class="cls-41" x="33.96" y="90.9" width="1.39" height="2.99"/><rect class="cls-42" x="35.35" y="90.9" width="0.27" height="2.99"/><rect class="cls-41" x="36.03" y="90.9" width="1.39" height="2.99"/><rect class="cls-42" x="37.41" y="90.9" width="0.27" height="2.99"/><rect class="cls-41" x="33.96" y="94.44" width="1.39" height="2.99"/><rect class="cls-42" x="35.35" y="94.44" width="0.27" height="2.99"/><rect class="cls-41" x="36.03" y="94.44" width="1.39" height="2.99"/><rect class="cls-42" x="37.41" y="94.44" width="0.27" height="2.99"/><polygon class="cls-43" points="33.96 88.4 37.95 88.4 37.95 86.93 33.34 86.93 33.34 97.83 33.96 97.83 33.96 88.4"/><polygon class="cls-44" points="36.53 99.2 37.29 99.2 37.29 98.52 38.05 98.52 38.05 97.83 39.57 97.83 39.57 99.89 36.53 99.89 36.53 99.2"/><rect class="cls-45" x="29.87" y="97.83" width="8.18" height="0.69"/><rect class="cls-46" x="29.11" y="98.51" width="8.18" height="0.69"/><rect class="cls-28" x="28.35" y="99.2" width="8.18" height="0.69"/><polygon class="cls-26" points="28.56 80.59 28.56 81.17 24.97 81.17 25.29 81.96 28.88 81.96 28.88 81.38 28.56 80.59"/><rect class="cls-22" x="24.97" y="73.49" width="0.37" height="7.1"/><rect class="cls-34" x="25.87" y="74.02" width="2.46" height="6.04"/><path class="cls-35" d="M12.83,73.49v7.1H16v-7.1Zm3,6.57H13.36V74h2.46Z" transform="translate(12.52)"/><polygon class="cls-36" points="26.13 75 28.56 75 28.56 73.49 25.34 73.49 25.34 80.59 26.13 80.59 26.13 75"/><rect class="cls-13" x="24.38" y="80.59" width="3.59" height="0.58"/><rect class="cls-39" x="27.97" y="80.59" width="0.58" height="0.58"/><rect class="cls-25" x="61.89" y="73.49" width="0.47" height="8.14"/><rect class="cls-34" x="57.49" y="73.86" width="4.01" height="7.4"/><polygon class="cls-39" points="61.5 81.26 61.5 73.86 57.49 73.86 57.49 73.49 61.88 73.49 61.88 81.63 57.49 81.63 57.49 81.26 61.5 81.26"/><rect class="cls-39" x="59.28" y="73.86" width="0.37" height="7.4"/><rect class="cls-39" x="57.49" y="78.74" width="4.01" height="0.37"/><rect class="cls-39" x="57.49" y="76.02" width="4.01" height="0.37"/><polygon class="cls-36" points="61.88 73.49 57.49 73.49 57.49 81.26 58.31 81.26 58.31 75.34 61.88 75.34 61.88 73.49"/><polygon class="cls-47" points="61.88 73.49 61.88 75.34 61.89 75.34 62.35 75.78 62.35 73.49 61.88 73.49"/><rect class="cls-25" x="55.03" y="73.49" width="0.47" height="8.14"/><rect class="cls-34" x="50.63" y="73.86" width="4.01" height="7.4"/><polygon class="cls-39" points="54.65 81.26 54.65 73.86 50.63 73.86 50.63 73.49 55.03 73.49 55.03 81.63 50.63 81.63 50.63 81.26 54.65 81.26"/><rect class="cls-39" x="52.43" y="73.86" width="0.37" height="7.4"/><rect class="cls-39" x="50.63" y="78.74" width="4.01" height="0.37"/><rect class="cls-39" x="50.63" y="76.02" width="4.01" height="0.37"/><polygon class="cls-36" points="55.03 73.49 50.63 73.49 50.63 81.26 51.45 81.26 51.45 75.34 55.03 75.34 55.03 73.49"/><polygon class="cls-47" points="55.03 73.49 55.03 75.34 55.03 75.34 55.5 75.78 55.5 73.49 55.03 73.49"/><rect class="cls-25" x="61.89" y="86.93" width="0.47" height="8.14"/><rect class="cls-34" x="57.49" y="87.3" width="4.01" height="7.4"/><polygon class="cls-39" points="61.5 94.7 61.5 87.3 57.49 87.3 57.49 86.93 61.88 86.93 61.88 95.07 57.49 95.07 57.49 94.7 61.5 94.7"/><rect class="cls-39" x="59.28" y="87.3" width="0.37" height="7.4"/><rect class="cls-39" x="57.49" y="92.18" width="4.01" height="0.37"/><rect class="cls-39" x="57.49" y="89.46" width="4.01" height="0.37"/><polygon class="cls-36" points="61.88 86.93 57.49 86.93 57.49 94.7 58.31 94.7 58.31 88.78 61.88 88.78 61.88 86.93"/><polygon class="cls-47" points="61.88 86.93 61.88 88.78 61.89 88.78 62.35 89.22 62.35 86.93 61.88 86.93"/><rect class="cls-25" x="55.03" y="86.93" width="0.47" height="8.14"/><rect class="cls-34" x="50.63" y="87.3" width="4.01" height="7.4"/><polygon class="cls-39" points="54.65 94.7 54.65 87.3 50.63 87.3 50.63 86.93 55.03 86.93 55.03 95.07 50.63 95.07 50.63 94.7 54.65 94.7"/><rect class="cls-39" x="52.43" y="87.3" width="0.37" height="7.4"/><rect class="cls-39" x="50.63" y="92.18" width="4.01" height="0.37"/><rect class="cls-39" x="50.63" y="89.46" width="4.01" height="0.37"/><polygon class="cls-36" points="55.03 86.93 50.63 86.93 50.63 94.7 51.45 94.7 51.45 88.78 55.03 88.78 55.03 86.93"/><polygon class="cls-47" points="55.03 86.93 55.03 88.78 55.03 88.78 55.5 89.22 55.5 86.93 55.03 86.93"/><path class="cls-48" d="M33.2,66h.27a8.1,8.1,0,0,1-.06-.86,6.51,6.51,0,1,1,13,0c0,.23,0,.45,0,.67a10.93,10.93,0,0,1,1.15-.06A10.27,10.27,0,1,1,38,79.86,7.79,7.79,0,1,1,33.2,66Z" transform="translate(12.52)"/><path class="cls-49" d="M56.55,80.93c-6.64,5.81-16.39.48-16-3.8-9.46,5.35-15.53-4.84-8.94-11A7.79,7.79,0,1,0,38,79.86a10.27,10.27,0,0,0,18.52,1.07Z" transform="translate(12.52)"/><path class="cls-20" d="M54.06,76.1c-1.28,2.31-4.57,2.94-7.35,1.41s-4-4.66-2.7-7,4.57-2.94,7.35-1.41S55.34,73.78,54.06,76.1Z" transform="translate(12.52)"/><path class="cls-20" d="M43.94,66c-.9,1.61-3.2,2.06-5.14,1S36,63.76,36.91,62.14s3.2-2.06,5.14-1S44.83,64.42,43.94,66Z" transform="translate(12.52)"/><polygon class="cls-21" points="50.43 84.58 53.15 87.22 53.41 72.9 53.72 72.9 53.91 80.99 56.87 76.27 57.07 76.39 53.94 82 54.17 87.87 58.76 82.4 59.11 82.64 54.17 89.25 54.17 99.89 53.15 99.89 53.15 88.46 50.18 84.81 50.43 84.58"/><path class="cls-50" d="M39.54,83.32A4.34,4.34,0,1,1,35.21,79,4.33,4.33,0,0,1,39.54,83.32Z" transform="translate(12.52)"/><path class="cls-51" d="M34.18,85.35a4.48,4.48,0,0,1-2.88-3.92,4.44,4.44,0,0,0-.43,1.89,4.33,4.33,0,0,0,8.57.93A4.29,4.29,0,0,1,34.18,85.35Z" transform="translate(12.52)"/><polygon class="cls-52" points="63.99 53.82 73.4 62.78 73.4 99.89 54.58 99.89 54.58 62.78 63.99 53.82"/><polygon class="cls-53" points="63.99 55.4 54.06 64.84 72.16 64.84 82.09 55.4 63.99 55.4"/><polygon class="cls-54" points="64.54 55.4 54.62 64.84 54.88 64.84 64.8 55.4 64.54 55.4"/><polygon class="cls-54" points="65.52 55.4 55.6 64.84 55.86 64.84 65.78 55.4 65.52 55.4"/><polygon class="cls-54" points="66.5 55.4 56.58 64.84 56.84 64.84 66.76 55.4 66.5 55.4"/><polygon class="cls-54" points="67.48 55.4 57.56 64.84 57.82 64.84 67.75 55.4 67.48 55.4"/><polygon class="cls-54" points="68.47 55.4 58.54 64.84 58.8 64.84 68.73 55.4 68.47 55.4"/><polygon class="cls-54" points="69.45 55.4 59.52 64.84 59.78 64.84 69.71 55.4 69.45 55.4"/><polygon class="cls-54" points="70.43 55.4 60.51 64.84 60.77 64.84 70.69 55.4 70.43 55.4"/><polygon class="cls-54" points="71.41 55.4 61.49 64.84 61.75 64.84 71.67 55.4 71.41 55.4"/><polygon class="cls-54" points="72.39 55.4 62.47 64.84 62.73 64.84 72.66 55.4 72.39 55.4"/><polygon class="cls-54" points="73.38 55.4 63.45 64.84 63.71 64.84 73.64 55.4 73.38 55.4"/><polygon class="cls-54" points="74.36 55.4 64.43 64.84 64.69 64.84 74.62 55.4 74.36 55.4"/><polygon class="cls-54" points="75.34 55.4 65.42 64.84 65.68 64.84 75.6 55.4 75.34 55.4"/><polygon class="cls-54" points="76.32 55.4 66.4 64.84 66.66 64.84 76.58 55.4 76.32 55.4"/><polygon class="cls-54" points="77.3 55.4 67.38 64.84 67.64 64.84 77.56 55.4 77.3 55.4"/><polygon class="cls-54" points="78.29 55.4 68.36 64.84 68.62 64.84 78.55 55.4 78.29 55.4"/><polygon class="cls-54" points="79.27 55.4 69.34 64.84 69.61 64.84 79.53 55.4 79.27 55.4"/><polygon class="cls-54" points="80.25 55.4 70.33 64.84 70.59 64.84 80.51 55.4 80.25 55.4"/><polygon class="cls-54" points="81.23 55.4 71.31 64.84 71.57 64.84 81.49 55.4 81.23 55.4"/><polygon class="cls-55" points="72.68 62.78 72.68 64.37 72.66 64.37 72.16 64.84 54.06 64.84 54.58 64.35 54.58 62.78 52.6 62.78 52.6 99.89 74.66 99.89 74.66 62.78 72.68 62.78"/><polygon class="cls-52" points="54.38 64.84 54.06 65.66 72.16 65.66 72.66 64.37 72.16 64.84 54.38 64.84"/><rect class="cls-56" x="52.6" y="82.55" width="22.06" height="17.34"/><polygon class="cls-57" points="63.99 53.82 62.01 53.82 52.6 62.78 54.58 62.78 63.99 53.82"/><polygon class="cls-57" points="84.07 53.82 82.09 53.82 72.68 62.78 74.66 62.78 84.07 53.82"/><polygon class="cls-52" points="84.07 53.82 93.48 62.78 93.48 99.89 74.66 99.89 74.66 62.78 84.07 53.82"/><rect class="cls-58" x="74.66" y="82.55" width="18.82" height="17.34"/><rect class="cls-57" x="52.12" y="81.04" width="22.55" height="1.51"/><rect class="cls-59" x="74.67" y="81.04" width="19.28" height="1.51"/><rect class="cls-60" x="52.12" y="81.04" width="22.55" height="0.46"/><rect class="cls-61" x="74.67" y="81.04" width="19.28" height="0.46"/><rect class="cls-62" x="52.6" y="82.55" width="22.06" height="0.6"/><rect class="cls-63" x="74.67" y="82.55" width="18.81" height="0.6"/><polygon class="cls-52" points="71.16 61.99 68.63 61.99 68.66 64.37 71.16 61.99"/><polygon class="cls-55" points="68.63 61.99 63.66 58.52 58.69 61.99 58.69 64.37 68.66 64.37 68.63 61.99"/><path class="cls-35" d="M51.38,60.32A1.69,1.69,0,1,0,52.84,62,1.68,1.68,0,0,0,51.38,60.32Z" transform="translate(12.52)"/><path class="cls-34" d="M52.6,61.12a1.34,1.34,0,0,0-1-.45,1.32,1.32,0,0,0,0,2.64,1.34,1.34,0,0,0,1-.45,1.7,1.7,0,0,0,0-1.74Z" transform="translate(12.52)"/><path class="cls-52" d="M49.91,62a1.7,1.7,0,0,1,1.44-1.68l-.2,0a1.7,1.7,0,1,0,0,3.4l.23,0A1.69,1.69,0,0,1,49.91,62Z" transform="translate(12.52)"/><path class="cls-36" d="M50.59,62.58a1.33,1.33,0,0,1,1.33-1.33,1.36,1.36,0,0,1,.87.33,1.49,1.49,0,1,0-1.74,2A1.32,1.32,0,0,1,50.59,62.58Z" transform="translate(12.52)"/><polygon class="cls-64" points="63.32 58.59 58.69 61.82 58 62.31 58.69 62.31 58.69 61.99 63.44 58.67 63.32 58.59"/><polygon class="cls-65" points="58 62.31 57.77 61.98 63.32 58.11 68.86 61.98 68.63 62.31 63.32 58.59 58 62.31"/><polygon class="cls-54" points="63.32 58.11 68.86 61.98 71.41 61.98 68.16 58.11 63.32 58.11"/><polygon class="cls-64" points="68.86 61.98 68.63 62.31 71.18 62.31 71.41 61.98 68.86 61.98"/><path class="cls-65" d="M57.48,60.3l-3.16-2.19h-.26l3.8,2.64Zm-6.37-2.19L56.65,62h.26l-5.54-3.87Zm4.94.49-.75-.49H55l1.38.93Zm-4-.49L57.63,62h.26l-5.54-3.87Zm1.24,0h-.26L58.61,62h.26Z" transform="translate(12.52)"/><path class="cls-52" d="M46.54,68.47l-.2,0A2.55,2.55,0,0,0,43.79,71v6.3h.49V71A2.55,2.55,0,0,1,46.54,68.47Z" transform="translate(12.52)"/><path class="cls-34" d="M48.88,71a2.52,2.52,0,0,0-.38-1.33,2.1,2.1,0,0,0-1.68-.81h0A2.14,2.14,0,0,0,44.68,71v5.9h4.2Z" transform="translate(12.52)"/><path class="cls-35" d="M44.68,76.9V71a2.14,2.14,0,0,1,2.14-2.14h0a2.1,2.1,0,0,1,1.68.81,2.5,2.5,0,0,0-1.92-1.2A2.54,2.54,0,0,0,44.28,71v6.3h4.6v-.4Z" transform="translate(12.52)"/><path class="cls-35" d="M46.82,68.86h-.2v8H47v-8Z" transform="translate(12.52)"/><rect class="cls-35" x="57.2" y="74.16" width="4.21" height="0.4"/><rect class="cls-35" x="57.2" y="71.2" width="4.21" height="0.4"/><path class="cls-36" d="M47.68,70.24a2.15,2.15,0,0,1,1.17.35,2.57,2.57,0,0,0-2.27-2.12A2.54,2.54,0,0,0,44.28,71v6.3h1.25V72.38A2.15,2.15,0,0,1,47.68,70.24Z" transform="translate(12.52)"/><path class="cls-52" d="M56.1,68.47l-.21,0A2.55,2.55,0,0,0,53.34,71v6.3h.49V71A2.55,2.55,0,0,1,56.1,68.47Z" transform="translate(12.52)"/><path class="cls-34" d="M58.44,71a2.52,2.52,0,0,0-.38-1.33,2.13,2.13,0,0,0-1.68-.81h0A2.14,2.14,0,0,0,54.23,71v5.9h4.21Z" transform="translate(12.52)"/><path class="cls-35" d="M54.23,76.9V71a2.14,2.14,0,0,1,2.15-2.14h0a2.13,2.13,0,0,1,1.68.81A2.25,2.25,0,0,0,53.83,71v6.3h4.61v-.4Z" transform="translate(12.52)"/><path class="cls-35" d="M56.38,68.86h-.2v8h.4v-8Z" transform="translate(12.52)"/><rect class="cls-35" x="66.75" y="74.16" width="4.21" height="0.4"/><rect class="cls-35" x="66.75" y="71.2" width="4.21" height="0.4"/><path class="cls-36" d="M57.23,70.24a2.12,2.12,0,0,1,1.17.35,2.68,2.68,0,0,0-.34-.92A2.25,2.25,0,0,0,53.83,71v6.3h1.26V72.38A2.14,2.14,0,0,1,57.23,70.24Z" transform="translate(12.52)"/><path class="cls-58" d="M56,85.3H55.8a2.55,2.55,0,0,0-2.55,2.55V98.1h.49V87.84A2.55,2.55,0,0,1,56,85.3Z" transform="translate(12.52)"/><path class="cls-34" d="M58.35,87.84A2.55,2.55,0,0,0,58,86.5a2.15,2.15,0,0,0-1.68-.81h0a2.15,2.15,0,0,0-2.15,2.15V97.7h4.21Z" transform="translate(12.52)"/><path class="cls-35" d="M54.14,97.7V87.84a2.15,2.15,0,0,1,2.15-2.15h0A2.15,2.15,0,0,1,58,86.5a2.25,2.25,0,0,0-4.23,1.34V98.1h4.61v-.4Z" transform="translate(12.52)"/><path class="cls-35" d="M56.29,85.69h-.2v12h.4v-12Z" transform="translate(12.52)"/><rect class="cls-35" x="66.66" y="93.57" width="4.21" height="0.4"/><rect class="cls-35" x="66.66" y="89.42" width="4.21" height="0.4"/><path class="cls-36" d="M57.15,87.07a2.1,2.1,0,0,1,1.16.36A2.48,2.48,0,0,0,58,86.5a2.25,2.25,0,0,0-4.23,1.34V98.1H55V89.22A2.15,2.15,0,0,1,57.15,87.07Z" transform="translate(12.52)"/><rect class="cls-57" x="64.74" y="98.1" width="5.49" height="0.44"/><path class="cls-52" d="M57.72,98.1v.45H58a.53.53,0,0,1,.53.53v.81h.27V98.1Z" transform="translate(12.52)"/><path class="cls-55" d="M58,98.55H52.47a.53.53,0,0,1,.53.53v.81h5.49v-.81A.53.53,0,0,0,58,98.55Z" transform="translate(12.52)"/><path class="cls-58" d="M46.53,85.3h-.21a2.55,2.55,0,0,0-2.55,2.55V98.1h.49V87.84A2.55,2.55,0,0,1,46.53,85.3Z" transform="translate(12.52)"/><path class="cls-34" d="M48.87,87.84a2.55,2.55,0,0,0-.38-1.34,2.15,2.15,0,0,0-1.68-.81h0a2.15,2.15,0,0,0-2.15,2.15V97.7h4.21Z" transform="translate(12.52)"/><path class="cls-35" d="M44.66,97.7V87.84a2.15,2.15,0,0,1,2.15-2.15h0a2.15,2.15,0,0,1,1.68.81,2.56,2.56,0,0,0-1.93-1.2,2.54,2.54,0,0,0-2.3,2.54V98.1h4.61v-.4Z" transform="translate(12.52)"/><path class="cls-35" d="M46.81,85.69h-.2v12H47v-12Z" transform="translate(12.52)"/><rect class="cls-35" x="57.18" y="93.57" width="4.21" height="0.4"/><rect class="cls-35" x="57.18" y="89.42" width="4.21" height="0.4"/><path class="cls-36" d="M47.66,87.07a2.13,2.13,0,0,1,1.17.36,2.48,2.48,0,0,0-.34-.93,2.56,2.56,0,0,0-1.93-1.2,2.54,2.54,0,0,0-2.3,2.54V98.1h1.26V89.22A2.14,2.14,0,0,1,47.66,87.07Z" transform="translate(12.52)"/><rect class="cls-57" x="55.26" y="98.1" width="5.49" height="0.44"/><path class="cls-52" d="M48.24,98.1v.45h.23a.54.54,0,0,1,.54.53v.81h.27V98.1Z" transform="translate(12.52)"/><path class="cls-55" d="M48.47,98.55H43a.54.54,0,0,1,.54.53v.81H49v-.81A.54.54,0,0,0,48.47,98.55Z" transform="translate(12.52)"/><path class="cls-55" d="M67.15,68.49l.2,0A2.55,2.55,0,0,1,69.9,71v6.3h-.49V71A2.55,2.55,0,0,0,67.15,68.49Z" transform="translate(12.52)"/><path class="cls-34" d="M64.81,71a2.52,2.52,0,0,1,.38-1.33,2.1,2.1,0,0,1,1.68-.81h0A2.14,2.14,0,0,1,69,71v5.9h-4.2Z" transform="translate(12.52)"/><path class="cls-66" d="M66.87,68.88h.2v8h-.41v-8Z" transform="translate(12.52)"/><rect class="cls-66" x="77.32" y="74.18" width="4.21" height="0.4"/><rect class="cls-66" x="77.32" y="71.22" width="4.21" height="0.4"/><path class="cls-66" d="M69,76.92V71a2.14,2.14,0,0,0-2.14-2.14h0a2.1,2.1,0,0,0-1.68.81,2.5,2.5,0,0,1,1.92-1.2A2.54,2.54,0,0,1,69.41,71v6.3h-4.6v-.4Z" transform="translate(12.52)"/><path class="cls-36" d="M65.65,72.51a2.65,2.65,0,0,1,.39-1.4,2.26,2.26,0,0,1,1.77-.85h0a2.23,2.23,0,0,1,1.6.67,2.55,2.55,0,0,0-2.3-2.44A2.55,2.55,0,0,0,64.81,71v6.3h.84Z" transform="translate(12.52)"/><path class="cls-47" d="M69.9,70.93a2.55,2.55,0,0,0-2.55-2.46l-.2,0a2.55,2.55,0,0,1,2.26,2.44l.49.85Z" transform="translate(12.52)"/><path class="cls-55" d="M75.54,68.49l.21,0A2.55,2.55,0,0,1,78.3,71v6.3h-.49V71A2.55,2.55,0,0,0,75.54,68.49Z" transform="translate(12.52)"/><path class="cls-34" d="M73.2,71a2.52,2.52,0,0,1,.38-1.33,2.12,2.12,0,0,1,1.68-.81h0A2.14,2.14,0,0,1,77.41,71v5.9H73.2Z" transform="translate(12.52)"/><path class="cls-66" d="M75.26,68.88h.2v8h-.4v-8Z" transform="translate(12.52)"/><rect class="cls-66" x="85.72" y="74.18" width="4.21" height="0.4"/><rect class="cls-66" x="85.72" y="71.22" width="4.21" height="0.4"/><path class="cls-66" d="M77.41,76.92V71a2.14,2.14,0,0,0-2.15-2.14h0a2.12,2.12,0,0,0-1.68.81A2.25,2.25,0,0,1,77.81,71v6.3H73.2v-.4Z" transform="translate(12.52)"/><path class="cls-36" d="M74,72.51a2.66,2.66,0,0,1,.4-1.4,2.24,2.24,0,0,1,1.76-.85h0a2.23,2.23,0,0,1,1.61.67,2.25,2.25,0,0,0-4.23-1.24A2.52,2.52,0,0,0,73.2,71v6.3H74Z" transform="translate(12.52)"/><path class="cls-47" d="M78.29,70.93a2.54,2.54,0,0,0-2.54-2.46l-.21,0a2.56,2.56,0,0,1,2.27,2.44l.49.85Z" transform="translate(12.52)"/><path class="cls-67" d="M71.08,88.28a3.66,3.66,0,0,0-2.84,1.36A4.5,4.5,0,0,0,67.59,92v4.31h7.16V92A3.67,3.67,0,0,0,71.08,88.28Z" transform="translate(12.52)"/><path class="cls-68" d="M70.48,88.31v8h.15v-8C70.76,88.3,70.62,88.29,70.48,88.31Z" transform="translate(12.52)"/><path class="cls-68" d="M71.08,88.28H71A3.67,3.67,0,0,1,74.6,92v4.31h.15V92A3.67,3.67,0,0,0,71.08,88.28Z" transform="translate(12.52)"/><path class="cls-68" d="M68.78,89.1v7.16h.14V89Z" transform="translate(12.52)"/><path class="cls-68" d="M72.82,88.81v7.45H73V88.81S72.86,88.81,72.82,88.81Z" transform="translate(12.52)"/><path class="cls-69" d="M71.53,88.31c-.14,0-.29,0-.45,0a3.4,3.4,0,0,0-.45,0v8h.9Z" transform="translate(12.52)"/><path class="cls-69" d="M69.29,88.76a2.92,2.92,0,0,0-.37.24v7.26h.37Z" transform="translate(12.52)"/><path class="cls-69" d="M73.33,89.06a3,3,0,0,0-.37-.25v7.45h.37Z" transform="translate(12.52)"/><rect class="cls-69" x="80.11" y="92.89" width="7.16" height="0.36"/><path class="cls-69" d="M74.73,91.57c0-.12,0-.24,0-.36h-7c0,.12,0,.24,0,.36Z" transform="translate(12.52)"/><rect class="cls-69" x="80.11" y="94.56" width="7.16" height="0.36"/><path class="cls-69" d="M68.34,89.53l-.1.11a2.1,2.1,0,0,0-.13.26h6a3.37,3.37,0,0,0-.29-.37Z" transform="translate(12.52)"/><path class="cls-69" d="M71.41,87.16a4.76,4.76,0,0,0-2.63,1,4.4,4.4,0,0,1,2.3-.65h0A4.47,4.47,0,0,1,75.55,92v6.87h.35V92A4.82,4.82,0,0,0,71.41,87.16Z" transform="translate(12.52)"/><path class="cls-69" d="M71.08,87.49h0a4.4,4.4,0,0,0-2.3.65,4.76,4.76,0,0,0-.85.83h0v0a5.61,5.61,0,0,0-.84,3v6.87h8.48V92A4.47,4.47,0,0,0,71.08,87.49Zm3.67,8.77H67.59V92a4.5,4.5,0,0,1,.65-2.31A3.66,3.66,0,0,1,74.75,92Z" transform="translate(12.52)"/><path class="cls-70" d="M71.08,87.49h0V98.82h.09V87.49Z" transform="translate(12.52)"/><path class="cls-56" d="M71.7,87.14l-.29,0A4.82,4.82,0,0,1,75.9,92v6.87h.61V92A4.82,4.82,0,0,0,71.7,87.14Z" transform="translate(12.52)"/><path class="cls-36" d="M69,91a4.17,4.17,0,0,1,6.6-.41l.19.2a4.81,4.81,0,0,0-4.33-3.6A4.84,4.84,0,0,0,67.93,89h0v0a5.61,5.61,0,0,0-.84,3v6.87h1v-4.9A5.73,5.73,0,0,1,69,91Z" transform="translate(12.52)"/><path class="cls-47" d="M76.46,91.35v0a.68.68,0,0,0,0-.14s0-.08,0-.12-.05-.24-.08-.36,0,0,0-.08h0a4.82,4.82,0,0,0-4.63-3.53l-.29,0a4.82,4.82,0,0,1,4,2.79h0a4.59,4.59,0,0,1,.29.81l.76.95C76.49,91.59,76.48,91.47,76.46,91.35Z" transform="translate(12.52)"/><polygon class="cls-71" points="82.07 99.89 82.07 99.36 82.07 99.36 81.24 99.36 81.24 98.83 79.59 98.83 79.59 99.89 82.07 99.89"/><rect class="cls-72" x="68.72" y="98.82" width="9.42" height="0.53" transform="translate(159.38 198.18) rotate(180)"/><rect class="cls-73" x="69.55" y="99.36" width="9.42" height="0.53" transform="translate(161.04 199.25) rotate(180)"/><path class="cls-74" d="M74.7,83.78a6.12,6.12,0,1,0-11.5-4.09,5.53,5.53,0,1,0,5.17,9.53,4.19,4.19,0,1,0,6.33-5.44Z" transform="translate(12.52)"/><path class="cls-75" d="M68.37,89.22a4.2,4.2,0,0,0,7.22-.61,4.56,4.56,0,0,1-7-1.9c-5.13,2.92-9.45-2.08-6.31-6.63a5.53,5.53,0,1,0,6.11,9.14Z" transform="translate(12.52)"/><path class="cls-20" d="M73.12,81.4c-.84,1.53-3,1.95-4.85.93s-2.64-3.08-1.79-4.61,3-2,4.86-.93S74,79.87,73.12,81.4Z" transform="translate(12.52)"/><path class="cls-20" d="M74.7,87.16a2.7,2.7,0,1,1-1.25-3.23A2.46,2.46,0,0,1,74.7,87.16Z" transform="translate(12.52)"/><polygon class="cls-21" points="83.07 88.97 81.2 91.95 81.02 83.58 80.82 83.57 80.68 89.67 78.16 85.92 78 86.03 80.66 90.37 80.5 99.89 81.2 99.89 81.2 92.8 83.23 89.13 83.07 88.97"/><polygon class="cls-76" points="110.15 54.71 122.54 64.51 122.54 99.89 97.75 99.89 97.75 64.51 110.15 54.71"/><polygon class="cls-77" points="99.56 56.21 110.14 56.21 123.1 66.45 112.52 66.45 99.56 56.21"/><g class="cls-78"><polygon class="cls-77" points="109.21 56.21 109.59 56.21 122.55 66.45 122.17 66.45 109.21 56.21"/></g><g class="cls-78"><polygon class="cls-77" points="108.06 56.21 108.44 56.21 121.4 66.45 121.02 66.45 108.06 56.21"/></g><g class="cls-78"><polygon class="cls-77" points="106.9 56.21 107.28 56.21 120.24 66.45 119.86 66.45 106.9 56.21"/></g><g class="cls-78"><polygon class="cls-77" points="105.74 56.21 106.12 56.21 119.09 66.45 118.71 66.45 105.74 56.21"/></g><g class="cls-78"><polygon class="cls-77" points="104.59 56.21 104.97 56.21 117.93 66.45 117.55 66.45 104.59 56.21"/></g><g class="cls-78"><polygon class="cls-77" points="103.43 56.21 103.81 56.21 116.77 66.45 116.39 66.45 103.43 56.21"/></g><g class="cls-78"><polygon class="cls-77" points="102.28 56.21 102.66 56.21 115.62 66.45 115.24 66.45 102.28 56.21"/></g><g class="cls-78"><polygon class="cls-77" points="101.12 56.21 101.5 56.21 114.46 66.45 114.08 66.45 101.12 56.21"/></g><g class="cls-78"><polygon class="cls-77" points="99.96 56.21 100.34 56.21 113.31 66.45 112.93 66.45 99.96 56.21"/></g><polygon class="cls-79" points="97.67 54.71 99.56 54.71 111.96 64.51 110.06 64.51 97.67 54.71"/><polygon class="cls-79" points="110.15 54.71 112.04 54.71 124.43 64.51 122.54 64.51 110.15 54.71"/><polygon class="cls-76" points="97.67 54.71 110.06 64.51 110.06 99.89 85.27 99.89 85.27 64.51 97.67 54.71"/><polygon class="cls-80" points="122.54 64.51 122.54 64.51 122.54 66 123.1 66.45 112.52 66.45 111.96 66 111.96 66 111.96 64.51 110.06 64.51 110.06 99.89 124.43 99.89 124.43 64.51 122.54 64.51"/><polygon class="cls-81" points="122.99 67.71 122.75 66.45 112.52 66.45 111.96 66 112.41 67.71 122.99 67.71"/><rect class="cls-82" x="84.8" y="82.2" width="25.17" height="1.09"/><rect class="cls-73" x="97.45" y="82.2" width="14.82" height="1.09" transform="translate(222.24 165.48) rotate(180)"/><rect class="cls-83" x="84.8" y="82.2" width="25.17" height="0.29"/><rect class="cls-84" x="97.45" y="82.2" width="14.82" height="0.29" transform="translate(222.24 164.69) rotate(180)"/><rect class="cls-85" x="85.27" y="83.28" width="24.79" height="0.52"/><rect class="cls-81" x="110.07" y="83.28" width="14.37" height="0.52"/><polygon class="cls-86" points="112.02 57.69 107.94 56.65 107.94 57.56 106.22 57.56 114.54 59.69 112.02 57.69"/><polygon class="cls-76" points="114.81 56.91 112.02 56.19 114.54 58.19 117.34 58.9 114.81 56.91"/><polygon class="cls-80" points="112.02 57.69 112.02 56.19 114.54 58.19 114.54 59.69 112.02 57.69"/><polygon class="cls-82" points="104.5 50.49 104.5 56.2 106.22 57.56 106.22 50.49 104.5 50.49"/><rect class="cls-73" x="106.22" y="50.49" width="1.72" height="7.07"/><rect class="cls-87" x="104.13" y="49.57" width="2.09" height="0.92"/><rect class="cls-88" x="106.22" y="49.57" width="2.08" height="0.92"/><rect class="cls-89" x="104.5" y="50.49" width="1.72" height="0.47"/><rect class="cls-90" x="106.22" y="50.49" width="1.72" height="0.47"/><polygon class="cls-91" points="84.86 97.75 84.86 97.8 84.86 97.8 84.86 99.89 109.97 99.89 110.03 97.75 84.86 97.75"/><polygon class="cls-92" points="109.97 99.89 124.85 99.89 124.85 97.75 110.03 97.75 109.97 99.89"/><rect class="cls-93" x="84.86" y="97.75" width="25.17" height="0.29"/><rect class="cls-94" x="97.51" y="97.75" width="14.82" height="0.29" transform="translate(222.36 195.79) rotate(180)"/><rect class="cls-80" x="95" y="87.09" width="0.54" height="10.66"/><rect class="cls-13" x="95.53" y="87.09" width="4.8" height="10.66"/><rect class="cls-34" x="97.06" y="88.35" width="2.76" height="2.54"/><polygon class="cls-95" points="97.69 89.69 99.81 89.69 99.81 88.35 97.06 88.35 97.06 90.89 97.69 90.89 97.69 89.69"/><polygon class="cls-96" points="96.19 88.61 100.33 88.61 100.33 87.09 95.53 87.09 95.53 97.75 96.19 97.75 96.19 88.61"/><polygon class="cls-94" points="101.82 97.75 101.82 99.89 102.69 99.89 101.82 97.75"/><polygon class="cls-73" points="98.66 99.17 99.45 99.17 99.45 98.46 100.24 98.46 100.24 97.75 101.82 97.75 101.82 99.89 98.66 99.89 98.66 99.17"/><rect class="cls-82" x="91.74" y="97.75" width="8.5" height="0.71"/><rect class="cls-82" x="90.95" y="98.46" width="8.5" height="0.71"/><rect class="cls-82" x="90.16" y="99.18" width="8.5" height="0.71"/><polygon class="cls-80" points="106.61 77.4 106.61 77.91 103.1 77.91 103.44 78.73 106.95 78.73 106.95 78.22 106.61 77.4"/><rect class="cls-80" x="103.16" y="70.55" width="0.32" height="6.85"/><rect class="cls-34" x="103.94" y="71.01" width="2.48" height="5.93"/><path class="cls-35" d="M91,70.55V77.4h3.13V70.55Zm2.94,6.39H91.42V71H93.9Z" transform="translate(12.52)"/><rect class="cls-35" x="103.94" y="73.74" width="2.48" height="0.46"/><polygon class="cls-36" points="104.51 72.21 106.61 72.21 106.61 70.55 103.48 70.55 103.48 77.4 104.51 77.4 104.51 72.21"/><rect class="cls-13" x="102.6" y="77.4" width="3.51" height="0.51"/><rect class="cls-39" x="106.11" y="77.4" width="0.51" height="0.51"/><polygon class="cls-80" points="99.35 77.4 99.35 77.91 95.84 77.91 96.18 78.73 99.68 78.73 99.68 78.22 99.35 77.4"/><rect class="cls-80" x="95.9" y="70.55" width="0.32" height="6.85"/><rect class="cls-34" x="96.68" y="71.01" width="2.48" height="5.93"/><path class="cls-35" d="M83.7,70.55V77.4h3.13V70.55Zm2.94,6.39H84.16V71h2.48Z" transform="translate(12.52)"/><rect class="cls-35" x="96.68" y="73.74" width="2.48" height="0.46"/><polygon class="cls-36" points="97.25 72.21 99.35 72.21 99.35 70.55 96.22 70.55 96.22 77.4 97.25 77.4 97.25 72.21"/><rect class="cls-13" x="95.33" y="77.4" width="3.51" height="0.51"/><rect class="cls-39" x="98.84" y="77.4" width="0.51" height="0.51"/><path class="cls-80" d="M85.15,60.8l-.16,0h0a1.57,1.57,0,0,0-1.57,1.57V64.8h.32V62.35A1.56,1.56,0,0,1,85.15,60.8Z" transform="translate(12.52)"/><path class="cls-34" d="M85.45,61.24h0a1.25,1.25,0,0,0-1.25,1.24v1.86h2.49V62.48A1.25,1.25,0,0,0,85.45,61.24Z" transform="translate(12.52)"/><path class="cls-35" d="M83.74,62.35V64.8h3.14V62.35a1.57,1.57,0,0,0-1.57-1.57h0A1.57,1.57,0,0,0,83.74,62.35Zm3,2H84.2V62.48a1.25,1.25,0,0,1,1.25-1.24h0a1.25,1.25,0,0,1,1.24,1.24Z" transform="translate(12.52)"/><path class="cls-36" d="M86.88,62.35a1.57,1.57,0,1,0-3.14,0V64.8h1V63.66A1.23,1.23,0,0,1,86,62.42h0a1.22,1.22,0,0,1,.67.2l.19.18Z" transform="translate(12.52)"/><rect class="cls-80" x="88.67" y="70.55" width="0.32" height="6.85"/><rect class="cls-34" x="89.45" y="71.01" width="2.48" height="5.93"/><path class="cls-35" d="M76.47,70.55V77.4H79.6V70.55Zm2.94,6.39H76.93V71h2.48Z" transform="translate(12.52)"/><rect class="cls-35" x="89.45" y="73.74" width="2.48" height="0.46"/><polygon class="cls-36" points="90.02 72.21 92.12 72.21 92.12 70.55 88.99 70.55 88.99 77.4 90.02 77.4 90.02 72.21"/><rect class="cls-13" x="88.1" y="77.4" width="3.51" height="0.51"/><polygon class="cls-80" points="92.12 77.4 92.12 77.91 88.61 77.91 88.94 78.73 92.45 78.73 92.45 78.22 92.12 77.4"/><rect class="cls-39" x="91.61" y="77.4" width="0.51" height="0.51"/><polygon class="cls-80" points="106.61 93.94 106.61 94.44 103.1 94.44 103.44 95.27 106.95 95.27 106.95 94.76 106.61 93.94"/><rect class="cls-80" x="103.16" y="87.09" width="0.32" height="6.85"/><rect class="cls-34" x="103.94" y="87.55" width="2.48" height="5.93"/><path class="cls-35" d="M91,87.09v6.85h3.13V87.09Zm2.94,6.39H91.42V87.55H93.9Z" transform="translate(12.52)"/><rect class="cls-35" x="103.94" y="90.28" width="2.48" height="0.46"/><polygon class="cls-36" points="104.51 88.75 106.61 88.75 106.61 87.09 103.48 87.09 103.48 93.94 104.51 93.94 104.51 88.75"/><rect class="cls-13" x="102.6" y="93.94" width="3.51" height="0.51"/><rect class="cls-39" x="106.11" y="93.94" width="0.51" height="0.51"/><polygon class="cls-80" points="92.12 93.94 92.12 94.44 88.61 94.44 88.94 95.27 92.45 95.27 92.45 94.76 92.12 93.94"/><rect class="cls-80" x="88.67" y="87.09" width="0.32" height="6.85"/><rect class="cls-34" x="89.45" y="87.55" width="2.48" height="5.93"/><path class="cls-35" d="M76.47,87.09v6.85H79.6V87.09Zm2.94,6.39H76.93V87.55h2.48Z" transform="translate(12.52)"/><rect class="cls-35" x="89.45" y="90.28" width="2.48" height="0.46"/><polygon class="cls-36" points="90.02 88.75 92.12 88.75 92.12 87.09 88.99 87.09 88.99 93.94 90.02 93.94 90.02 88.75"/><rect class="cls-13" x="88.1" y="93.94" width="3.51" height="0.51"/><rect class="cls-39" x="91.61" y="93.94" width="0.51" height="0.51"/><rect class="cls-97" x="115.62" y="70.55" width="0.32" height="6.32"/><polygon class="cls-34" points="113.63 76.88 115.16 76.88 115.16 71.01 112.3 71.01 112.3 76.88 113.63 76.88"/><polygon class="cls-39" points="112.3 76.88 112.3 71.01 115.16 71.01 115.16 76.88 115.62 76.88 115.62 70.55 112.11 70.55 112.11 76.88 112.3 76.88"/><polygon class="cls-36" points="113.14 76.88 113.15 72.21 115.62 72.21 115.62 70.55 112.11 70.55 112.11 76.88 113.14 76.88"/><polygon class="cls-98" points="115.62 72.21 115.62 70.55 115.94 70.55 115.94 72.46 115.62 72.21"/><polygon class="cls-99" points="115.94 76.88 115.94 80.84 112.1 80.84 113.19 85.16 117.03 85.16 117.03 81.2 115.94 76.88"/><rect class="cls-100" x="113.63" y="76.88" width="3.84" height="3.96"/><rect class="cls-81" x="112.1" y="76.88" width="1.53" height="3.96"/><rect class="cls-97" x="122.07" y="70.55" width="0.32" height="6.32"/><polygon class="cls-34" points="120.08 76.88 121.61 76.88 121.61 71.01 118.75 71.01 118.75 76.88 120.08 76.88"/><polygon class="cls-39" points="118.75 76.88 118.75 71.01 121.61 71.01 121.61 76.88 122.07 76.88 122.07 70.55 118.56 70.55 118.56 76.88 118.75 76.88"/><polygon class="cls-36" points="119.59 76.88 119.6 72.21 122.07 72.21 122.07 70.55 118.56 70.55 118.56 76.88 119.59 76.88"/><polygon class="cls-98" points="122.07 72.21 122.07 70.55 122.39 70.55 122.39 72.46 122.07 72.21"/><polygon class="cls-99" points="122.38 76.88 122.38 80.84 118.55 80.84 119.64 85.16 123.48 85.16 123.48 81.2 122.38 76.88"/><rect class="cls-100" x="120.08" y="76.88" width="3.84" height="3.96"/><rect class="cls-81" x="118.55" y="76.88" width="1.53" height="3.96"/><polygon class="cls-99" points="115.99 93.94 115.99 94.44 112.48 94.44 112.7 95.27 116.21 95.27 116.21 94.76 115.99 93.94"/><rect class="cls-97" x="115.61" y="87.09" width="0.32" height="6.85"/><rect class="cls-34" x="100.15" y="87.55" width="2.48" height="5.93" transform="translate(215.31 181.03) rotate(180)"/><path class="cls-39" d="M100,87.09v6.85h3.14V87.09Zm2.68,6.39h-2.49V87.55h2.49Z" transform="translate(12.52)"/><rect class="cls-39" x="112.67" y="90.28" width="2.48" height="0.46"/><polygon class="cls-36" points="113.51 88.75 115.61 88.75 115.61 87.09 112.48 87.09 112.48 93.94 113.51 93.94 113.51 88.75"/><polygon class="cls-98" points="115.61 88.75 115.61 87.09 115.93 87.09 115.93 89 115.61 88.75"/><rect class="cls-101" x="100.47" y="93.94" width="3.51" height="0.51" transform="translate(216.97 188.38) rotate(180)"/><rect class="cls-35" x="112.48" y="93.94" width="0.51" height="0.51"/><polygon class="cls-99" points="122.05 93.94 122.05 94.44 118.54 94.44 118.77 95.27 122.27 95.27 122.27 94.76 122.05 93.94"/><rect class="cls-97" x="121.68" y="87.09" width="0.32" height="6.85"/><rect class="cls-34" x="106.22" y="87.55" width="2.48" height="5.93" transform="translate(227.43 181.03) rotate(180)"/><path class="cls-39" d="M106,87.09v6.85h3.13V87.09Zm2.67,6.39h-2.48V87.55h2.48Z" transform="translate(12.52)"/><rect class="cls-39" x="118.73" y="90.28" width="2.48" height="0.46"/><polygon class="cls-36" points="119.58 88.75 121.68 88.75 121.67 87.09 118.54 87.09 118.54 93.94 119.58 93.94 119.58 88.75"/><polygon class="cls-98" points="121.68 88.75 121.67 87.09 122 87.09 122 89 121.68 88.75"/><rect class="cls-101" x="106.53" y="93.94" width="3.51" height="0.51" transform="translate(229.09 188.38) rotate(180)"/><rect class="cls-35" x="118.54" y="93.94" width="0.51" height="0.51"/><path class="cls-102" d="M102.29,91A3.82,3.82,0,0,0,95,89.89l-.31,0a4.79,4.79,0,1,0,3.13,8.41A4.32,4.32,0,1,0,102.29,91Z" transform="translate(12.52)"/><path class="cls-103" d="M104.56,96.79c-2.21,2.52-5.92,1-6.13-.91-3.83,3-9.11-.24-6.59-5a4.79,4.79,0,0,0,2.89,8.61,4.75,4.75,0,0,0,3.13-1.17,4.33,4.33,0,0,0,6.7-1.49Z" transform="translate(12.52)"/><path class="cls-104" d="M101.12,91.9a2.72,2.72,0,1,1-1.26-3.25A2.48,2.48,0,0,1,101.12,91.9Z" transform="translate(12.52)"/><path class="cls-104" d="M104,94.71a1.63,1.63,0,0,1-2.8-1.55,1.62,1.62,0,0,1,2.8,1.55Z" transform="translate(12.52)"/><polygon class="cls-21" points="110.89 99.89 110.77 94.65 110.59 94.65 110.44 99.89 110.89 99.89"/><polygon class="cls-21" points="110.84 97.55 112.33 95.81 112.2 95.68 110.82 97.02 110.84 97.55"/><polygon class="cls-21" points="110.2 99.89 108.95 95.53 108.78 95.59 109.67 99.89 110.2 99.89"/><g class="cls-105"><path class="cls-106" d="M13.78,85.12a6.37,6.37,0,1,0-12-4.25,5.76,5.76,0,1,0,5.39,9.92,4.37,4.37,0,1,0,6.59-5.67Z" transform="translate(12.52)"/><path class="cls-107" d="M7.19,90.79a4.37,4.37,0,0,0,7.51-.64,4.73,4.73,0,0,1-7.3-2c-5.35,3-9.84-2.17-6.58-6.9a5.76,5.76,0,1,0,6.37,9.52Z" transform="translate(12.52)"/><path class="cls-104" d="M12.14,82.65c-.88,1.59-3.15,2-5.06,1s-2.74-3.21-1.86-4.8,3.15-2,5.06-1S13,81.05,12.14,82.65Z" transform="translate(12.52)"/><path class="cls-104" d="M13.78,88.64a2.56,2.56,0,0,1-3.53.67A2.57,2.57,0,0,1,8.94,86a2.57,2.57,0,0,1,3.54-.68A2.56,2.56,0,0,1,13.78,88.64Z" transform="translate(12.52)"/><polygon class="cls-21" points="21.54 90.16 19.88 92.81 19.72 85.35 19.53 85.35 19.41 90.78 17.15 87.4 17.03 87.54 19.4 91.4 19.25 99.89 19.88 99.89 19.88 93.57 21.69 90.3 21.54 90.16"/></g><path class="cls-108" d="M123.94,78.77a5,5,0,1,1-5-5A5,5,0,0,1,123.94,78.77Z" transform="translate(12.52)"/><path class="cls-109" d="M120.88,55.53a12.35,12.35,0,0,0-2.29.22,7.54,7.54,0,0,0-14.84,1.47,5,5,0,0,0-6.47,7.57,9,9,0,0,0,14.66,10.46,11.89,11.89,0,1,0,8.94-19.72Z" transform="translate(12.52)"/><path class="cls-110" d="M111.94,75.25A11.89,11.89,0,0,0,130.82,74c-7.59,5.46-15.95-.1-17.36-2.52-5.42,7.27-16,.84-11.78-6.57-4.33-1.38-4.79-4.79-4.37-6.85a5,5,0,0,0,0,6.78,9,9,0,0,0,14.66,10.46Z" transform="translate(12.52)"/><path class="cls-111" d="M112.58,81.9a5,5,0,1,1-5-5A5,5,0,0,1,112.58,81.9Z" transform="translate(12.52)"/><path class="cls-112" d="M111.7,81.59c-.41,1.67-2.37,2.63-4.37,2.14s-3.31-2.25-2.89-3.93,2.37-2.63,4.37-2.13S112.11,79.91,111.7,81.59Z" transform="translate(12.52)"/><path class="cls-113" d="M129.39,66.59c-1.49,2.68-5.3,3.41-8.51,1.63s-4.61-5.4-3.13-8.08,5.29-3.41,8.51-1.63S130.87,63.91,129.39,66.59Z" transform="translate(12.52)"/><path class="cls-113" d="M116.06,58c-1,1.87-3.7,2.38-6,1.14s-3.23-3.77-2.19-5.65,3.7-2.38,6-1.14S117.1,56.08,116.06,58Z" transform="translate(12.52)"/><polygon class="cls-21" points="130.24 79.45 127.08 85.28 126.78 68.64 126.43 68.63 126.21 80.36 121.59 71.7 121.35 71.97 126.17 81.54 125.9 90.55 121.73 83.59 121.32 83.88 125.9 92.15 125.9 99.89 127.08 99.89 127.08 86.72 130.52 79.72 130.24 79.45"/><polygon class="cls-114" points="129.43 56.59 138.37 71.57 138.37 99.89 120.5 99.89 120.5 71.57 129.43 56.59"/><polygon class="cls-115" points="129.43 57.94 120.22 73.36 137.6 73.36 146.82 57.94 129.43 57.94"/><polygon class="cls-116" points="130.19 57.94 120.98 73.36 121.38 73.36 130.6 57.94 130.19 57.94"/><polygon class="cls-116" points="131.31 57.94 122.1 73.36 122.5 73.36 131.72 57.94 131.31 57.94"/><polygon class="cls-116" points="132.43 57.94 123.22 73.36 123.62 73.36 132.84 57.94 132.43 57.94"/><polygon class="cls-116" points="133.55 57.94 124.34 73.36 124.74 73.36 133.96 57.94 133.55 57.94"/><polygon class="cls-116" points="134.67 57.94 125.46 73.36 125.86 73.36 135.08 57.94 134.67 57.94"/><polygon class="cls-116" points="135.79 57.94 126.58 73.36 126.99 73.36 136.2 57.94 135.79 57.94"/><polygon class="cls-116" points="136.92 57.94 127.7 73.36 128.11 73.36 137.32 57.94 136.92 57.94"/><polygon class="cls-116" points="138.04 57.94 128.82 73.36 129.23 73.36 138.44 57.94 138.04 57.94"/><polygon class="cls-116" points="139.16 57.94 129.94 73.36 130.35 73.36 139.56 57.94 139.16 57.94"/><polygon class="cls-116" points="140.28 57.94 131.06 73.36 131.47 73.36 140.68 57.94 140.28 57.94"/><polygon class="cls-116" points="141.4 57.94 132.18 73.36 132.59 73.36 141.8 57.94 141.4 57.94"/><polygon class="cls-116" points="142.52 57.94 133.3 73.36 133.71 73.36 142.92 57.94 142.52 57.94"/><polygon class="cls-116" points="143.64 57.94 134.43 73.36 134.83 73.36 144.04 57.94 143.64 57.94"/><polygon class="cls-116" points="144.76 57.94 135.55 73.36 135.95 73.36 145.17 57.94 144.76 57.94"/><polygon class="cls-116" points="145.88 57.94 136.67 73.36 137.07 73.36 146.29 57.94 145.88 57.94"/><polygon class="cls-28" points="137.88 71.57 137.88 72.92 137.87 72.92 137.6 73.36 120.22 73.36 120.5 72.89 120.5 71.57 118.82 71.57 118.82 99.89 139.56 99.89 139.56 71.57 137.88 71.57"/><polygon class="cls-114" points="137.6 73.36 120.49 73.36 120.23 74.19 137.62 74.19 137.88 72.92 137.87 72.92 137.6 73.36"/><polygon class="cls-114" points="148.49 56.59 157.43 71.57 157.43 99.89 139.56 99.89 139.56 71.57 148.49 56.59"/><polygon class="cls-117" points="148.49 56.59 146.82 56.59 137.88 71.57 139.56 71.57 148.49 56.59"/><polygon class="cls-117" points="129.43 56.59 127.76 56.59 118.82 71.57 120.5 71.57 129.43 56.59"/><rect class="cls-118" x="139.56" y="85.94" width="17.87" height="13.95"/><rect class="cls-119" x="118.82" y="85.94" width="20.74" height="13.95"/><rect class="cls-28" x="139.55" y="85.04" width="18.35" height="0.89"/><rect class="cls-120" x="118.35" y="85.04" width="21.21" height="0.89"/><rect class="cls-121" x="139.55" y="85.04" width="18.35" height="0.2"/><rect class="cls-13" x="118.35" y="85.04" width="21.21" height="0.2"/><rect class="cls-122" x="139.56" y="85.94" width="17.87" height="0.42"/><rect class="cls-123" x="118.82" y="85.94" width="20.74" height="0.42"/><rect class="cls-124" x="139.55" y="97.99" width="18.35" height="1.9"/><rect class="cls-116" x="118.35" y="97.99" width="21.21" height="1.9"/><rect class="cls-125" x="139.55" y="97.99" width="18.35" height="0.2"/><rect class="cls-126" x="118.35" y="97.99" width="21.21" height="0.2"/><polygon class="cls-114" points="136.19 69.84 134.05 69.84 134.07 71.86 136.19 69.84"/><polygon class="cls-28" points="134.05 69.84 129.84 66.9 125.63 69.84 125.63 71.86 134.07 71.86 134.05 69.84"/><path class="cls-35" d="M117.2,68.44a1.38,1.38,0,1,0,1.2,1.37A1.38,1.38,0,0,0,117.2,68.44Z" transform="translate(12.52)"/><path class="cls-34" d="M118.2,69.1a1,1,0,0,0-.81-.37,1.09,1.09,0,0,0,0,2.17,1,1,0,0,0,.81-.38,1.36,1.36,0,0,0,0-1.42Z" transform="translate(12.52)"/><path class="cls-114" d="M116,69.81a1.4,1.4,0,0,1,1.18-1.38H117a1.39,1.39,0,1,0,0,2.78h.19A1.38,1.38,0,0,1,116,69.81Z" transform="translate(12.52)"/><path class="cls-36" d="M116.55,70.3a1.1,1.1,0,0,1,1.1-1.1,1.11,1.11,0,0,1,.71.27,1.23,1.23,0,1,0-1.43,1.65A1.08,1.08,0,0,1,116.55,70.3Z" transform="translate(12.52)"/><polygon class="cls-127" points="125.02 70.25 124.83 69.97 129.53 66.69 134.22 69.97 134.03 70.25 129.53 67.1 125.02 70.25"/><polygon class="cls-128" points="129.53 66.69 134.22 69.97 136.38 69.97 133.54 66.69 129.53 66.69"/><polygon class="cls-129" points="136.38 69.97 134.22 69.97 134.03 70.25 136.19 70.25 136.38 69.97"/><polygon class="cls-28" points="139.56 54.24 139.56 57.94 138.04 60.51 138.04 54.24 139.56 54.24"/><rect class="cls-117" x="136.52" y="54.24" width="1.52" height="6.27"/><rect class="cls-28" x="138.04" y="53.43" width="1.85" height="0.82"/><rect class="cls-117" x="136.19" y="53.43" width="1.85" height="0.82"/><rect class="cls-114" x="138.04" y="54.24" width="1.52" height="0.42"/><rect class="cls-28" x="136.52" y="54.24" width="1.52" height="0.42"/><polygon class="cls-130" points="139.56 57.94 138.04 60.51 142.92 57.94 139.56 57.94"/><polygon class="cls-114" points="124.53 82.17 124.53 82.71 121.17 82.71 121.46 83.44 124.82 83.44 124.82 82.9 124.53 82.17"/><rect class="cls-114" x="121.17" y="75.53" width="0.35" height="6.65"/><rect class="cls-34" x="122.01" y="76.02" width="2.31" height="5.65"/><path class="cls-35" d="M109,75.53v6.64h3V75.53Zm2.8,6.14h-2.3V76h2.3Z" transform="translate(12.52)"/><polygon class="cls-36" points="122.25 76.94 124.53 76.94 124.53 75.53 121.52 75.53 121.52 82.17 122.25 82.17 122.25 76.94"/><rect class="cls-13" x="120.62" y="82.17" width="3.36" height="0.54"/><rect class="cls-39" x="123.98" y="82.17" width="0.55" height="0.54"/><polygon class="cls-114" points="137.21 82.17 137.21 82.71 133.85 82.71 134.14 83.44 137.5 83.44 137.5 82.9 137.21 82.17"/><rect class="cls-114" x="133.85" y="75.53" width="0.35" height="6.65"/><rect class="cls-34" x="134.69" y="76.02" width="2.31" height="5.65"/><path class="cls-35" d="M121.68,75.53v6.64h3V75.53Zm2.8,6.14h-2.3V76h2.3Z" transform="translate(12.52)"/><polygon class="cls-36" points="134.93 76.94 137.21 76.94 137.21 75.53 134.2 75.53 134.2 82.17 134.93 82.17 134.93 76.94"/><rect class="cls-13" x="133.3" y="82.17" width="3.36" height="0.54"/><rect class="cls-39" x="136.66" y="82.17" width="0.55" height="0.54"/><rect class="cls-131" x="126.81" y="88.53" width="0.48" height="9.46"/><rect class="cls-40" x="127.29" y="88.53" width="4.25" height="9.46"/><rect class="cls-41" x="127.86" y="88.93" width="1.28" height="2.56"/><rect class="cls-42" x="129.14" y="88.93" width="0.25" height="2.56"/><rect class="cls-41" x="129.77" y="88.93" width="1.28" height="2.56"/><rect class="cls-42" x="131.04" y="88.93" width="0.25" height="2.56"/><rect class="cls-41" x="127.86" y="92" width="1.28" height="2.56"/><rect class="cls-42" x="129.14" y="92" width="0.25" height="2.56"/><rect class="cls-41" x="129.77" y="92" width="1.28" height="2.56"/><rect class="cls-42" x="131.04" y="92" width="0.25" height="2.56"/><rect class="cls-41" x="127.86" y="95.06" width="1.28" height="2.56"/><rect class="cls-42" x="129.14" y="95.06" width="0.25" height="2.56"/><rect class="cls-41" x="129.77" y="95.06" width="1.28" height="2.56"/><rect class="cls-42" x="131.04" y="95.06" width="0.25" height="2.56"/><polygon class="cls-43" points="127.86 89.88 131.54 89.88 131.54 88.53 127.28 88.53 127.28 97.99 127.86 97.99 127.86 89.88"/><polygon class="cls-132" points="130.06 99.26 130.76 99.26 130.76 98.62 131.46 98.62 131.46 97.99 132.86 97.99 132.86 99.89 130.06 99.89 130.06 99.26"/><rect class="cls-13" x="123.92" y="97.99" width="7.53" height="0.63"/><rect class="cls-133" x="123.22" y="98.62" width="7.53" height="0.63"/><rect class="cls-35" x="122.52" y="99.26" width="7.53" height="0.63"/><polygon class="cls-124" points="132.86 97.99 133.64 99.89 132.86 99.89 132.86 97.99"/><polygon class="cls-118" points="124.53 95.13 124.53 95.67 121.17 95.67 121.46 96.4 124.82 96.4 124.82 95.86 124.53 95.13"/><rect class="cls-118" x="121.17" y="88.49" width="0.35" height="6.65"/><rect class="cls-34" x="122.01" y="88.98" width="2.31" height="5.65"/><path class="cls-35" d="M109,88.49v6.64h3V88.49Zm2.8,6.15h-2.3V89h2.3Z" transform="translate(12.52)"/><polygon class="cls-36" points="122.25 89.9 124.53 89.9 124.53 88.49 121.52 88.49 121.52 95.13 122.25 95.13 122.25 89.9"/><rect class="cls-13" x="120.62" y="95.13" width="3.36" height="0.54"/><rect class="cls-39" x="123.98" y="95.13" width="0.55" height="0.54"/><polygon class="cls-118" points="137.21 95.13 137.21 95.67 133.85 95.67 134.14 96.4 137.5 96.4 137.5 95.86 137.21 95.13"/><rect class="cls-118" x="133.85" y="88.49" width="0.35" height="6.65"/><rect class="cls-34" x="134.69" y="88.98" width="2.31" height="5.65"/><path class="cls-35" d="M121.68,88.49v6.64h3V88.49Zm2.8,6.15h-2.3V89h2.3Z" transform="translate(12.52)"/><polygon class="cls-36" points="134.93 89.9 137.21 89.9 137.21 88.49 134.2 88.49 134.2 95.13 134.93 95.13 134.93 89.9"/><rect class="cls-13" x="133.3" y="95.13" width="3.36" height="0.54"/><rect class="cls-39" x="136.66" y="95.13" width="0.55" height="0.54"/><polygon class="cls-114" points="130.91 82.17 130.91 82.71 127.55 82.71 127.84 83.44 131.21 83.44 131.21 82.9 130.91 82.17"/><rect class="cls-114" x="127.55" y="75.53" width="0.35" height="6.65"/><rect class="cls-34" x="128.4" y="76.02" width="2.31" height="5.65"/><path class="cls-35" d="M115.38,75.53v6.64h3V75.53Zm2.81,6.14h-2.31V76h2.31Z" transform="translate(12.52)"/><polygon class="cls-36" points="128.63 76.94 130.91 76.94 130.91 75.53 127.9 75.53 127.9 82.17 128.63 82.17 128.63 76.94"/><rect class="cls-13" x="127" y="82.17" width="3.36" height="0.54"/><rect class="cls-39" x="130.36" y="82.17" width="0.55" height="0.54"/><polygon class="cls-134" points="147.28 82.17 147.29 82.71 141.94 82.71 142.14 83.44 147.48 83.44 147.47 82.9 147.28 82.17"/><rect class="cls-28" x="146.93" y="75.53" width="0.35" height="6.65"/><rect class="cls-34" x="129.63" y="76.02" width="4.29" height="5.65" transform="translate(276.07 157.7) rotate(180)"/><path class="cls-39" d="M129.43,75.53v6.64h5V75.53Zm4.49,6.14h-4.29V76h4.29Z" transform="translate(12.52)"/><polygon class="cls-36" points="142.68 76.94 146.93 76.94 146.93 75.53 141.94 75.53 141.94 82.17 142.68 82.17 142.68 76.94"/><polygon class="cls-47" points="146.93 76.94 147.28 77.33 147.28 75.53 146.93 75.53 146.93 76.94"/><rect class="cls-135" x="129.97" y="82.17" width="5.34" height="0.54" transform="translate(277.8 164.88) rotate(180)"/><rect class="cls-13" x="141.94" y="82.17" width="0.55" height="0.54"/><polygon class="cls-134" points="155.05 82.17 155.06 82.71 149.71 82.71 149.91 83.44 155.25 83.44 155.25 82.9 155.05 82.17"/><rect class="cls-28" x="154.7" y="75.53" width="0.35" height="6.65"/><rect class="cls-34" x="137.4" y="76.02" width="4.29" height="5.65" transform="translate(291.61 157.7) rotate(180)"/><path class="cls-39" d="M137.19,75.53v6.64h5V75.53Zm4.5,6.14H137.4V76h4.29Z" transform="translate(12.52)"/><polygon class="cls-36" points="150.45 76.94 154.7 76.94 154.7 75.53 149.71 75.53 149.71 82.17 150.45 82.17 150.45 76.94"/><polygon class="cls-47" points="154.7 76.94 155.05 77.33 155.05 75.53 154.7 75.53 154.7 76.94"/><rect class="cls-135" x="137.74" y="82.17" width="5.34" height="0.54" transform="translate(293.34 164.88) rotate(180)"/><rect class="cls-13" x="149.71" y="82.17" width="0.55" height="0.54"/><polygon class="cls-134" points="151.15 71.15 151.16 71.69 145.82 71.69 146.01 72.42 151.35 72.42 151.35 71.88 151.15 71.15"/><rect class="cls-28" x="150.81" y="64.5" width="0.35" height="6.65"/><rect class="cls-34" x="133.51" y="65" width="4.29" height="5.65" transform="translate(283.82 135.65) rotate(180)"/><path class="cls-39" d="M133.3,64.5v6.65h5V64.5Zm4.49,6.15h-4.28V65h4.28Z" transform="translate(12.52)"/><polygon class="cls-36" points="146.55 65.91 150.81 65.91 150.81 64.5 145.82 64.5 145.82 71.15 146.55 71.15 146.55 65.91"/><polygon class="cls-47" points="150.81 65.91 151.15 66.31 151.15 64.5 150.81 64.5 150.81 65.91"/><rect class="cls-135" x="133.85" y="71.15" width="5.34" height="0.54" transform="translate(285.55 142.84) rotate(180)"/><rect class="cls-13" x="145.82" y="71.15" width="0.55" height="0.54"/><rect class="cls-119" x="155.71" y="88.51" width="0.35" height="8.77"/><rect class="cls-34" x="128.61" y="89.01" width="14.08" height="7.78" transform="translate(283.82 185.79) rotate(180)"/><path class="cls-39" d="M128.41,88.51v8.77h14.78V88.51Zm14.28,8.27H128.61V89h14.08Z" transform="translate(12.52)"/><polygon class="cls-36" points="155.71 88.51 140.92 88.51 140.92 97.28 141.67 97.28 141.67 92.93 143.02 94.83 155.71 94.83 155.71 88.51"/><polygon class="cls-47" points="155.71 88.51 155.71 94.83 156.05 95.08 156.05 88.51 155.71 88.51"/><polygon class="cls-47" points="156.05 91.99 156.05 95.08 157.43 95.08 157.43 93.92 156.05 91.99"/><polygon class="cls-136" points="143.62 92.3 158.85 92.3 156.16 88.51 140.92 88.51 143.62 92.3"/><polygon class="cls-13" points="144.79 92.3 145.78 92.3 143.09 88.51 142.1 88.51 144.79 92.3"/><polygon class="cls-13" points="146.79 92.3 147.78 92.3 145.09 88.51 144.1 88.51 146.79 92.3"/><polygon class="cls-13" points="148.79 92.3 149.78 92.3 147.09 88.51 146.1 88.51 148.79 92.3"/><polygon class="cls-13" points="150.79 92.3 151.78 92.3 149.09 88.51 148.1 88.51 150.79 92.3"/><polygon class="cls-13" points="152.79 92.3 153.78 92.3 151.09 88.51 150.1 88.51 152.79 92.3"/><polygon class="cls-13" points="154.79 92.3 155.78 92.3 153.09 88.51 152.1 88.51 154.79 92.3"/><polygon class="cls-13" points="156.79 92.3 157.78 92.3 155.09 88.51 154.1 88.51 156.79 92.3"/><g class="cls-137"><path class="cls-138" d="M149.6,83.8A3.83,3.83,0,1,1,145.77,80,3.82,3.82,0,0,1,149.6,83.8Z" transform="translate(12.52)"/><path class="cls-139" d="M147.27,66.08a9.19,9.19,0,0,0-1.75.17,5.74,5.74,0,0,0-11.3,1.12,3.9,3.9,0,0,0-2.1-.63,3.82,3.82,0,0,0-2.83,6.4,6.87,6.87,0,0,0,11.16,8,9.06,9.06,0,1,0,6.82-15Z" transform="translate(12.52)"/><path class="cls-140" d="M140.45,81.11a9.05,9.05,0,0,0,14.39-1c-5.78,4.16-12.15-.07-13.22-1.91-4.14,5.53-12.23.63-9-5A4.37,4.37,0,0,1,129.31,68a3.81,3.81,0,0,0,0,5.17,6.87,6.87,0,0,0,11.16,8Z" transform="translate(12.52)"/><path class="cls-141" d="M141,86.18a3.83,3.83,0,1,1-3.83-3.83A3.83,3.83,0,0,1,141,86.18Z" transform="translate(12.52)"/><path class="cls-142" d="M140.28,85.94a2.9,2.9,0,1,1-2.2-3A2.65,2.65,0,0,1,140.28,85.94Z" transform="translate(12.52)"/><path class="cls-113" d="M153.75,74.51c-1.13,2-4,2.6-6.48,1.24s-3.52-4.11-2.39-6.15,4-2.6,6.49-1.24S154.88,72.47,153.75,74.51Z" transform="translate(12.52)"/><path class="cls-113" d="M143.6,67.94a3.61,3.61,0,1,1-1.67-4.31A3.29,3.29,0,0,1,143.6,67.94Z" transform="translate(12.52)"/><polygon class="cls-21" points="157.38 84.31 154.97 88.76 154.75 76.07 154.48 76.07 154.31 85.01 150.79 78.41 150.61 78.62 154.28 85.91 154.08 92.77 150.9 87.47 150.58 87.69 154.08 93.99 154.08 99.89 154.97 99.89 154.97 89.86 157.6 84.52 157.38 84.31"/></g><path class="cls-143" d="M27.82,98.28h.64V96l-.64,0Zm-1.16,0h.63V96.13l-.63.09Zm2.33,0h.64V96H29Zm-3.5,0h.64v-2l-.64.12Zm7,0h.64V96.22l-.64-.09Zm-2.33,0h.64V96h-.64Zm3.5-2v2h.64V96.42Zm-2.33,2H32v-2.2l-.64,0Z" transform="translate(12.52)"/><path class="cls-144" d="M34.57,98.28H25.22c0,.13,0,.26,0,.39h9.39C34.58,98.54,34.57,98.41,34.57,98.28Z" transform="translate(12.52)"/><path class="cls-144" d="M34.61,98.85H25.18c0,.13,0,.26-.05.38h9.53C34.64,99.11,34.62,99,34.61,98.85Z" transform="translate(12.52)"/><path class="cls-145" d="M25,95.93a.39.39,0,0,0-.35-.27.2.2,0,0,0-.2.27,7.6,7.6,0,0,1,0,4H25A8.55,8.55,0,0,0,25,95.93Z" transform="translate(12.52)"/><path class="cls-145" d="M35.14,95.66a.38.38,0,0,0-.35.27,8.55,8.55,0,0,0,0,4h.55a7.6,7.6,0,0,1,0-4A.2.2,0,0,0,35.14,95.66Z" transform="translate(12.52)"/><path class="cls-145" d="M25,96a5.17,5.17,0,0,1,.11.54,22.7,22.7,0,0,1,9.57,0,5.17,5.17,0,0,1,.11-.54A23.08,23.08,0,0,0,25,96Z" transform="translate(12.52)"/><g class="cls-146"><path class="cls-147" d="M149.56,90.48l-.38,0a3.73,3.73,0,0,0-6.71-.1h-.14a2.8,2.8,0,0,0-2.81,2.8,2.76,2.76,0,0,0,.47,1.56,3.63,3.63,0,0,0-.22,1.24,3.53,3.53,0,0,0,6.29,2.2,4.61,4.61,0,0,0,3.5,1.59,4.66,4.66,0,1,0,0-9.31Z" transform="translate(12.52)"/><path class="cls-148" d="M146.66,96.71c-2.13,2.84-6.29.33-4.62-2.58a2.77,2.77,0,0,1-1.94-2.63,2.73,2.73,0,0,0-.58,1.7,2.76,2.76,0,0,0,.47,1.56,3.63,3.63,0,0,0-.22,1.24,3.53,3.53,0,0,0,6.29,2.2,4.65,4.65,0,0,0,7.34-.44l0-.07A5.09,5.09,0,0,1,146.66,96.71Z" transform="translate(12.52)"/><path class="cls-113" d="M152.89,94.81a2.65,2.65,0,1,1-1.23-3.16A2.41,2.41,0,0,1,152.89,94.81Z" transform="translate(12.52)"/><path class="cls-113" d="M147.67,91.43a1.85,1.85,0,1,1-.85-2.21A1.68,1.68,0,0,1,147.67,91.43Z" transform="translate(12.52)"/><polygon class="cls-149" points="159.39 99.89 159.29 95.26 159.15 95.25 159.06 98.92 159.05 99.38 159.03 99.89 159.39 99.89"/><polygon class="cls-149" points="159.35 98.2 160.84 96.38 160.71 96.26 159.34 97.58 159.35 98.2"/><polygon class="cls-149" points="158.88 99.89 157.54 96.11 157.38 96.17 158.32 99.89 158.88 99.89"/></g><path class="cls-150" d="M64.45,94.94a3.92,3.92,0,0,0,.32-1.53,3.87,3.87,0,0,0-7.59-1.06,3.5,3.5,0,0,0,1,6.85,3.46,3.46,0,0,0,2.24-.82,2.65,2.65,0,0,0,4.82-1.53A2.61,2.61,0,0,0,64.45,94.94Z" transform="translate(12.52)"/><path class="cls-151" d="M60.45,98.38A2.66,2.66,0,0,0,65,98a2.89,2.89,0,0,1-4.44-1.2c-3.24,1.84-6-1.32-4-4.19a3.5,3.5,0,1,0,3.86,5.78Z" transform="translate(12.52)"/><path class="cls-20" d="M63.46,93.44a2.44,2.44,0,1,1-1.13-2.92A2.23,2.23,0,0,1,63.46,93.44Z" transform="translate(12.52)"/><path class="cls-20" d="M64.46,97.07a1.71,1.71,0,1,1-.79-2A1.56,1.56,0,0,1,64.46,97.07Z" transform="translate(12.52)"/><polygon class="cls-21" points="73.58 99.89 74.45 98.32 74.35 98.22 73.3 99.89 73.58 99.89"/><polygon class="cls-21" points="72.8 99.89 73.17 99.89 73.06 94.81 72.93 94.81 72.84 98.66 71.25 96.29 71.15 96.36 72.83 99.1 72.8 99.89"/><rect class="cls-152" x="86.35" y="86.61" width="0.52" height="15.81"/><rect class="cls-153" x="86.35" y="86.61" width="0.25" height="15.81"/><path class="cls-152" d="M74.46,98.18h-.75a.23.23,0,0,1-.23-.23h0a.23.23,0,0,1,.23-.24h.75a.24.24,0,0,1,.24.24h0A.23.23,0,0,1,74.46,98.18Z" transform="translate(12.52)"/><path class="cls-152" d="M74.46,98.18h-.75a.23.23,0,0,1-.23-.23h0a.23.23,0,0,1,.23-.24h.75a.24.24,0,0,1,.24.24h0A.23.23,0,0,1,74.46,98.18Z" transform="translate(12.52)"/><path class="cls-153" d="M74.07,97.71h-.36a.23.23,0,0,0-.23.24.23.23,0,0,0,.23.23h.36a.93.93,0,0,1,0-.23A1,1,0,0,1,74.07,97.71Z" transform="translate(12.52)"/><path class="cls-152" d="M74.89,102.43H73.28l.21-3.94a.39.39,0,0,1,.39-.36h.41a.39.39,0,0,1,.39.36Z" transform="translate(12.52)"/><path class="cls-153" d="M74.08,98.13h-.2a.39.39,0,0,0-.39.36l-.21,3.94h.79V98.49C74.07,98.29,74.08,98.13,74.08,98.13Z" transform="translate(12.52)"/><path class="cls-152" d="M75.24,83.44,75,82.53a.54.54,0,0,0-.54-.38h-.79a.55.55,0,0,0-.54.38l-.22.91Z" transform="translate(12.52)"/><path class="cls-153" d="M74.08,82.15h-.39a.55.55,0,0,0-.54.38l-.22.91h1.14v-.91C74.07,82.31,74.08,82.15,74.08,82.15Z" transform="translate(12.52)"/><path class="cls-154" d="M72.93,84l.56,2.22a.28.28,0,0,1,.13,0h.93a.28.28,0,0,1,.13,0L75.24,84Z" transform="translate(12.52)"/><path class="cls-152" d="M73.56,86.16,73,84h-.14l.58,2.28A.2.2,0,0,1,73.56,86.16Z" transform="translate(12.52)"/><path class="cls-152" d="M74.74,86.24,75.31,84h-.13l-.56,2.2A.2.2,0,0,1,74.74,86.24Z" transform="translate(12.52)"/><polygon class="cls-152" points="86.67 86.15 86.68 83.96 86.54 83.96 86.54 86.15 86.67 86.15"/><path class="cls-152" d="M74.55,86.61h-.93a.23.23,0,0,1-.23-.23h0a.23.23,0,0,1,.23-.23h.93a.23.23,0,0,1,.24.23h0A.23.23,0,0,1,74.55,86.61Z" transform="translate(12.52)"/><path class="cls-153" d="M74.06,86.15h-.44a.23.23,0,1,0,0,.46h.44a2.65,2.65,0,0,1,0-.46Z" transform="translate(12.52)"/><path class="cls-152" d="M74.37,89.76H73.8a.23.23,0,0,1-.23-.23h0a.23.23,0,0,1,.23-.23h.57a.23.23,0,0,1,.24.23h0A.23.23,0,0,1,74.37,89.76Z" transform="translate(12.52)"/><path class="cls-153" d="M74.07,89.3H73.8a.23.23,0,0,0,0,.46h.27a2.65,2.65,0,0,1,0-.46Z" transform="translate(12.52)"/><path class="cls-152" d="M74.2,82.28H74a.23.23,0,0,1-.23-.24h0a.23.23,0,0,1,.23-.23h.23a.23.23,0,0,1,.24.23h0A.24.24,0,0,1,74.2,82.28Z" transform="translate(12.52)"/><path class="cls-153" d="M74.08,81.81H74a.23.23,0,0,0-.23.23.23.23,0,0,0,.23.24h.11a.79.79,0,0,1,0-.24A.7.7,0,0,1,74.08,81.81Z" transform="translate(12.52)"/><path class="cls-152" d="M75.29,84h-2.4a.26.26,0,0,1-.26-.26h0a.25.25,0,0,1,.26-.26h2.4a.26.26,0,0,1,.26.26h0A.26.26,0,0,1,75.29,84Z" transform="translate(12.52)"/><path class="cls-153" d="M74,83.44H72.89a.25.25,0,0,0-.26.26.26.26,0,0,0,.26.26H74a1.23,1.23,0,0,1,0-.26A1.17,1.17,0,0,1,74,83.44Z" transform="translate(12.52)"/><path class="cls-152" d="M75.53,102.43H72.64a.58.58,0,0,1,.58-.58H75a.57.57,0,0,1,.57.58Z" transform="translate(12.52)"/><path class="cls-153" d="M74,101.85h-.81a.58.58,0,0,0-.58.58H74A2.57,2.57,0,0,1,74,101.85Z" transform="translate(12.52)"/><rect class="cls-152" x="144.28" y="86.62" width="0.52" height="15.81"/><rect class="cls-153" x="144.28" y="86.62" width="0.25" height="15.81"/><path class="cls-152" d="M132.4,98.19h-.75a.24.24,0,0,1-.24-.24h0a.24.24,0,0,1,.24-.23h.75a.24.24,0,0,1,.24.23h0A.24.24,0,0,1,132.4,98.19Z" transform="translate(12.52)"/><path class="cls-152" d="M132.4,98.19h-.75a.24.24,0,0,1-.24-.24h0a.24.24,0,0,1,.24-.23h.75a.24.24,0,0,1,.24.23h0A.24.24,0,0,1,132.4,98.19Z" transform="translate(12.52)"/><path class="cls-153" d="M132,97.72h-.36a.24.24,0,1,0,0,.47H132a.79.79,0,0,1,0-.24A.75.75,0,0,1,132,97.72Z" transform="translate(12.52)"/><path class="cls-152" d="M132.83,102.43h-1.61l.21-3.93a.39.39,0,0,1,.39-.37h.41a.39.39,0,0,1,.39.37Z" transform="translate(12.52)"/><path class="cls-153" d="M132,98.13h-.2a.39.39,0,0,0-.39.37l-.21,3.93H132V98.5C132,98.29,132,98.13,132,98.13Z" transform="translate(12.52)"/><path class="cls-152" d="M133.18,83.44l-.22-.9a.54.54,0,0,0-.54-.39h-.79a.54.54,0,0,0-.54.39l-.22.9Z" transform="translate(12.52)"/><path class="cls-153" d="M132,82.15h-.39a.54.54,0,0,0-.54.39l-.22.9H132v-.9A2.57,2.57,0,0,1,132,82.15Z" transform="translate(12.52)"/><path class="cls-155" d="M130.87,84l.56,2.23a.28.28,0,0,1,.13,0h.93a.28.28,0,0,1,.13,0l.56-2.23Z" transform="translate(12.52)"/><path class="cls-152" d="M131.49,86.16l-.55-2.2h-.14l.58,2.28A.28.28,0,0,1,131.49,86.16Z" transform="translate(12.52)"/><path class="cls-152" d="M132.67,86.24l.58-2.28h-.14l-.55,2.2A.28.28,0,0,1,132.67,86.24Z" transform="translate(12.52)"/><polygon class="cls-152" points="144.61 86.15 144.62 83.96 144.48 83.96 144.48 86.15 144.61 86.15"/><path class="cls-152" d="M132.49,86.62h-.93a.23.23,0,0,1-.23-.23h0a.23.23,0,0,1,.23-.24h.93a.24.24,0,0,1,.24.24h0A.23.23,0,0,1,132.49,86.62Z" transform="translate(12.52)"/><path class="cls-153" d="M132,86.15h-.44a.23.23,0,0,0-.23.24.23.23,0,0,0,.23.23H132a.7.7,0,0,1,0-.23A.79.79,0,0,1,132,86.15Z" transform="translate(12.52)"/><path class="cls-152" d="M132.31,89.77h-.57a.24.24,0,0,1-.24-.23h0a.24.24,0,0,1,.24-.24h.57a.24.24,0,0,1,.24.24h0A.24.24,0,0,1,132.31,89.77Z" transform="translate(12.52)"/><path class="cls-153" d="M132,89.3h-.27a.24.24,0,1,0,0,.47H132a.75.75,0,0,1,0-.23A.79.79,0,0,1,132,89.3Z" transform="translate(12.52)"/><path class="cls-152" d="M132.14,82.28h-.23a.23.23,0,0,1-.23-.23h0a.23.23,0,0,1,.23-.23h.23a.23.23,0,0,1,.23.23h0A.23.23,0,0,1,132.14,82.28Z" transform="translate(12.52)"/><path class="cls-153" d="M132,81.82h-.11a.23.23,0,1,0,0,.46H132s0-.1,0-.23S132,81.82,132,81.82Z" transform="translate(12.52)"/><path class="cls-152" d="M133.23,84h-2.41a.26.26,0,0,1-.26-.26h0a.26.26,0,0,1,.26-.26h2.41a.26.26,0,0,1,.26.26h0A.26.26,0,0,1,133.23,84Z" transform="translate(12.52)"/><path class="cls-153" d="M132,83.44h-1.14a.26.26,0,0,0-.26.26.26.26,0,0,0,.26.26H132v-.52Z" transform="translate(12.52)"/><path class="cls-152" d="M133.47,102.43h-2.89a.57.57,0,0,1,.57-.57h1.75a.57.57,0,0,1,.57.57Z" transform="translate(12.52)"/><path class="cls-153" d="M132,101.86h-.82a.57.57,0,0,0-.57.57h1.36A2.44,2.44,0,0,1,132,101.86Z" transform="translate(12.52)"/><rect class="cls-152" x="28.41" y="86.62" width="0.52" height="15.81"/><rect class="cls-153" x="28.41" y="86.62" width="0.25" height="15.81"/><path class="cls-152" d="M16.53,98.19h-.76a.23.23,0,0,1-.23-.24h0a.23.23,0,0,1,.23-.23h.76a.23.23,0,0,1,.23.23h0A.23.23,0,0,1,16.53,98.19Z" transform="translate(12.52)"/><path class="cls-152" d="M16.53,98.19h-.76a.23.23,0,0,1-.23-.24h0a.23.23,0,0,1,.23-.23h.76a.23.23,0,0,1,.23.23h0A.23.23,0,0,1,16.53,98.19Z" transform="translate(12.52)"/><path class="cls-153" d="M16.13,97.72h-.36a.24.24,0,0,0,0,.47h.36a1,1,0,0,1,0-.24A1,1,0,0,1,16.13,97.72Z" transform="translate(12.52)"/><path class="cls-152" d="M17,102.43h-1.6l.21-3.93a.38.38,0,0,1,.38-.37h.42a.38.38,0,0,1,.38.37Z" transform="translate(12.52)"/><path class="cls-153" d="M16.14,98.13h-.2a.38.38,0,0,0-.38.37l-.21,3.93h.78v-4.3Z" transform="translate(12.52)"/><path class="cls-152" d="M17.3,83.44l-.22-.9a.52.52,0,0,0-.53-.39h-.8a.54.54,0,0,0-.54.39l-.21.9Z" transform="translate(12.52)"/><path class="cls-153" d="M16.14,82.15h-.39a.54.54,0,0,0-.54.39l-.21.9h1.13v-.9C16.13,82.31,16.14,82.15,16.14,82.15Z" transform="translate(12.52)"/><path class="cls-156" d="M15,84l.57,2.23a.25.25,0,0,1,.12,0h.94a.25.25,0,0,1,.12,0L17.31,84Z" transform="translate(12.52)"/><path class="cls-152" d="M15.62,86.16,15.06,84h-.14l.58,2.28A.25.25,0,0,1,15.62,86.16Z" transform="translate(12.52)"/><path class="cls-152" d="M16.8,86.24,17.38,84h-.14l-.56,2.2A.25.25,0,0,1,16.8,86.24Z" transform="translate(12.52)"/><polygon class="cls-152" points="28.74 86.15 28.74 83.96 28.61 83.96 28.6 86.15 28.74 86.15"/><path class="cls-152" d="M16.62,86.62h-.94a.23.23,0,0,1-.23-.23h0a.23.23,0,0,1,.23-.24h.94a.24.24,0,0,1,.23.24h0A.23.23,0,0,1,16.62,86.62Z" transform="translate(12.52)"/><path class="cls-153" d="M16.12,86.15h-.44a.23.23,0,0,0-.23.24.23.23,0,0,0,.23.23h.44a.93.93,0,0,1,0-.23A1,1,0,0,1,16.12,86.15Z" transform="translate(12.52)"/><path class="cls-152" d="M16.44,89.77h-.58a.23.23,0,0,1-.23-.23h0a.23.23,0,0,1,.23-.24h.58a.23.23,0,0,1,.23.24h0A.23.23,0,0,1,16.44,89.77Z" transform="translate(12.52)"/><path class="cls-153" d="M16.13,89.3h-.27a.24.24,0,0,0,0,.47h.27a1,1,0,0,1,0-.23A1,1,0,0,1,16.13,89.3Z" transform="translate(12.52)"/><path class="cls-152" d="M16.26,82.28H16a.23.23,0,0,1-.23-.23h0a.23.23,0,0,1,.23-.23h.23a.23.23,0,0,1,.24.23h0A.23.23,0,0,1,16.26,82.28Z" transform="translate(12.52)"/><path class="cls-153" d="M16.14,81.82H16a.23.23,0,1,0,0,.46h.11a1.33,1.33,0,0,1,0-.46Z" transform="translate(12.52)"/><path class="cls-152" d="M17.35,84H15a.25.25,0,0,1-.26-.26h0a.26.26,0,0,1,.26-.26h2.4a.26.26,0,0,1,.26.26h0A.26.26,0,0,1,17.35,84Z" transform="translate(12.52)"/><path class="cls-153" d="M16.09,83.44H15a.26.26,0,0,0-.26.26A.25.25,0,0,0,15,84h1.14a1.17,1.17,0,0,1,0-.26A1.23,1.23,0,0,1,16.09,83.44Z" transform="translate(12.52)"/><path class="cls-152" d="M17.6,102.43H14.7a.57.57,0,0,1,.58-.57H17a.57.57,0,0,1,.58.57Z" transform="translate(12.52)"/><path class="cls-153" d="M16.1,101.86h-.82a.57.57,0,0,0-.58.57h1.36A2.13,2.13,0,0,1,16.1,101.86Z" transform="translate(12.52)"/><path class="cls-157 car-move-left" d="M128.67,109H117.56a1.09,1.09,0,0,1-1-1.28l.19-1.48a1,1,0,0,1,1-1h11.92v2.61A1.07,1.07,0,0,1,128.67,109Z" transform="translate(12.52)"/><path class="cls-158" d="M117.56,109h11.11a1.07,1.07,0,0,0,1-1.12v-.16h-13.1v.31A1.05,1.05,0,0,0,117.56,109Z" transform="translate(12.52)"/><path class="cls-159 car-move-left" d="M128.2,100.82h-6.53a.89.89,0,0,0-.85.62l-1.22,3.87h10.07l-.59-3.74A.88.88,0,0,0,128.2,100.82Z" transform="translate(12.52)"/><path class="cls-157 car-move-left" d="M122.85,101.52h4.64a.19.19,0,0,1,.19.16l.57,3.63h1.42l-.59-3.74a.88.88,0,0,0-.88-.75h-5.35a.9.9,0,0,0-.86.62l-1.21,3.87h.78l1.11-3.66A.17.17,0,0,1,122.85,101.52Z" transform="translate(12.52)"/><circle class="cls-160 car-move-left" cx="132.44" cy="108.77" r="1.75"/><circle class="cls-13" cx="132.44" cy="108.77" r="1.22"/><path class="cls-161 car-move-left" d="M120.36,108.77a.43.43,0,0,1-.43.43.44.44,0,0,1-.44-.43.44.44,0,0,1,.44-.44A.44.44,0,0,1,120.36,108.77Z" transform="translate(12.52)"/><circle class="cls-160 car-move-left" cx="139.31" cy="108.77" r="1.75"/><path class="cls-13" d="M128,108.77a1.23,1.23,0,1,1-1.22-1.23A1.22,1.22,0,0,1,128,108.77Z" transform="translate(12.52)"/><path class="cls-161 car-move-left" d="M127.23,108.77a.43.43,0,0,1-.43.43.44.44,0,0,1-.44-.43.44.44,0,0,1,.44-.44A.44.44,0,0,1,127.23,108.77Z" transform="translate(12.52)"/><path class="cls-162" d="M116.8,106.09h12.87v-.78H117.75A1,1,0,0,0,116.8,106.09Z" transform="translate(12.52)"/><path class="cls-13" d="M117.13,106.39h-.39l-.17,1.37h.56a.37.37,0,0,0,.37-.37v-.62A.37.37,0,0,0,117.13,106.39Z" transform="translate(12.52)"/><path class="cls-136" d="M129.67,107.76v-1.37h-.28a.37.37,0,0,0-.37.38v.62a.37.37,0,0,0,.37.37Z" transform="translate(12.52)"/><path class="cls-157" d="M122,101.52l0-.08a.9.9,0,0,1,.86-.62h-1.18a.89.89,0,0,0-.85.62l0,.08H122Z" transform="translate(12.52)"/><path class="cls-163" d="M21,109H35.73a1.09,1.09,0,0,0,1-1.28l-.19-1.48a1,1,0,0,0-1-1H20v2.61A1.07,1.07,0,0,0,21,109Z" transform="translate(12.52)"/><path class="cls-164" d="M35.73,109H21a1.07,1.07,0,0,1-1-1.12v-.16H36.73v.31A1.05,1.05,0,0,1,35.73,109Z" transform="translate(12.52)"/><path class="cls-159" d="M21.43,100.81h10.2a.89.89,0,0,1,.85.62l1.22,3.87H20l.58-3.74A.9.9,0,0,1,21.43,100.81Z" transform="translate(12.52)"/><path class="cls-163" d="M31.3,101.43a.88.88,0,0,0-.85-.62h-9a.9.9,0,0,0-.89.75L20,105.3h1.42l.57-3.63a.18.18,0,0,1,.18-.16H24s0,0,0,0l-.59,3.74h.68l.59-3.74s0,0,0,0h5.76a.18.18,0,0,1,.18.13l1.11,3.66h.78Z" transform="translate(12.52)"/><circle class="cls-160" cx="45.89" cy="108.76" r="1.75"/><path class="cls-13" d="M32.15,108.76a1.23,1.23,0,1,0,1.22-1.23A1.22,1.22,0,0,0,32.15,108.76Z" transform="translate(12.52)"/><path class="cls-161" d="M32.94,108.76a.43.43,0,0,0,.43.43.44.44,0,0,0,.44-.43.44.44,0,0,0-.44-.44A.44.44,0,0,0,32.94,108.76Z" transform="translate(12.52)"/><circle class="cls-160" cx="35.35" cy="108.76" r="1.75"/><path class="cls-13" d="M21.6,108.76a1.23,1.23,0,1,0,1.23-1.23A1.23,1.23,0,0,0,21.6,108.76Z" transform="translate(12.52)"/><path class="cls-161" d="M22.39,108.76a.44.44,0,0,0,.44.43.43.43,0,0,0,.43-.43.44.44,0,0,0-.43-.44A.44.44,0,0,0,22.39,108.76Z" transform="translate(12.52)"/><path class="cls-165" d="M36.5,106.08H20v-.78H35.55A1,1,0,0,1,36.5,106.08Z" transform="translate(12.52)"/><path class="cls-13" d="M36.17,106.39h.38l.18,1.36h-.56a.38.38,0,0,1-.38-.37v-.62A.37.37,0,0,1,36.17,106.39Z" transform="translate(12.52)"/><path class="cls-136" d="M20,107.75v-1.36h.28a.37.37,0,0,1,.37.37v.62a.38.38,0,0,1-.37.37Z" transform="translate(12.52)"/><path class="cls-163" d="M31.33,101.51l0-.08a.88.88,0,0,0-.85-.62h1.18a.89.89,0,0,1,.85.62l0,.08H31.33Z" transform="translate(12.52)"/><path class="cls-166" d="M69.58,107h11.1a1.08,1.08,0,0,0,1-1.28l-.19-1.48a1,1,0,0,0-1-1H68.58v2.61A1.06,1.06,0,0,0,69.58,107Z" transform="translate(12.52)"/><path class="cls-167" d="M80.68,107H69.58a1.06,1.06,0,0,1-1-1.12v-.16H81.67v.31A1,1,0,0,1,80.68,107Z" transform="translate(12.52)"/><path class="cls-159" d="M70.05,98.79h6.52a.89.89,0,0,1,.85.63l1.22,3.87H68.58l.58-3.74A.9.9,0,0,1,70.05,98.79Z" transform="translate(12.52)"/><path class="cls-166" d="M75.4,99.5H70.75a.18.18,0,0,0-.18.16L70,103.29H68.58l.58-3.74a.9.9,0,0,1,.89-.76H75.4a.9.9,0,0,1,.85.63l1.21,3.87h-.78l-1.1-3.66A.19.19,0,0,0,75.4,99.5Z" transform="translate(12.52)"/><circle class="cls-160" cx="90.84" cy="106.75" r="1.75"/><circle class="cls-13" cx="90.84" cy="106.75" r="1.22"/><path class="cls-161" d="M77.88,106.75a.44.44,0,0,0,.44.43.43.43,0,0,0,.43-.43.44.44,0,0,0-.43-.44A.44.44,0,0,0,77.88,106.75Z" transform="translate(12.52)"/><path class="cls-160" d="M69.7,106.75A1.75,1.75,0,1,0,71.45,105,1.75,1.75,0,0,0,69.7,106.75Z" transform="translate(12.52)"/><path class="cls-13" d="M70.22,106.75a1.23,1.23,0,1,0,1.23-1.23A1.23,1.23,0,0,0,70.22,106.75Z" transform="translate(12.52)"/><path class="cls-161" d="M71,106.75a.44.44,0,0,0,.44.43.43.43,0,0,0,.43-.43.44.44,0,0,0-.43-.44A.44.44,0,0,0,71,106.75Z" transform="translate(12.52)"/><path class="cls-168" d="M81.44,104.07H68.58v-.78H80.49A1,1,0,0,1,81.44,104.07Z" transform="translate(12.52)"/><path class="cls-13" d="M81.11,104.37h.39l.17,1.37h-.56a.38.38,0,0,1-.37-.37v-.62A.38.38,0,0,1,81.11,104.37Z" transform="translate(12.52)"/><path class="cls-169" d="M68.58,105.74v-1.37h.28a.38.38,0,0,1,.37.38v.62a.38.38,0,0,1-.37.37Z" transform="translate(12.52)"/><path class="cls-166" d="M76.27,99.5l0-.08a.9.9,0,0,0-.85-.63h1.17a.89.89,0,0,1,.85.63l0,.08H76.27Z" transform="translate(12.52)"/></g></g></g></svg>