<svg xmlns="http://www.w3.org/2000/svg" viewBox="0 0 828.74 829.9"><defs><style>.cls-1{fill:#f6e7c3;}.cls-2{fill:#fff;}.cls-3{fill:#748991;}.cls-4{fill:#edd088;}.cls-5{fill:#b9c4c8;}.cls-6{fill:#516b75;}.cls-7{fill:#97a6ac;}.cls-8{fill:#99b9ff;}</style></defs><g id="Layer_2" data-name="Layer 2"><g id="Illustration"><g id="CMS_development" data-name="CMS development"><path class="cls-1" d="M32.22,123.08C107.08-2.31,291.31-.44,343.12.09,534.37,2,661.45,118.76,692.49,149.15,736.75,192.5,814.16,268.3,826.91,379c24.23,210.38-196,452-426.35,449.46-105.9-1.15-251.35-54.31-291.38-156.68C77,589.61,134.55,531.29,85.07,426.21,55,362.38,21.13,357,5.8,294.08-15.71,205.9,29.33,127.93,32.22,123.08Z"/><path d="M577.78,806.6c-55.63,0-121.76-8-189.86-23.23-6.15-1.37-12.37-2.81-18.49-4.29a23.39,23.39,0,0,1-17.27-27.69l61-273.47a23.24,23.24,0,0,1,28.13-17.54c5.87,1.41,11.85,2.8,17.77,4.12,80.92,18.06,159,26,219.86,22.27,29.5-1.79,53.31-6.22,70.77-13.15,17.74-7.05,28-16.34,30.53-27.62a1.5,1.5,0,0,1,2.93.66c-5.37,24-42.32,39.35-104,43.1-61.13,3.72-139.52-4.21-220.71-22.33-5.93-1.33-11.92-2.72-17.81-4.14a20.26,20.26,0,0,0-24.5,15.28L355.08,752a20.38,20.38,0,0,0,15.06,24.12c6.1,1.48,12.3,2.92,18.43,4.28,80.93,18.07,159,26,219.87,22.27,29.5-1.79,53.31-6.21,70.77-13.15,17.73-7,28-16.33,30.52-27.61a1.5,1.5,0,1,1,2.93.65c-5.37,24-42.31,39.36-104,43.11C598.77,806.31,588.47,806.6,577.78,806.6Z"/><path class="cls-2" d="M618.65,326A21.78,21.78,0,0,0,590,341.74L529,614.88a21.75,21.75,0,0,0,14,25.25C649.43,677.74,719.29,726,711.2,762.28l70.51-315.95C789.68,410.64,722.17,363.35,618.65,326Z"/><path class="cls-3" d="M711.2,763.78a1.86,1.86,0,0,1-.33,0,1.5,1.5,0,0,1-1.14-1.79c3.78-16.92-10.25-37.33-40.56-59-30-21.46-73.78-42.69-126.65-61.37a23.28,23.28,0,0,1-14.95-27l61-273.15a23.27,23.27,0,0,1,30.61-16.81c51.73,18.66,94.51,39.74,123.72,61,30.36,22.07,44.3,43.2,40.31,61.09L712.66,762.6A1.5,1.5,0,0,1,711.2,763.78Zm-100-437.56a20.27,20.27,0,0,0-19.78,15.84l-61,273.15a20.27,20.27,0,0,0,13,23.51c53.13,18.78,97.19,40.14,127.4,61.76,24.09,17.25,38.2,33.93,41.6,49L780.25,446c7.54-33.79-56.09-80.34-162.11-118.58A20.48,20.48,0,0,0,611.25,326.22Z"/><path class="cls-4" d="M596.92,440.67a7.55,7.55,0,0,0-10,5.42c-9,40.18-20.84,93.4-36.56,163.8a7.53,7.53,0,0,0,4.74,8.7c62.38,22.93,111.58,49.31,139.21,74.58a7.52,7.52,0,0,0,12.41-3.92c15.4-69,27.12-121.5,36-161.44a7.56,7.56,0,0,0-1.91-6.85C715.16,494,663.7,465.38,596.92,440.67Z"/><path class="cls-5" d="M616.77,351.72a7.54,7.54,0,0,0-10,5.41c-2.55,11.4-5.94,26.59-10.44,46.78a7.49,7.49,0,0,0,4.74,8.69c62.47,23,111.66,49.48,139.12,74.8a7.52,7.52,0,0,0,12.44-3.89l10-44.66a7.52,7.52,0,0,0-1.91-6.84C735,405.09,683.55,376.43,616.77,351.72Z"/><path class="cls-2" d="M344.47,571.68q9.13,2,18.1,4.2a22.12,22.12,0,0,0,26.75-16.7l105-467.57a22.13,22.13,0,0,0-16.43-26.34q-9.3-2.25-18.78-4.36c-170.41-38-317.43-29.1-328.38,20L16.08,591.64C27,542.58,174.06,533.65,344.47,571.68Z"/><path class="cls-3" d="M16.09,593.14l-.33,0a1.5,1.5,0,0,1-1.14-1.79.2.2,0,0,0,0-.07L129.23,80.54c5.45-24.44,43-40,105.76-43.81C297.16,33,376.85,41,459.4,59.44c6.26,1.4,12.58,2.87,18.8,4.37a23.76,23.76,0,0,1,17.55,28.12l-105,467.58a23.61,23.61,0,0,1-28.56,17.83c-6-1.44-12.05-2.85-18.08-4.2-82.29-18.36-161.68-26.4-223.57-22.64-30,1.82-54.21,6.32-72,13.37-18,7.17-28.49,16.62-31,28.1h0A1.5,1.5,0,0,1,16.09,593.14ZM266.36,38.82q-16.22,0-31.18.91c-30,1.82-54.22,6.32-72,13.37-18,7.16-28.49,16.62-31.05,28.1L20.38,579.33C34,561.8,68.6,550.65,120.39,547.5c62.16-3.77,141.85,4.29,224.4,22.72h0c6,1.34,12.15,2.76,18.13,4.2a20.62,20.62,0,0,0,24.93-15.56l105-467.58a20.76,20.76,0,0,0-15.33-24.56c-6.2-1.49-12.5-3-18.74-4.35C389.71,47,322.7,38.82,266.36,38.82Z"/><path class="cls-5" d="M413.93,201.28c8.72,1.95,16.41,3.79,22.73,5.36a12.48,12.48,0,0,0,15.2-9.39l1.55-7,10.08-43.08,1.05-4.68a14.59,14.59,0,0,0-10.76-17.35c-6-1.49-13.22-3.2-21.28-5-150-33.49-279.15-21.71-287.7,9l-15.26,69.07C150.08,182.33,263.9,167.8,413.93,201.28Z"/><path class="cls-5" d="M361.27,421.39c5.34,1.19,14.69,3.44,22.75,5.42a12.49,12.49,0,0,0,15.16-9.4l1.57-7,37.48-162.15,1-4.68a14.59,14.59,0,0,0-10.76-17.35c-6-1.49-13.22-3.2-21.28-5-150-33.49-279.15-21.71-287.7,9L76.88,418.34C97.42,402.44,211.24,387.91,361.27,421.39Z"/><path class="cls-5" d="M333.2,541.82c3.39.76,13.81,3.25,22.76,5.44a12.49,12.49,0,0,0,15.15-9.4l1.57-7,14.37-60.32,1.05-4.67a14.59,14.59,0,0,0-10.76-17.35c-6-1.49-13.22-3.21-21.29-5-150-33.48-279.14-21.7-287.69,9l-19.55,86.3C69.35,522.87,183.17,508.34,333.2,541.82Z"/><circle class="cls-3" cx="463.65" cy="94.73" r="7.71" transform="translate(-0.96 184.64) rotate(-22.5)"/><circle class="cls-5" cx="437.56" cy="89.02" r="7.71"/><circle class="cls-5" cx="410.7" cy="83.52" r="7.71"/><path class="cls-2" d="M725,474.22a2.88,2.88,0,0,0,1-2.74,3.67,3.67,0,0,0-1.92-2.19c-6.61-3.84-17.51-1.09-17.51-1.09A31.79,31.79,0,0,0,694,473.85c-5.71,4.4-8.1,9.67-10.93,16.11a82.62,82.62,0,0,0-6.49,24.61C682.09,510.14,721.75,476.93,725,474.22Z"/><path d="M676.61,516.07a1.46,1.46,0,0,1-.72-.19,1.5,1.5,0,0,1-.77-1.47,84.52,84.52,0,0,1,6.6-25c2.71-6.16,5.26-12,11.39-16.7a33.66,33.66,0,0,1,13.07-5.92c.47-.12,11.57-2.85,18.63,1.25a5.07,5.07,0,0,1,2.64,3.21,4.37,4.37,0,0,1-1.49,4.17h0l-5.78,4.84c-12.41,10.38-38.23,32-42.62,35.52A1.49,1.49,0,0,1,676.61,516.07Zm38.2-47.33a37,37,0,0,0-7.89.91,30.58,30.58,0,0,0-12,5.39c-5.52,4.26-7.81,9.48-10.47,15.53A81,81,0,0,0,678.58,511c8.28-6.85,29-24.15,39.67-33.1l5.78-4.84h0a1.34,1.34,0,0,0,.47-1.31c-.1-.53-.93-1-1.2-1.17A17.24,17.24,0,0,0,714.81,468.74ZM725,474.22h0Z"/><path class="cls-6" d="M491.14,439.89C510,467,530.57,482.38,543.33,490.47c8.09,5.13,75.16,47.65,116.36,20,10.21-6.85,15.95-16.08,19-22l14.74,15.75c-1,6.52-10.48,64-56.23,84.42-23.38,10.43-47.27,8.34-62.47,4.93-21.33-4.78-51.86-13.21-64-25C464.06,523,491.14,439.89,491.14,439.89Z"/><path class="cls-6" d="M527,618.76c-18.56-97,13.26-135.74-18.89-167.07-29.42-28.66-83.23-22.64-106.52-20-26.42,3-48.31,5.4-63.92,21.27a45.62,45.62,0,0,0-9.33,13.51v0c-30.93,51.64-10.89,107.63,1.9,133.68-2.9,101.66-44.66,130.11-20.12,169.08,26.56,42.19,97.5,43.78,135.13,37.58,13.2-2.17,87.27-16,106.69-67.88C564.65,704.87,540.61,690,527,618.76Z"/><path class="cls-2" d="M480.21,606s63.9-7.26,91.68-42l46.3-26.12s-4.63,16.9-17.58,21.31c0,0,5,21.73-12.49,31.7,0,0-12.71,5.91-19.1,4.53,0,0-33.36,56.68-88,62.78C481,658.2,472,633.33,480.21,606Z"/><path d="M481,659.7a1.5,1.5,0,0,1-1.41-1c-.37-1-9-25.65-.81-53.15A1.51,1.51,0,0,1,480,604.5c.63-.07,63.62-7.59,90.68-41.43a1.39,1.39,0,0,1,.43-.37l46.31-26.13a1.5,1.5,0,0,1,2.18,1.71c-.19.7-4.72,16.7-17.34,21.88.75,5,2.25,23.08-13.43,32l-.11.06c-.51.24-12,5.53-19,4.81-4.55,7.23-37.58,56.94-88.61,62.63Zm.38-52.34c-6.52,22.93-.88,44.16.67,49.2,52.59-6.64,85.36-61.34,85.68-61.9a1.49,1.49,0,0,1,1.61-.7c4.81,1,14.64-2.8,18.1-4.4,16.24-9.33,11.77-29.83,11.72-30a1.5,1.5,0,0,1,1-1.75c8.43-2.87,13.17-11.57,15.28-16.6l-42.53,24C546.52,597.83,489.89,606.26,481.37,607.36Z"/><path class="cls-7" d="M454.46,649.23c-38.54,0-65.75-8.93-82.52-17-22-10.64-31.65-22.33-31.73-22.43a1,1,0,0,1,.08-1.3,1.8,1.8,0,0,1,2.09-.26,1.28,1.28,0,0,1,.46.43c1,1.22,38.05,44,129.59,37.63a1.43,1.43,0,0,1,1.62,1.06c.08.65-.53,1.21-1.36,1.27C466.36,649,460.28,649.23,454.46,649.23Z"/><path class="cls-7" d="M469.28,604.86h-.2c-51.24-7-72.95-40.47-82.14-67.34-9.9-29-7.72-56.7-7.7-57a1.51,1.51,0,0,1,1.62-1.36,1.49,1.49,0,0,1,1.37,1.61c0,.28-2.15,27.46,7.58,55.85,13,37.87,39.78,59.82,79.67,65.24a1.5,1.5,0,0,1-.2,3Z"/><path class="cls-7" d="M511.44,556.71l-.29,0a1.5,1.5,0,0,1-1.18-1.76c10.68-53.6-12.48-85.44-12.72-85.75a1.5,1.5,0,0,1,2.41-1.8c.24.32,24.21,33.15,13.25,88.14A1.5,1.5,0,0,1,511.44,556.71Z"/><path class="cls-2" d="M504,814.57l6.66-64.21c0-5.3-.32-57-31.42-75-33.58-19.46-94.65,1-128.85,69.81-5.56,25-3.68,37.3-3.75,55.6,0,13.17-.2,11.35-.48,24.14a315.14,315.14,0,0,0,95.28,2.53C465.75,824.34,487.06,820.38,504,814.57Z"/><path d="M464.42,304.79c13.74,9.84,7.32,21.37,25.95,51.87,10.61,17.39,17.08,20.82,18.73,26.64a11.49,11.49,0,0,1,.41,3.87c-.24,13.19-18,25.57-33.21,29.85-28.17,7.93-42.36-13.42-61.38-3.23-13.77,7.38-12.35,21.8-24.25,23.81s-24.8-10.7-30.75-20.85c-12.91-22-3.35-48.26,1.2-60.34a95.7,95.7,0,0,1,22.28-34.79,78,78,0,0,1,22.22-15.84C407.92,304.72,442.68,289.22,464.42,304.79Z"/><path class="cls-2" d="M398.54,428.81a18.44,18.44,0,0,0,7.26-5.67,15.56,15.56,0,0,0,2.45-5.68L419.63,370s-9.84-2.48-9.74-15.12c.09-9.81,10.53-6.91,10.53-6.91l2.65-17.75c6.74,5.11,2.38,15.86,10.48,13.46l35.79-10.61s8.71-.28,3.54,25.85c-1.49,9,4.19,13.3,5.56,15.95a3.4,3.4,0,0,1-2,4.8l-2.77.91c-10.95,22.13-17,25.09-24.87,21.86L446.49,412c-.64,3.88-.87,9.36,2.37,13,2.54,2.84,5.84,3,12.51,5a96.45,96.45,0,0,1,15.08,5.92A91,91,0,0,1,460,443.15c-34.29,11.3-66.3-.9-79.81-7.1A137.08,137.08,0,0,0,398.54,428.81Z"/><path d="M430.57,449.31c-19.89,0-37.79-5.84-51-11.89a1.51,1.51,0,0,1-.87-1.46,1.49,1.49,0,0,1,1-1.33,135.92,135.92,0,0,0,18.13-7.17h0a16.81,16.81,0,0,0,6.71-5.21,14.08,14.08,0,0,0,2.2-5.15L417.86,371c-2.95-1.31-9.55-5.41-9.47-16.08,0-3.21,1.06-5.61,3.07-7.12,2.46-1.86,5.75-1.8,7.7-1.54l2.43-16.2a1.47,1.47,0,0,1,.91-1.17A1.52,1.52,0,0,1,424,329c3.41,2.6,4.31,6.34,5,9.34.43,1.81.84,3.51,1.64,4a3.65,3.65,0,0,0,2.49-.1l35.78-10.61a2.5,2.5,0,0,1,.38-.06,5.17,5.17,0,0,1,3.89,2.05c3.35,4,3.75,12.57,1.17,25.6-1.05,6.32,1.8,10,3.87,12.72a15.73,15.73,0,0,1,1.55,2.23,4.9,4.9,0,0,1-2.83,6.92l-2.18.72c-9.57,19.22-16.1,25.27-24.87,22.6L448,412.3c-.86,5.29-.18,9.23,2,11.68,1.61,1.81,3.68,2.35,7.43,3.33,1.28.34,2.73.72,4.39,1.21a98.36,98.36,0,0,1,15.31,6,1.49,1.49,0,0,1,.07,2.65,93.54,93.54,0,0,1-16.69,7.39A95.17,95.17,0,0,1,430.57,449.31Zm-46.2-13.06c19,8.12,46.52,14.92,75.18,5.48A91.18,91.18,0,0,0,473.14,436a92.24,92.24,0,0,0-12.2-4.58c-1.61-.48-3-.85-4.29-1.18-4-1.06-6.69-1.76-8.91-4.24-2.84-3.17-3.76-8-2.73-14.22a.5.5,0,0,1,0-.12l2.34-9.55a1.51,1.51,0,0,1,.78-1,1.46,1.46,0,0,1,1.24-.05c5.9,2.41,11.33,2.38,23-21.14a1.54,1.54,0,0,1,.88-.76l2.78-.91a1.9,1.9,0,0,0,1.1-2.68,14.69,14.69,0,0,0-1.26-1.79c-2.14-2.78-5.72-7.43-4.45-15.09,3.09-15.6,1.08-21.08-.39-23a2.92,2.92,0,0,0-1.53-1.12L434,345.13a6,6,0,0,1-4.84-.19c-1.92-1.11-2.47-3.42-3.06-5.87a17.68,17.68,0,0,0-2-5.53L421.9,348.2a1.48,1.48,0,0,1-.67,1,1.46,1.46,0,0,1-1.22.19s-4.29-1.14-6.76.73c-1.21.92-1.84,2.52-1.86,4.75-.09,11.33,8.52,13.63,8.61,13.66a1.5,1.5,0,0,1,1.09,1.8l-11.38,47.45A17,17,0,0,1,407,424a19.77,19.77,0,0,1-7.81,6.12A131.69,131.69,0,0,1,384.37,436.25Z"/><path d="M448.83,404a1.47,1.47,0,0,1-.46-.07c-16.41-5.2-22.41-15.36-22.66-15.79a1.5,1.5,0,1,1,2.59-1.5c.09.14,5.79,9.61,21,14.43a1.5,1.5,0,0,1,1,1.88A1.52,1.52,0,0,1,448.83,404Z"/><path d="M429.65,305.09c-.8-1,12.87-31-10.66-38.14s-41.41,36.21-19.84,48.37S429.65,305.09,429.65,305.09Z"/><path d="M456.49,372.66a9.92,9.92,0,1,1,9.93-10.25h0a9.92,9.92,0,0,1-9.6,10.24Zm0-16.85h-.23a6.93,6.93,0,1,0,7.15,6.7h0a6.93,6.93,0,0,0-6.92-6.7Z"/><path class="cls-2" d="M475.4,370.09a1.5,1.5,0,0,1-1-2.62,6.92,6.92,0,0,0-.37-10.65,1.5,1.5,0,0,1,1.84-2.38,9.94,9.94,0,0,1,.52,15.27A1.47,1.47,0,0,1,475.4,370.09Z"/><path d="M447.93,362.56a1.5,1.5,0,0,1-.67-.16L418.8,348.12a1.5,1.5,0,0,1,1.34-2.69l28.47,14.29a1.5,1.5,0,0,1-.68,2.84Z"/><path d="M465.13,364a1.49,1.49,0,0,1-1.28-2.28,8.21,8.21,0,0,1,4.83-3.58,6.1,6.1,0,0,1,4.87,1.2,1.5,1.5,0,1,1-1.75,2.44,3.17,3.17,0,0,0-2.51-.7,5.31,5.31,0,0,0-2.89,2.22A1.49,1.49,0,0,1,465.13,364Z"/><path class="cls-2" d="M654.34,529.26h0c-3.91,0-8-.11-12-.24a1.51,1.51,0,0,1-1.46-1.55,1.49,1.49,0,0,1,1.55-1.45c4.05.13,8.07.21,12,.24a1.5,1.5,0,0,1,0,3Zm12-.06a1.51,1.51,0,0,1-1.5-1.48,1.5,1.5,0,0,1,1.47-1.52c4.08-.08,8.1-.22,12-.42a1.5,1.5,0,1,1,.15,3c-3.88.2-7.93.35-12,.43Zm-36-.69h-.08c-3.92-.2-8-.46-12-.75a1.5,1.5,0,0,1,.22-3c4,.29,8,.54,11.95.75a1.5,1.5,0,0,1-.08,3Zm59.95-.58a1.5,1.5,0,0,1-.13-3c4.09-.37,8.08-.82,11.85-1.35a1.5,1.5,0,1,1,.41,3c-3.81.53-7.85,1-12,1.37Zm-83.89-1.13h-.13c-3.92-.35-7.95-.74-12-1.16A1.51,1.51,0,0,1,593,524a1.53,1.53,0,0,1,1.65-1.34c4,.42,8,.81,11.92,1.16a1.5,1.5,0,0,1-.13,3Zm107.64-2.23a1.5,1.5,0,0,1-.29-3c4.09-.83,8-1.78,11.52-2.83a1.5,1.5,0,0,1,.85,2.88c-3.64,1.07-7.6,2-11.78,2.89Zm-131.51-.26-.18,0c-3.93-.47-7.94-1-11.93-1.51a1.5,1.5,0,0,1,.4-3c4,.53,8,1,11.89,1.51a1.5,1.5,0,0,1-.18,3Zm-23.79-3.18a.82.82,0,0,1-.22,0c-3.92-.57-7.92-1.18-11.88-1.81a1.5,1.5,0,0,1,.47-3c4,.63,7.94,1.24,11.84,1.82a1.5,1.5,0,0,1-.21,3ZM535,517.36l-.25,0c-3.9-.67-7.88-1.37-11.83-2.1a1.5,1.5,0,0,1,.53-3c3.94.72,7.92,1.43,11.81,2.09a1.5,1.5,0,0,1-.26,3Zm-23.61-4.31-.29,0q-5.85-1.12-11.78-2.34a1.5,1.5,0,0,1,.6-2.94q5.91,1.2,11.76,2.34a1.5,1.5,0,0,1-.29,3Zm-23.52-4.8a1.1,1.1,0,0,1-.31,0q-5.84-1.24-11.74-2.58a1.5,1.5,0,1,1,.66-2.92q5.88,1.32,11.71,2.57a1.5,1.5,0,0,1-.32,3ZM464.5,503a1.39,1.39,0,0,1-.35,0q-5.81-1.37-11.68-2.8a1.5,1.5,0,0,1,.71-2.92q5.85,1.44,11.66,2.8a1.5,1.5,0,0,1-.34,3Zm-23.32-5.71a1.55,1.55,0,0,1-.37,0q-5.79-1.49-11.63-3a1.5,1.5,0,0,1-1.07-1.83,1.52,1.52,0,0,1,1.84-1.07q5.82,1.53,11.6,3a1.5,1.5,0,0,1-.37,2.95ZM418,491.14a1.31,1.31,0,0,1-.39-.05q-5.77-1.57-11.58-3.22a1.5,1.5,0,0,1,.82-2.89q5.79,1.65,11.55,3.22a1.5,1.5,0,0,1-.4,2.94Zm-23.09-6.53a1.52,1.52,0,0,1-.42-.06q-5.79-1.69-11.52-3.43a1.5,1.5,0,0,1,.87-2.87q5.71,1.72,11.49,3.42a1.5,1.5,0,0,1-.42,2.94Zm-23-6.94a1.68,1.68,0,0,1-.44-.07c-3.85-1.2-7.66-2.41-11.46-3.63a1.5,1.5,0,1,1,.92-2.86q5.68,1.83,11.43,3.62a1.51,1.51,0,0,1-.45,2.94Zm-22.85-7.36a1.53,1.53,0,0,1-.47-.07q-5.73-1.9-11.39-3.84a1.5,1.5,0,0,1,1-2.84q5.64,1.94,11.36,3.83a1.5,1.5,0,0,1-.47,2.92Zm-22.71-7.77a1.47,1.47,0,0,1-.5-.09q-5.7-2-11.31-4.05a1.5,1.5,0,1,1,1-2.82q5.59,2,11.29,4a1.5,1.5,0,0,1-.5,2.92Zm-22.56-8.21a1.37,1.37,0,0,1-.52-.1Q297.59,452.1,292,450a1.5,1.5,0,0,1,1.09-2.8q5.55,2.14,11.2,4.27a1.5,1.5,0,0,1-.53,2.91Zm-22.38-8.67a1.55,1.55,0,0,1-.56-.11c-3.71-1.48-7.46-3-11.13-4.52a1.5,1.5,0,1,1,1.14-2.78c3.67,1.52,7.41,3,11.11,4.51a1.51,1.51,0,0,1-.56,2.9Zm-22.19-9.16a1.52,1.52,0,0,1-.59-.12c-3.71-1.59-7.42-3.2-11-4.79a1.5,1.5,0,0,1,1.21-2.74c3.6,1.58,7.3,3.19,11,4.77a1.5,1.5,0,0,1-.59,2.88Zm-22-9.69a1.6,1.6,0,0,1-.63-.14c-3.67-1.67-7.33-3.38-10.9-5.07a1.49,1.49,0,0,1-.71-2,1.51,1.51,0,0,1,2-.72c3.55,1.68,7.2,3.38,10.86,5.05a1.5,1.5,0,0,1-.62,2.87Zm-21.7-10.28a1.55,1.55,0,0,1-.66-.15c-3.63-1.78-7.24-3.6-10.75-5.39a1.5,1.5,0,0,1,1.37-2.67c3.49,1.78,7.09,3.59,10.7,5.37a1.49,1.49,0,0,1,.69,2A1.51,1.51,0,0,1,215.55,416.53Zm-21.37-10.94a1.49,1.49,0,0,1-.7-.18c-3.6-1.92-7.15-3.86-10.56-5.76a1.5,1.5,0,1,1,1.46-2.62c3.4,1.9,6.93,3.83,10.51,5.74a1.5,1.5,0,0,1-.71,2.82Zm-21-11.72a1.48,1.48,0,0,1-.75-.2c-3.52-2.07-7-4.16-10.31-6.22a1.5,1.5,0,1,1,1.58-2.55c3.3,2,6.75,4.13,10.25,6.18a1.5,1.5,0,0,1-.77,2.79ZM152.85,381.2A1.54,1.54,0,0,1,152,381c-3.43-2.27-6.78-4.56-10-6.8a1.5,1.5,0,1,1,1.73-2.45c3.15,2.23,6.47,4.49,9.87,6.74a1.51,1.51,0,0,1,.43,2.08A1.49,1.49,0,0,1,152.85,381.2Zm-19.57-13.89a1.52,1.52,0,0,1-.92-.31c-3.3-2.55-6.46-5.1-9.39-7.6a1.5,1.5,0,0,1,2-2.28c2.89,2.46,6,5,9.27,7.5a1.5,1.5,0,0,1-.91,2.69Zm-18.21-15.62a1.51,1.51,0,0,1-1-.42c-2.33-2.27-4.52-4.55-6.52-6.76a1.5,1.5,0,0,1,2.24-2c1.94,2.17,4.09,4.39,6.37,6.62a1.5,1.5,0,0,1-1,2.57Z"/><path class="cls-2" d="M701.9,422.54a1.46,1.46,0,0,1-.84-.26l-.22-.15a1.5,1.5,0,1,1,1.67-2.49l.22.15a1.5,1.5,0,0,1,.42,2.08A1.52,1.52,0,0,1,701.9,422.54Zm-10.29-6.69a1.46,1.46,0,0,1-.8-.23c-3.29-2.06-6.72-4.16-10.21-6.24a1.5,1.5,0,0,1,1.53-2.57c3.51,2.08,7,4.19,10.28,6.27a1.5,1.5,0,0,1-.8,2.77ZM671,403.58a1.45,1.45,0,0,1-.74-.2c-3.39-1.91-6.91-3.86-10.48-5.78a1.5,1.5,0,0,1,1.43-2.64c3.58,1.93,7.12,3.88,10.53,5.81a1.51,1.51,0,0,1,.57,2.05A1.53,1.53,0,0,1,671,403.58Zm-21.12-11.4a1.52,1.52,0,0,1-.68-.17c-3.5-1.8-7.09-3.62-10.69-5.41a1.5,1.5,0,0,1,1.33-2.69c3.62,1.8,7.23,3.62,10.73,5.43a1.5,1.5,0,0,1-.69,2.84Zm-21.49-10.67a1.51,1.51,0,0,1-.65-.15c-3.53-1.69-7.18-3.4-10.85-5.09a1.5,1.5,0,1,1,1.26-2.72c3.67,1.69,7.34,3.41,10.88,5.1a1.5,1.5,0,0,1-.64,2.86Zm-21.8-10.05a1.46,1.46,0,0,1-.61-.13c-3.61-1.6-7.3-3.21-11-4.79a1.51,1.51,0,0,1-.79-2,1.49,1.49,0,0,1,2-.79c3.7,1.59,7.4,3.21,11,4.81a1.5,1.5,0,0,1-.61,2.87ZM584.51,362a1.46,1.46,0,0,1-.57-.12c-3.63-1.51-7.36-3-11.09-4.54a1.5,1.5,0,1,1,1.12-2.78c3.74,1.51,7.49,3,11.12,4.55a1.5,1.5,0,0,1-.58,2.89Zm-22.26-9a1.47,1.47,0,0,1-.54-.1q-5.55-2.16-11.19-4.3a1.5,1.5,0,0,1,1.06-2.81q5.65,2.15,11.22,4.31a1.5,1.5,0,0,1-.55,2.9Zm-22.45-8.49a1.52,1.52,0,0,1-.51-.09q-5.6-2.06-11.28-4.07a1.5,1.5,0,0,1,1-2.83q5.7,2,11.3,4.08a1.5,1.5,0,0,1-.52,2.91Z"/><path class="cls-2" d="M343.9,289.62a1.43,1.43,0,0,1-.29,0q-5.92-1.17-11.77-2.25a1.5,1.5,0,1,1,.55-2.95q5.85,1.08,11.8,2.25a1.5,1.5,0,0,1-.29,3Zm-23.6-4.38-.26,0c-3.93-.69-7.91-1.36-11.81-2a1.5,1.5,0,1,1,.48-3c3.91.63,7.9,1.3,11.85,2a1.5,1.5,0,0,1-.26,3Zm-23.69-3.85h-.22c-4-.6-8-1.17-11.86-1.71a1.5,1.5,0,0,1,.41-3c3.91.54,7.91,1.11,11.89,1.71a1.5,1.5,0,0,1-.22,3Zm-23.77-3.25h-.19c-4-.5-8-1-11.9-1.39a1.5,1.5,0,1,1,.33-3c3.92.43,7.93.89,11.94,1.39a1.5,1.5,0,0,1-.18,3ZM249,275.54h-.15c-4-.38-8-.72-11.93-1a1.5,1.5,0,1,1,.23-3c3.93.3,8,.64,12,1a1.5,1.5,0,0,1-.13,3Z"/><path class="cls-2" d="M582.43,543.39h-.17c-3.93-.44-8-.93-11.93-1.43a1.5,1.5,0,0,1,.38-3c4,.51,8,1,11.89,1.43a1.5,1.5,0,0,1-.17,3Zm-23.8-3h-.21c-3.92-.56-7.92-1.14-11.9-1.76a1.5,1.5,0,0,1,.46-3c4,.61,7.95,1.2,11.85,1.75a1.5,1.5,0,0,1-.2,3Zm-23.73-3.64-.24,0c-3.91-.65-7.9-1.33-11.85-2a1.5,1.5,0,0,1,.53-3c3.93.7,7.91,1.38,11.81,2a1.5,1.5,0,0,1-.25,3Zm-23.63-4.19-.28,0c-3.9-.74-7.84-1.5-11.79-2.29a1.5,1.5,0,0,1,.58-2.94q5.93,1.18,11.77,2.28a1.5,1.5,0,0,1-.28,3Zm-23.54-4.7-.31,0q-5.84-1.23-11.74-2.53a1.5,1.5,0,0,1-1.14-1.79,1.48,1.48,0,0,1,1.78-1.14q5.9,1.3,11.72,2.52a1.5,1.5,0,0,1-.31,3Zm-23.43-5.16a1.86,1.86,0,0,1-.34,0q-5.82-1.35-11.7-2.75a1.52,1.52,0,0,1-1.11-1.81A1.5,1.5,0,0,1,453,517q5.87,1.41,11.67,2.75a1.5,1.5,0,0,1-.33,3ZM441,517.06a1.64,1.64,0,0,1-.37,0q-5.79-1.44-11.64-3a1.5,1.5,0,0,1,.76-2.9c3.88,1,7.76,2,11.61,3a1.5,1.5,0,0,1-.36,3Zm-23.23-6a1.31,1.31,0,0,1-.39,0q-5.77-1.55-11.58-3.17a1.5,1.5,0,1,1,.8-2.89q5.81,1.6,11.56,3.16a1.5,1.5,0,0,1-.39,2.95Zm-23.12-6.44a1.51,1.51,0,0,1-.41-.06q-5.81-1.66-11.53-3.38a1.5,1.5,0,0,1,.85-2.87q5.73,1.69,11.51,3.37a1.5,1.5,0,0,1-.42,2.94Zm-23-6.85a1.31,1.31,0,0,1-.44-.07q-5.78-1.77-11.47-3.58a1.5,1.5,0,1,1,.9-2.86q5.68,1.8,11.45,3.57a1.5,1.5,0,0,1-.44,2.94Zm-22.88-7.26a1.29,1.29,0,0,1-.47-.08q-5.75-1.87-11.4-3.79a1.49,1.49,0,0,1-.94-1.9,1.5,1.5,0,0,1,1.9-.94q5.64,1.9,11.37,3.78a1.5,1.5,0,0,1,1,1.9A1.49,1.49,0,0,1,348.73,490.47ZM326,482.79a1.67,1.67,0,0,1-.49-.08q-5.72-2-11.33-4a1.5,1.5,0,0,1,1-2.82q5.61,2,11.31,4a1.5,1.5,0,0,1-.5,2.92Zm-22.59-8.11a1.58,1.58,0,0,1-.52-.09q-5.67-2.1-11.25-4.23a1.5,1.5,0,0,1,1.07-2.81q5.56,2.13,11.22,4.22a1.5,1.5,0,0,1-.52,2.91ZM281,466.12a1.5,1.5,0,0,1-.55-.11q-5.64-2.22-11.16-4.47a1.5,1.5,0,1,1,1.13-2.77q5.5,2.24,11.13,4.45a1.5,1.5,0,0,1-.55,2.9Zm-22.24-9.05a1.51,1.51,0,0,1-.58-.12c-3.71-1.56-7.43-3.15-11-4.72a1.5,1.5,0,1,1,1.19-2.75c3.61,1.57,7.32,3.15,11,4.71a1.5,1.5,0,0,1-.58,2.88Zm-22-9.57a1.49,1.49,0,0,1-.61-.13c-3.67-1.65-7.35-3.33-10.93-5a1.5,1.5,0,1,1,1.26-2.72c3.57,1.66,7.24,3.34,10.9,5a1.5,1.5,0,0,1-.62,2.86ZM215,437.37a1.51,1.51,0,0,1-.65-.15c-3.64-1.76-7.27-3.55-10.79-5.32a1.5,1.5,0,0,1,1.35-2.68c3.5,1.76,7.12,3.54,10.75,5.3a1.5,1.5,0,0,1-.66,2.85Zm-21.44-10.79a1.45,1.45,0,0,1-.7-.17c-3.59-1.88-7.15-3.79-10.61-5.67a1.5,1.5,0,0,1,1.44-2.64c3.44,1.88,7,3.79,10.56,5.65a1.5,1.5,0,0,1-.69,2.83Zm-21.06-11.53a1.48,1.48,0,0,1-.75-.2c-3.52-2-7-4.08-10.37-6.11a1.5,1.5,0,0,1,1.56-2.56c3.33,2,6.8,4.06,10.31,6.07a1.5,1.5,0,0,1-.75,2.8Zm-20.53-12.43a1.5,1.5,0,0,1-.81-.24c-3.45-2.22-6.83-4.45-10.05-6.65a1.5,1.5,0,0,1,1.7-2.48c3.19,2.18,6.54,4.41,10,6.6a1.5,1.5,0,0,1-.81,2.77ZM132.13,389a1.55,1.55,0,0,1-.89-.29c-3.33-2.47-6.54-5-9.54-7.39a1.5,1.5,0,1,1,1.89-2.33c3,2.41,6.14,4.86,9.44,7.3a1.51,1.51,0,0,1,.31,2.1A1.49,1.49,0,0,1,132.13,389Zm-18.59-15.17a1.51,1.51,0,0,1-1-.39c-3.13-2.86-6-5.71-8.64-8.49a1.49,1.49,0,0,1,.07-2.12,1.51,1.51,0,0,1,2.12.07c2.55,2.72,5.4,5.52,8.47,8.33a1.49,1.49,0,0,1,.1,2.12A1.51,1.51,0,0,1,113.54,373.86Z"/><path class="cls-2" d="M648.88,547.72h0c-3.91,0-8-.11-12-.24a1.5,1.5,0,1,1,.1-3c4.05.12,8.08.2,12,.23a1.5,1.5,0,0,1,0,3Zm12-.06a1.5,1.5,0,0,1,0-3c4.08-.08,8.1-.22,11.94-.42a1.48,1.48,0,0,1,1.58,1.42,1.51,1.51,0,0,1-1.42,1.58c-3.88.2-7.93.34-12,.42Zm24-1.26a1.5,1.5,0,0,1-.13-3c4.09-.37,8.08-.82,11.85-1.35a1.5,1.5,0,0,1,1.69,1.28A1.52,1.52,0,0,1,697,545c-3.82.53-7.85,1-12,1.36ZM708.59,543a1.5,1.5,0,0,1-.3-3c4.09-.84,8-1.79,11.53-2.83a1.5,1.5,0,0,1,.85,2.87c-3.64,1.07-7.61,2-11.78,2.9Z"/><path class="cls-2" d="M696.44,441a1.52,1.52,0,0,1-.84-.25l-.23-.16a1.5,1.5,0,0,1,1.68-2.49l.22.15a1.5,1.5,0,0,1,.41,2.08A1.48,1.48,0,0,1,696.44,441Zm-10.3-6.68a1.57,1.57,0,0,1-.8-.23c-3.28-2.07-6.72-4.17-10.2-6.24a1.5,1.5,0,1,1,1.53-2.58c3.51,2.08,7,4.2,10.27,6.28a1.5,1.5,0,0,1-.8,2.77ZM665.52,422a1.51,1.51,0,0,1-.74-.19c-3.39-1.92-6.92-3.87-10.48-5.79a1.5,1.5,0,1,1,1.43-2.64c3.57,1.93,7.12,3.89,10.53,5.82a1.5,1.5,0,0,1-.74,2.8Zm-21.12-11.4a1.44,1.44,0,0,1-.69-.17c-3.49-1.8-7.08-3.62-10.68-5.41a1.5,1.5,0,1,1,1.33-2.68c3.61,1.79,7.22,3.62,10.73,5.43a1.5,1.5,0,0,1-.69,2.83ZM622.9,400a1.5,1.5,0,0,1-.64-.15c-3.54-1.69-7.19-3.4-10.85-5.08a1.5,1.5,0,0,1,1.26-2.73c3.67,1.69,7.33,3.41,10.88,5.1a1.5,1.5,0,0,1-.65,2.86Zm-21.8-10a1.49,1.49,0,0,1-.61-.13c-3.58-1.6-7.27-3.21-11-4.8a1.5,1.5,0,0,1,1.18-2.76c3.71,1.6,7.42,3.22,11,4.82a1.5,1.5,0,0,1-.61,2.87Zm-22.05-9.48a1.46,1.46,0,0,1-.57-.12c-3.63-1.5-7.36-3-11.09-4.54a1.5,1.5,0,1,1,1.12-2.78c3.74,1.51,7.48,3,11.12,4.55a1.5,1.5,0,0,1-.58,2.89Zm-22.26-9a1.52,1.52,0,0,1-.55-.1q-5.54-2.16-11.18-4.3a1.5,1.5,0,1,1,1.06-2.8q5.65,2.13,11.21,4.3a1.5,1.5,0,0,1-.54,2.9ZM534.34,363a1.58,1.58,0,0,1-.52-.09q-5.58-2.06-11.27-4.07a1.5,1.5,0,0,1,1-2.83q5.7,2,11.31,4.08a1.52,1.52,0,0,1,.89,1.93A1.49,1.49,0,0,1,534.34,363Z"/><path class="cls-2" d="M338.44,308.08a1.43,1.43,0,0,1-.29,0q-5.92-1.17-11.77-2.25a1.5,1.5,0,0,1,.54-2.95q5.86,1.09,11.81,2.26a1.5,1.5,0,0,1-.29,3Zm-23.6-4.38a1.18,1.18,0,0,1-.26,0c-3.94-.69-7.91-1.35-11.82-2a1.5,1.5,0,1,1,.49-3c3.91.64,7.9,1.31,11.85,2a1.5,1.5,0,0,1-.26,3Zm-23.69-3.84-.22,0c-4-.59-8-1.17-11.86-1.7a1.5,1.5,0,1,1,.4-3c3.92.53,7.92,1.11,11.9,1.7a1.5,1.5,0,0,1-.22,3Zm-23.78-3.26h-.18c-4-.49-8-1-11.9-1.38a1.5,1.5,0,0,1,.32-3c3.92.43,7.94.9,11.95,1.39a1.5,1.5,0,0,1-.19,3ZM243.51,294h-.14c-4-.37-8-.72-11.93-1a1.5,1.5,0,0,1,.23-3c3.93.3,8,.65,12,1a1.5,1.5,0,0,1-.14,3Z"/><path d="M189.41,716.8a23.9,23.9,0,0,1-8-1.4c-52.59-19-96.08-40.41-125.79-62-30.86-22.43-45-43.9-41-62.08a1.5,1.5,0,0,1,2.93.65c-7.67,34.38,57,81.72,164.85,120.6a20.62,20.62,0,0,0,27.15-14.9l104.9-467.26a20.64,20.64,0,0,0-13.25-23.93c-54-19.09-98.82-40.81-129.54-62.8C139.78,120.86,125.1,99,129.23,80.54A1.48,1.48,0,0,1,131,79.41a1.5,1.5,0,0,1,1.14,1.79c-3.85,17.21,10.42,38,41.25,60,30.49,21.83,75,43.41,128.79,62.41a23.65,23.65,0,0,1,15.18,27.42L212.48,698.32a23.64,23.64,0,0,1-23.07,18.48Z"/><path d="M271.9,303.7a14.41,14.41,0,0,1-4.75-.81c-76.08-26.48-132.95-58.42-156-87.64a1.5,1.5,0,1,1,2.35-1.86c22.75,28.78,79.13,60.37,154.68,86.67a11.49,11.49,0,0,0,15-8.33l2-8.81,7.56-41.71,1.27-5.67a13,13,0,0,0-8.46-15.11c-74.81-25.89-131.62-57.27-155.88-86.11a1.5,1.5,0,1,1,2.29-1.93c23.92,28.44,80.26,59.49,154.57,85.2a16,16,0,0,1,10.4,18.61l-1.25,5.61L288,283.51l-2,8.88A14.51,14.51,0,0,1,271.9,303.7Z"/><path d="M210.07,563.24a14.4,14.4,0,0,1-4.75-.8C136,538.32,83.14,510.05,56.4,482.83a1.5,1.5,0,1,1,2.14-2.11c26,26.51,79.9,55.26,147.77,78.89a11.49,11.49,0,0,0,15-8.33l2-8.81,47.06-195.32,1.25-5.59a13,13,0,0,0-8.46-15.11c-74.81-25.89-131.62-57.27-155.88-86.11a1.5,1.5,0,0,1,2.29-1.93c23.92,28.44,80.26,59.49,154.57,85.2a16,16,0,0,1,10.4,18.61l-1.25,5.61L226.18,543.15l-2,8.78a14.48,14.48,0,0,1-14.15,11.31Z"/><path d="M182.87,676.18a14.62,14.62,0,0,1-4.75-.8C117,654.09,67.45,628.92,38.63,604.48a1.5,1.5,0,0,1,1.94-2.29c28.54,24.21,77.74,49.19,138.54,70.35a11.48,11.48,0,0,0,15-8.33l2-8.81,11.25-49.34,1.25-5.6a13,13,0,0,0-8.45-15.12c-65.27-22.58-116.84-49.26-145.21-75.11a1.5,1.5,0,1,1,2-2.22c28.07,25.59,79.27,52,144.17,74.49a16,16,0,0,1,10.4,18.61l-1.25,5.61L199,656.06l-2,8.81a14.51,14.51,0,0,1-14.14,11.31Z"/><path d="M461.52,762.86a9.86,9.86,0,0,1-1.53-.12c-23.2-3.61-46.94-8.11-70.57-13.38a8,8,0,0,1-6-9.52l13.16-59a2.82,2.82,0,0,1,1.23-1.75,2.73,2.73,0,0,1,2.1-.36l.51.11c24.72,5.52,49.57,10.19,73.86,13.88a10,10,0,0,1,8.22,12l-11.24,50.33A10,10,0,0,1,461.52,762.86Zm-62.1-81.12-13.11,58.75a5,5,0,0,0,3.74,5.93c23.59,5.27,47.26,9.76,70.4,13.36a7,7,0,0,0,7.85-5.34l11.23-50.33a6.94,6.94,0,0,0-5.74-8.38c-24.36-3.71-49.27-8.39-74.07-13.92Z"/><path d="M483.59,664a10.53,10.53,0,0,1-1.48-.11c-24.54-3.72-49.65-8.43-74.65-14a3.9,3.9,0,0,1-2.95-4.65l12.55-56.26a6.86,6.86,0,0,1,8.18-5.18l2.08.47c22.83,5.09,45.81,9.47,68.29,13a9.94,9.94,0,0,1,8.17,12l-10.48,47A10,10,0,0,1,483.59,664Zm-59.86-77.38a3.85,3.85,0,0,0-2.05.6,3.78,3.78,0,0,0-1.69,2.41l-12.56,56.25a.91.91,0,0,0,.68,1.07h0c24.93,5.56,50,10.26,74.45,14a7,7,0,0,0,7.81-5.35l10.48-47a6.95,6.95,0,0,0-5.7-8.37c-22.55-3.55-45.59-8-68.49-13.06l-2.08-.46A3.53,3.53,0,0,0,423.73,586.57Z"/><path d="M624.42,580.3h-.14c-56.56-.78-121.82-9.09-188.73-24a10.95,10.95,0,0,1-8.29-13.06l10.92-48.91a10,10,0,0,1,11.9-7.55h0c65.65,14.65,129.84,22.92,185.61,23.91a9.94,9.94,0,0,1,9.54,12.11l-11.1,49.75A10,10,0,0,1,624.42,580.3ZM447.89,489.51a7,7,0,0,0-6.78,5.46l-10.92,48.9a7.94,7.94,0,0,0,6,9.48C502.92,568.24,568,576.52,624.32,577.3h.1a7,7,0,0,0,6.78-5.42l11.1-49.76a6.95,6.95,0,0,0-6.66-8.46c-56-1-120.37-9.28-186.22-24A7.25,7.25,0,0,0,447.89,489.51Z"/><path d="M586.94,773.48a787.21,787.21,0,0,1-93.43-6.09,9,9,0,0,1-7.68-10.87L497.32,705a9.91,9.91,0,0,1,10.86-7.7c87.84,10.25,160.08,6.29,198.18-10.88a6.3,6.3,0,0,1,8.75,7.12L702.51,750a10,10,0,0,1-5.67,6.92C672.24,767.88,634.05,773.48,586.94,773.48ZM507,700.26a6.91,6.91,0,0,0-6.76,5.43l-11.49,51.49a6,6,0,0,0,5.11,7.23c89.33,10.81,162.86,7.09,201.76-10.22a7,7,0,0,0,4-4.83l12.59-56.44a3.29,3.29,0,0,0-1.14-3.29,3.32,3.32,0,0,0-3.45-.45C669,706.57,596.2,710.63,507.83,700.31h0A7.67,7.67,0,0,0,507,700.26Z"/><path d="M604.21,673.85a775.85,775.85,0,0,1-90.7-5.76,7,7,0,0,1-6-8.52l11.13-49.88a9.91,9.91,0,0,1,10.91-7.7h0c85.69,10.52,158,7.64,198.26-7.9a6,6,0,0,1,8,6.9l-10.54,47.25a9.94,9.94,0,0,1-5.12,6.66C696.14,667.39,655.22,673.85,604.21,673.85Zm-75.93-68.93a6.9,6.9,0,0,0-6.75,5.42l-11.14,49.88a4.1,4.1,0,0,0,.65,3.22,4,4,0,0,0,2.83,1.67c91.83,10.92,168.41,6.11,204.85-12.87a7,7,0,0,0,3.58-4.65l10.55-47.26a3,3,0,0,0-4-3.44c-40.76,15.71-113.54,18.66-199.7,8.08h0A6.35,6.35,0,0,0,528.28,604.92Z"/><path d="M657,579.83a7.45,7.45,0,0,1-7.28-9.08L661.47,518a10,10,0,0,1,9.26-7.76h0c32.82-1.47,59.33-5.92,78.81-13.24a6,6,0,0,1,7.91,6.87l-12.16,54.46a9.93,9.93,0,0,1-6,7.07c-19.9,8-47.48,12.85-82,14.41Zm13.88-66.59a7,7,0,0,0-6.47,5.42L652.62,571.4a4.45,4.45,0,0,0,4.56,5.42c33.68-1.52,61.68-6.43,81-14.19a7,7,0,0,0,4.19-4.94l12.16-54.47a3,3,0,0,0-3.93-3.4c-19.77,7.42-46.6,11.94-79.73,13.42Zm-.06-1.5h0Z"/><path d="M577.78,806.6c-55.63,0-121.76-8-189.86-23.23-6.15-1.37-12.37-2.81-18.49-4.29a23.39,23.39,0,0,1-17.27-27.69l61-273.47a23.24,23.24,0,0,1,28.13-17.54c5.87,1.41,11.85,2.8,17.77,4.12,80.92,18.06,159,26,219.86,22.27,29.5-1.79,53.31-6.22,70.77-13.15,17.74-7.05,28-16.34,30.53-27.62a1.5,1.5,0,0,1,2.93.66c-5.37,24-42.32,39.35-104,43.1-61.13,3.72-139.52-4.21-220.71-22.33-5.93-1.33-11.92-2.72-17.81-4.14a20.26,20.26,0,0,0-24.5,15.28L355.08,752a20.38,20.38,0,0,0,15.06,24.12c6.1,1.48,12.3,2.92,18.43,4.28,80.93,18.07,159,26,219.87,22.27,29.5-1.79,53.31-6.21,70.77-13.15,17.73-7,28-16.33,30.52-27.61a1.5,1.5,0,1,1,2.93.65c-5.37,24-42.31,39.36-104,43.11C598.77,806.31,588.47,806.6,577.78,806.6Z"/><path class="cls-3" d="M815.29,300.17a1.24,1.24,0,0,1-.33,0,1.5,1.5,0,0,1-1.14-1.79c6.7-30-43.79-71-131.77-106.94a1.5,1.5,0,0,1,1.13-2.77C774,225.71,823.9,267,816.75,299A1.51,1.51,0,0,1,815.29,300.17Z"/><path d="M649.68,342.14h-.07c-27-1.36-55.72-4.33-85.45-8.83a1.5,1.5,0,1,1,.45-3c29.64,4.48,58.28,7.44,85.15,8.8a1.5,1.5,0,0,1-.08,3Z"/><path d="M699.54,342.71a1.5,1.5,0,0,1,0-3c42-1.36,74.6-7.79,94.17-18.59a1.5,1.5,0,1,1,1.45,2.62c-20,11-53,17.59-95.52,19Z"/><path class="cls-3" d="M826.11,259.37a1.24,1.24,0,0,1-.33,0,1.49,1.49,0,0,1-1.13-1.79c7.54-33.8-56.09-80.34-162.11-118.58a1.5,1.5,0,1,1,1-2.82c51.73,18.65,94.51,39.74,123.72,61,30.36,22.07,44.3,43.19,40.3,61.08A1.49,1.49,0,0,1,826.11,259.37Z"/><path d="M618.32,298h-.16A1011.14,1011.14,0,0,1,502.83,279a1.5,1.5,0,1,1,.66-2.92,1011.63,1011.63,0,0,0,115,19,1.5,1.5,0,0,1-.15,3Z"/><path d="M693.37,302.19q-9.18,0-18.87-.29a1.5,1.5,0,0,1,.09-3c68.56,2.06,119.71-7.36,140.34-25.84a1.5,1.5,0,0,1,2,2.24C797.4,292.79,753.88,302.19,693.37,302.19Z"/><path d="M64.89,72a1.51,1.51,0,0,1-1.06-.44L60,67.69a1.5,1.5,0,1,1,2.13-2.12L66,69.4A1.5,1.5,0,0,1,64.89,72Z"/><path d="M78.29,85.34a1.53,1.53,0,0,1-1.07-.44L73.4,81.08A1.5,1.5,0,0,1,75.52,79l3.83,3.83a1.51,1.51,0,0,1,0,2.12A1.53,1.53,0,0,1,78.29,85.34Z"/><path d="M61.06,85.34A1.53,1.53,0,0,1,60,84.9a1.51,1.51,0,0,1,0-2.12L63.83,79A1.5,1.5,0,0,1,66,81.08L62.13,84.9A1.53,1.53,0,0,1,61.06,85.34Z"/><path d="M74.46,72a1.51,1.51,0,0,1-1.06-.44,1.49,1.49,0,0,1,0-2.12l3.82-3.83a1.5,1.5,0,0,1,2.13,2.12l-3.83,3.83A1.51,1.51,0,0,1,74.46,72Z"/><path d="M502.54,161.38a1.47,1.47,0,0,1-1.06-.44l-3.07-3.06a1.5,1.5,0,0,1,2.12-2.13l3.07,3.07a1.49,1.49,0,0,1,0,2.12A1.45,1.45,0,0,1,502.54,161.38Z"/><path d="M513.3,172.13a1.53,1.53,0,0,1-1.07-.44l-3.07-3.07a1.51,1.51,0,0,1,0-2.12,1.49,1.49,0,0,1,2.12,0l3.08,3.07a1.51,1.51,0,0,1,0,2.12A1.53,1.53,0,0,1,513.3,172.13Z"/><path d="M499.47,172.13a1.51,1.51,0,0,1-1.06-.44,1.49,1.49,0,0,1,0-2.12l3.07-3.07a1.5,1.5,0,0,1,2.12,2.12l-3.07,3.07A1.51,1.51,0,0,1,499.47,172.13Z"/><path d="M510.22,161.38a1.47,1.47,0,0,1-1.06-.44,1.51,1.51,0,0,1,0-2.12l3.07-3.07a1.51,1.51,0,1,1,2.13,2.13l-3.08,3.06A1.45,1.45,0,0,1,510.22,161.38Z"/><path class="cls-7" d="M738.55,100a6.69,6.69,0,1,1,6.69,6.68A6.69,6.69,0,0,1,738.55,100Z"/><path class="cls-8" d="M122.85,749.13a6.69,6.69,0,1,1,6.69,6.68A6.7,6.7,0,0,1,122.85,749.13Z"/><path d="M785.19,140a9.46,9.46,0,1,1,9.46-9.46A9.47,9.47,0,0,1,785.19,140Zm0-15.92a6.46,6.46,0,1,0,6.46,6.46A6.47,6.47,0,0,0,785.19,124Z"/><path d="M44.74,130a9.58,9.58,0,1,1,9.59-9.58A9.6,9.6,0,0,1,44.74,130Zm0-16.16a6.58,6.58,0,1,0,6.59,6.58A6.59,6.59,0,0,0,44.74,113.82Z"/><path d="M47.11,175.09a6.82,6.82,0,1,1,6.82-6.82A6.83,6.83,0,0,1,47.11,175.09Zm0-10.64a3.82,3.82,0,1,0,3.82,3.82A3.82,3.82,0,0,0,47.11,164.45Z"/><path d="M645.56,240.39a1.48,1.48,0,0,1-1.06-.44l-4.36-4.36a1.49,1.49,0,0,1,0-2.12,1.51,1.51,0,0,1,2.12,0l4.36,4.36a1.5,1.5,0,0,1-1.06,2.56Z"/><path d="M660.83,255.65a1.53,1.53,0,0,1-1.06-.44l-4.36-4.36a1.5,1.5,0,0,1,2.12-2.12l4.36,4.36a1.5,1.5,0,0,1,0,2.12A1.53,1.53,0,0,1,660.83,255.65Z"/><path d="M641.2,255.65a1.51,1.51,0,0,1-1.06-.44,1.49,1.49,0,0,1,0-2.12l4.36-4.36a1.5,1.5,0,1,1,2.12,2.12l-4.36,4.36A1.51,1.51,0,0,1,641.2,255.65Z"/><path d="M656.47,240.39a1.47,1.47,0,0,1-1.06-.44,1.49,1.49,0,0,1,0-2.12l4.36-4.36a1.52,1.52,0,0,1,2.13,0,1.5,1.5,0,0,1,0,2.12L657.53,240A1.47,1.47,0,0,1,656.47,240.39Z"/><path d="M572.61,137.3a1.51,1.51,0,0,1-.41-.06,1.49,1.49,0,0,1-1-1.85l27-95.7a1.5,1.5,0,1,1,2.88.82l-27,95.69A1.49,1.49,0,0,1,572.61,137.3Z"/><path d="M584.21,146.29a1.45,1.45,0,0,1-1.07-.46,1.5,1.5,0,0,1,0-2.12l54.25-52.46a1.5,1.5,0,0,1,2.09,2.16l-54.25,52.46A1.51,1.51,0,0,1,584.21,146.29Z"/><path d="M556.39,114.61a1.5,1.5,0,0,1-1.5-1.48l-1.22-64a1.5,1.5,0,0,1,1.47-1.53A1.54,1.54,0,0,1,556.67,49l1.22,64a1.51,1.51,0,0,1-1.48,1.53Z"/><path class="cls-8" d="M116.42,728.22a4.28,4.28,0,1,1,4.28,4.27A4.27,4.27,0,0,1,116.42,728.22Z"/></g></g></g></svg>