<svg height="30px" width="30px" xmlns="http://www.w3.org/2000/svg" viewBox="0 0 700.78 683.7"><defs><style>.cls-1{fill:#191717;}</style></defs><g id="Layer_2" data-name="Layer 2"><g id="Layer_1-2" data-name="Layer 1"><path class="cls-1" d="M652.47,175.25A347.41,347.41,0,0,0,525.5,48.3Q445.29,1.5,350.39,1.5T175.25,48.3a347.5,347.5,0,0,0-126.95,127Q1.5,255.46,1.5,350.38q0,114,66.54,205.09t172,126c8.17,1.53,14.24.47,18.16-3.15a17.8,17.8,0,0,0,5.91-13.64c0-.9-.09-9.07-.22-24.54s-.25-28.91-.25-40.42l-10.43,1.82c-6.66,1.23-15.08,1.74-25.2,1.58A191.19,191.19,0,0,1,196.38,600a70.33,70.33,0,0,1-30.44-13.61,57.5,57.5,0,0,1-20-27.94L141.41,548c-3-7-7.79-14.67-14.3-23.17q-8.79-11.4-17.72-16.25a46.89,46.89,0,0,1-4.64-2.85l-.59-.42a34,34,0,0,1-5.9-5.47,24.08,24.08,0,0,1-4.09-6.35c-.89-2.12-.16-3.86,2.26-5.22a16.63,16.63,0,0,1,6.1-1.68,40.87,40.87,0,0,1,11,.22l5.18.77q9.08,1.8,22.49,10.9a73.52,73.52,0,0,1,22,23.62q10.46,18.63,25.2,28.4t29.76,9.75a130.53,130.53,0,0,0,25.9-2.26,90.91,90.91,0,0,0,20.44-6.81q4.08-30.46,22.25-46.8a309.2,309.2,0,0,1-46.56-8.19,183.59,183.59,0,0,1-42.69-17.73A122.18,122.18,0,0,1,160.93,448q-14.51-18.17-23.82-47.7T127.8,332.2q0-55,35.88-93.6-16.83-41.32,3.19-92.65,13.14-4.11,39.06,6.13t37.92,17.48q12.06,7.26,19.31,12.28a328.05,328.05,0,0,1,174.46,0l17.26-10.92q17.67-10.9,41.79-20t36.81-5q20.41,51.35,3.62,92.68Q573,277.23,573,332.2q0,38.6-9.31,68.37T539.6,448.26a127,127,0,0,1-36.8,30.22,185.1,185.1,0,0,1-42.69,17.7,309.43,309.43,0,0,1-46.56,8.19q23.61,20.46,23.61,64.5v95.86a18.09,18.09,0,0,0,5.68,13.61c3.79,3.62,9.75,4.71,17.94,3.18q105.4-35,171.93-126.08t66.57-205.08Q699.24,255.45,652.47,175.25Z"/><path class="cls-1" d="M246.66,683.7a38.39,38.39,0,0,1-6.94-.7l-.2,0C169.3,659.66,111.2,617.07,66.83,556.36S0,426.35,0,350.38C0,287.12,15.81,227.94,47,174.5A350.62,350.62,0,0,1,174.5,47C228,15.81,287.13,0,350.39,0S472.81,15.81,526.26,47A350.5,350.5,0,0,1,653.77,174.5h0c31.16,53.44,47,112.61,47,175.86,0,76-22.5,145.28-66.86,206S531.52,659.62,461.25,683l-.19,0c-8.62,1.61-15.1.4-19.25-3.58a19.53,19.53,0,0,1-6.15-14.69V568.87c0-28.77-7.77-50.09-23.09-63.37L410,503.24l3.43-.36a309,309,0,0,0,46.33-8.16,184.07,184.07,0,0,0,42.35-17.55,126.07,126.07,0,0,0,36.37-29.86c9.66-11.71,17.67-27.59,23.8-47.19s9.24-42.46,9.24-67.92c0-36.09-11.94-67.23-35.48-92.55l-.65-.7.36-.89c10.92-26.86,9.79-57.44-3.36-90.88-8.12-2.31-19.94-.57-35.15,5.16a243.82,243.82,0,0,0-41.53,19.85l-17.82,11.27-.64-.18a326.67,326.67,0,0,0-173.65,0l-.67.19-.58-.39c-5.09-3.5-11.56-7.61-19.23-12.24-8.07-4.84-20.76-10.68-37.7-17.37-16.45-6.48-29-8.59-37.38-6.29-12.89,33.42-13.87,64-2.93,90.85l.36.89-.65.7C141.24,265,129.3,296.11,129.3,332.2c0,25.45,3.11,48.23,9.24,67.69s14,35.25,23.56,47.22a121.43,121.43,0,0,0,36.15,30,182.73,182.73,0,0,0,42.34,17.58,309.21,309.21,0,0,0,46.33,8.16l3.35.35-2.5,2.26c-11.78,10.61-19.1,26-21.77,45.88l-.1.81-.74.35a93.34,93.34,0,0,1-20.77,6.92,132.46,132.46,0,0,1-26.21,2.29c-10.25,0-20.54-3.36-30.58-10S169,535.39,161.91,522.83a72.09,72.09,0,0,0-21.56-23.12c-8.74-5.92-16.12-9.51-21.94-10.66l-5.11-.77a39.4,39.4,0,0,0-10.59-.21,15.15,15.15,0,0,0-5.53,1.49c-2.27,1.27-2,2.39-1.62,3.34a22.46,22.46,0,0,0,3.83,5.94,32.17,32.17,0,0,0,5.65,5.24l.58.41a43.18,43.18,0,0,0,4.48,2.76c6.1,3.3,12.22,8.9,18.2,16.65,6.68,8.72,11.41,16.4,14.48,23.49l4.6,10.57a56.24,56.24,0,0,0,19.47,27.22,69.18,69.18,0,0,0,29.79,13.33A190,190,0,0,0,228,601.67a130.31,130.31,0,0,0,24.91-1.56l12.2-2.12v1.78c0,11.43.09,25,.25,40.41q.11,12.17.16,18.31.06,5.6.06,6.24a19.27,19.27,0,0,1-6.4,14.74C256.12,682.28,251.93,683.7,246.66,683.7Zm-6.29-3.63c7.59,1.4,13.23.46,16.76-2.8a16.22,16.22,0,0,0,5.43-12.54q0-.65-.05-6.21-.06-6.16-.17-18.31c-.16-14.6-.24-27.59-.25-38.65l-8.67,1.51a134.71,134.71,0,0,1-25.49,1.6,192.72,192.72,0,0,1-31.82-3.21A72.11,72.11,0,0,1,165,587.57,59.28,59.28,0,0,1,144.56,559L140,548.59c-2.93-6.78-7.68-14.46-14.11-22.86-5.72-7.41-11.52-12.75-17.25-15.84a47.29,47.29,0,0,1-4.78-2.95l-.6-.42a35.16,35.16,0,0,1-6.17-5.72,25.65,25.65,0,0,1-4.33-6.73c-.7-1.66-1.25-4.79,2.91-7.12a17.89,17.89,0,0,1,6.64-1.86,42.62,42.62,0,0,1,11.41.23l5.17.77c6.29,1.25,14,5,23.11,11.14a75.18,75.18,0,0,1,22.48,24.1c6.83,12.17,15.15,21.55,24.74,27.91s19.28,9.5,28.93,9.5a129.34,129.34,0,0,0,25.6-2.23,90.05,90.05,0,0,0,19.36-6.35c2.66-18.83,9.47-33.83,20.25-44.65a306.71,306.71,0,0,1-43.57-7.89,185.66,185.66,0,0,1-43-17.86,124.43,124.43,0,0,1-37-30.78c-9.78-12.25-17.88-28.47-24.08-48.19S126.3,358,126.3,332.2c0-36.54,12-68.13,35.64-93.92-10.94-27.57-9.75-58.81,3.53-92.87l.26-.67.69-.22c9.15-2.87,22.26-.85,40.06,6.16,17.1,6.74,29.93,12.66,38.14,17.59,7.44,4.48,13.76,8.5,18.81,11.94a329.53,329.53,0,0,1,174,0l16.7-10.57a247,247,0,0,1,42.06-20.12c16.29-6.13,29-7.82,37.79-5l.68.22.26.66c13.55,34.08,14.89,65.34,4,92.91,23.65,25.76,35.64,57.34,35.64,93.89,0,25.77-3.16,48.92-9.38,68.81s-14.43,36.19-24.34,48.2a129.17,129.17,0,0,1-37.23,30.58,187.68,187.68,0,0,1-43,17.84A307.3,307.3,0,0,1,417,505.5c14.37,14,21.66,35.26,21.66,63.37v95.86a16.68,16.68,0,0,0,5.22,12.53c3.4,3.25,9,4.2,16.53,2.81C530,656.93,587.59,614.7,631.5,554.56s66.28-128.86,66.28-204.2c0-62.71-15.71-121.37-46.6-174.35h0A347.6,347.6,0,0,0,524.75,49.6C471.76,18.68,413.1,3,350.39,3S229,18.68,176,49.6A347.32,347.32,0,0,0,49.6,176C18.68,229,3,287.65,3,350.38c0,75.32,22.29,144,66.25,204.21S170.8,657,240.37,680.07Z"/></g></g></svg>