<svg height="30px" width="30px" xmlns="http://www.w3.org/2000/svg" viewBox="0 0 61.44 61.44"><defs><style>.cls-1{fill:#0072b4;}.cls-2{fill:#fff;fill-rule:evenodd;}</style></defs><g id="Layer_2" data-name="Layer 2"><g id="Capa_1" data-name="Capa 1"><circle class="cls-1" cx="30.72" cy="30.72" r="30.72" transform="translate(-6.24 53.56) rotate(-76.72)"/><path class="cls-2" d="M22.31,46.09H16V25.6h6.34V46.09Zm-3.2-23.18h0a3.78,3.78,0,1,1,3.75-3.78,3.76,3.76,0,0,1-3.75,3.78Zm27,23.18H39.77V35.33c0-2.95-1.12-4.59-3.46-4.59-2.53,0-3.86,1.71-3.86,4.59V46.09H26.37V25.6h6.08v2.76A7.14,7.14,0,0,1,38.62,25c4.35,0,7.46,2.66,7.46,8.14Z"/></g></g></svg>