<svg xmlns="http://www.w3.org/2000/svg" viewBox="0 0 208.37 189.22"><defs><style>.cls-1{fill:#fff;}.cls-2{fill:#1a1a1a;}.cls-3{fill:#516b75;}.cls-4{fill:#e9c46a;}</style></defs><g id="Layer_2" data-name="Layer 2"><g id="Layer_1-2" data-name="Layer 1"><rect class="cls-1" x="125.08" y="43.27" width="82.97" height="54.45" rx="8.07"/><path class="cls-2" d="M200.56,43.27h-68a7.51,7.51,0,0,0-7.49,7.49v.46h83v-.46A7.52,7.52,0,0,0,200.56,43.27Z"/><rect class="cls-2" x="154.64" y="143.69" width="53.15" height="38.68" rx="9.04"/><path class="cls-3" d="M152.27,111.66l-2.85,8.69s-2.64-8.8-10.07-11.66-11.5-2-11.5-2,2.2-1.52,1.92-3.45-3.48-3.47-3.48-3.47l-12.17.44s-2.85,1.06-3,3.19a3.79,3.79,0,0,0,1.52,3.29s-6.53-.33-10.32,1.4-9,3.81-11.84,12.27a73,73,0,0,0-3.07,18.08l-12.75,3.24s-3.61,2.18-3.06,3.56l2.61,14.42s2.78,12.06,11.71,12,11.24-6.59,11.24-6.59-2.54,18.9-4.55,23.8h55s-4.06-15.59-5.3-28.15c0,0-1.25-9.71-.65-13.55,0,0,1.16,10.44,8.58,12.19s11.94-2.43,14.54-8.58,4.14-17.38,4.68-20.74,2.41-15.45,2.41-15.45.36-2.55-8.75-3.85S153,109.7,152.27,111.66Z"/><rect class="cls-1" x="42.54" y="92.57" width="65.83" height="45.79" rx="8.07"/><circle class="cls-4" cx="74.66" cy="45.18" r="15.93"/><path class="cls-2" d="M110,88.34s-2.45-9.46,2.09-10.77a13.53,13.53,0,0,1,3.54-2.73s-4.26-5.22-3.2-8.07,4-3.56,7.67-3.6S127.76,64.24,128,67s-3.41,7.72-3.41,7.72,5.32,1.36,5.56,5.79a31.13,31.13,0,0,1-.36,7.36l-1.23.91-17.64,1.07Z"/><path class="cls-1" d="M128.33,94.71s4.87,1.5,5-3.1c0,0-.34-3.88-4.52-2.8l-.22-.91s-3.48.62-7.61-2.28a74.3,74.3,0,0,1-6.4-4.94,58.08,58.08,0,0,1-2.81,6V88.9s-4-1.23-4.67,2.71c0,0,0,3.13,2.53,3.37s2.39-.46,2.39-.46.58,4.84,3.28,6.24l-.26,3.55a7.17,7.17,0,0,0,5.53,1.32c3.63-.43,4.75-1.4,4.75-1.4l-.2-3.47A8.81,8.81,0,0,0,128.33,94.71Z"/><path class="cls-1" d="M155.61,114s2.08-4.71,1.86-5.78-2.3-3.41-3.33-4.27a2,2,0,0,1,0-3.18c1-.59,2.68,0,4.25,1.37s3.53,3.48,4.24,3.45c0,0,5.42-4.08,7.72-4.67s3.39-.72,4,.23c0,0,1.92.1,2.36,1.46,0,0,1.63-.33,2.22.66s-.22,2.92-2.13,4.25a25.71,25.71,0,0,1-7,3.58c-2.12.56-3,5.33-3,5.33S159.7,116.23,155.61,114Z"/><path class="cls-1" d="M87.15,143,85.78,138s2.07-2.53.87-7.53-4.53-4-4.53-4a66.14,66.14,0,0,1-2.63-7.6c-.59-2.63-2.26-5.81-4.46-5.38s-2.51,3.94-1.85,6.69,2.11,6.74,2.11,6.74-2.49-2.15-3.43-2.08-2.84.85-3.35,2a11.14,11.14,0,0,0-.68,2.37,3.8,3.8,0,0,0-1.92,2.88c-.06,1.88,1.24,3.87,6.2,6.88a4.38,4.38,0,0,0,3.5,2.87l.73,4.43a28.12,28.12,0,0,0,5.78-1.21C84.68,144.17,87.15,143,87.15,143Z"/><path class="cls-4" d="M203.13,98.65l-14.69-9.09a.9.9,0,0,0-1.38.82l.84,17.24a.91.91,0,0,0,1.37.74l4-2.34a.9.9,0,0,1,1.24.32l5.77,9.79a.92.92,0,0,0,1.25.32l3.14-1.85a.92.92,0,0,0,.32-1.25l-5.77-9.78a.91.91,0,0,1,.32-1.25l3.6-2.12A.9.9,0,0,0,203.13,98.65Z"/><path class="cls-2" d="M73.59,62.88v6.26s.56,3.12,4.64,3.12,5-2.78,5-2.78l.2-6.59S79.38,64.74,73.59,62.88Z"/><path class="cls-4" d="M82,111a6.54,6.54,0,1,1-6.54-6.53A6.53,6.53,0,0,1,82,111Z"/><path class="cls-4" d="M203.76,47.17a2.32,2.32,0,1,1-2.32-2.31A2.32,2.32,0,0,1,203.76,47.17Z"/><path class="cls-1" d="M196.87,47.17a2.32,2.32,0,1,1-2.32-2.31A2.32,2.32,0,0,1,196.87,47.17Z"/><path class="cls-1" d="M190,47.17a2.32,2.32,0,1,1-2.31-2.31A2.31,2.31,0,0,1,190,47.17Z"/><path class="cls-2" d="M74.33,141.67l1.12.25,1.08,4.45s-4.7.14-5-1.14S74.33,141.67,74.33,141.67Z"/><path class="cls-2" d="M86.05,138.78l1.1,4.24s4.19-2.17,3.21-3.8S86.05,138.78,86.05,138.78Z"/><path class="cls-2" d="M156.89,110s-.63,3.59-1.28,4-3.68-1.38-3.17-2.84S156.89,110,156.89,110Z"/><path class="cls-2" d="M168.43,111.87s-1.57,3.23-1.42,4.53c0,0,4.59,0,4.87-1.77C172.09,113.21,168.43,111.87,168.43,111.87Z"/><path class="cls-2" d="M56.56,103.74a2.65,2.65,0,1,1-2.65-2.65A2.65,2.65,0,0,1,56.56,103.74Z"/><path class="cls-2" d="M105.41,116.13a2.65,2.65,0,1,1-2.65-2.65A2.65,2.65,0,0,1,105.41,116.13Z"/><rect class="cls-4" x="135.45" y="57.87" width="12.88" height="12.88"/><path class="cls-1" d="M129.78,87.91a31.13,31.13,0,0,0,.36-7.36c-.24-4.43-5.56-5.79-5.56-5.79S128.22,69.84,128,67c-.2-2.37-3.08-3.52-6.16-3.8,1.63,1.86,4.9,6.64-.17,11a7,7,0,0,1,4.14,7.45c-.75,5.52-9,1.19-9,1.19l4.83,6.33,6.91-.42Z"/><path class="cls-1" d="M170.91,172.21a.32.32,0,0,1-.22-.1l-8.4-8.89a.31.31,0,0,1,0-.44l8.4-8.4a.31.31,0,0,1,.44,0,.3.3,0,0,1,0,.44L163,163l8.19,8.67a.31.31,0,0,1,0,.44A.31.31,0,0,1,170.91,172.21Z"/><path d="M155.55,114.48a.28.28,0,0,1-.13,0,.31.31,0,0,1-.16-.41c1-2.1,2.31-5.73,1.8-6.56a10,10,0,0,0-2.17-2.38l-.81-.72c-1.51-1.48-1.15-2.63-.93-3a2.31,2.31,0,0,1,2.52-1c1.88.39,4.15,2.61,6,4.4l.16.16c1.05,1,4.8,1,6.16.94a.33.33,0,0,1,.33.29.32.32,0,0,1-.29.34c-.21,0-5.17.31-6.64-1.12l-.16-.16c-1.67-1.64-4-3.88-5.67-4.24a1.69,1.69,0,0,0-1.84.68c-.33.63,0,1.48.82,2.31.24.24.5.46.78.7a10.66,10.66,0,0,1,2.29,2.52c.84,1.36-1.32,6.19-1.76,7.15A.31.31,0,0,1,155.55,114.48Z"/><path d="M166.84,116.78a.32.32,0,0,1-.3-.36c0-.21.79-5,3.2-5.58s8.41-3.51,9-6.5a1,1,0,0,0-.29-1,1.79,1.79,0,0,0-1.73-.25,65.38,65.38,0,0,0-6.55,3.41.34.34,0,0,1-.2,0c-.05,0-5.19-.62-7.47,1.86a.31.31,0,0,1-.44,0,.3.3,0,0,1,0-.44c2.34-2.53,7.11-2.15,7.9-2.06a61.44,61.44,0,0,1,6.6-3.42,2.41,2.41,0,0,1,2.33.39,1.64,1.64,0,0,1,.48,1.61c-.75,3.49-7.48,6.5-9.51,7-1.67.39-2.54,3.79-2.74,5.06A.3.3,0,0,1,166.84,116.78Z"/><path d="M165.54,106.46a.3.3,0,0,1-.26-.15.31.31,0,0,1,.1-.43c.84-.51,8.2-5,9.69-4.85a2.1,2.1,0,0,1,1.91,1.69.31.31,0,0,1-.25.36.32.32,0,0,1-.36-.26,1.51,1.51,0,0,0-1.36-1.17c-.95-.1-6.22,2.87-9.3,4.76A.26.26,0,0,1,165.54,106.46Z"/><path d="M162.47,105.94a.31.31,0,0,1-.26-.14.3.3,0,0,1,.09-.43c.13-.08,3.19-2.09,3.91-2.48.35-.19.77-.43,1.22-.7,1.55-.92,3.48-2.06,4.89-2.13,1.94-.1,2.35,1.14,2.36,1.19a.31.31,0,1,1-.6.17s-.27-.8-1.72-.74c-1.27.07-3.2,1.21-4.62,2-.46.27-.88.52-1.23.71-.7.38-3.84,2.43-3.87,2.45A.26.26,0,0,1,162.47,105.94Z"/><path d="M203,189.22H42.54a.31.31,0,1,1,0-.62H203a.31.31,0,0,1,0,.62Z"/><path d="M115.78,88.82c.25,0,.42.07.49,1s-.18,1.18-.41,1.17-.45-.32-.44-1S115.45,88.87,115.78,88.82Z"/><path d="M124.33,88.91c.25,0,.42.07.46,1s-.21,1.18-.43,1.16-.44-.33-.41-1S124,89,124.33,88.91Z"/><path d="M110.31,95.37h-.23a3.57,3.57,0,0,1,.45-7.12,3.82,3.82,0,0,1,1.1.25.31.31,0,0,1,.17.4.31.31,0,0,1-.4.18,2.61,2.61,0,0,0-.91-.2,2.94,2.94,0,1,0,1.17,5.54A.31.31,0,1,1,112,95,3.49,3.49,0,0,1,110.31,95.37Z"/><path d="M109.59,93.77a.31.31,0,0,1-.19-.56l1.87-1.44-2.09-1.55a.31.31,0,0,1-.07-.43.32.32,0,0,1,.44-.07L112,91.51a.31.31,0,0,1,.13.25A.33.33,0,0,1,112,92l-2.2,1.7A.33.33,0,0,1,109.59,93.77Z"/><path d="M130,95.37a3.49,3.49,0,0,1-1.64-.4.31.31,0,0,1,.29-.55,2.86,2.86,0,0,0,1.54.32,2.94,2.94,0,1,0-.37-5.86,2.86,2.86,0,0,0-1,.22.3.3,0,0,1-.41-.16.31.31,0,0,1,.16-.41,3.64,3.64,0,0,1,1.17-.28,3.57,3.57,0,0,1,.45,7.12Z"/><path d="M130.76,93.77a.33.33,0,0,1-.19-.06L128.38,92a.31.31,0,0,1,0-.5l2.43-1.79a.31.31,0,0,1,.43.07.31.31,0,0,1-.06.43l-2.1,1.55L131,93.21a.31.31,0,0,1-.19.56Z"/><path d="M153.55,160.17c-.33,0-.67,0-1,0-5.36-.42-11.05-4.59-10.94-15a.31.31,0,0,1,.31-.31.33.33,0,0,1,.31.32c-.1,10,5.29,14,10.37,14.4,11.38.89,14-14.24,14.88-19.21,1.26-7.25,4.08-25.33,4.11-25.52a.31.31,0,0,1,.35-.26.32.32,0,0,1,.26.36c0,.18-2.84,18.27-4.1,25.53C167.22,145.37,164.64,160.17,153.55,160.17Z"/><path d="M145.18,140.85a.32.32,0,0,1-.31-.34,83.11,83.11,0,0,1,1.83-11.1,156.19,156.19,0,0,1,5.45-18.33.31.31,0,1,1,.58.23,153.48,153.48,0,0,0-5.43,18.24,82.33,82.33,0,0,0-1.81,11A.31.31,0,0,1,145.18,140.85Z"/><path d="M120.17,102.37a9,9,0,0,1-5.59-1.72c-1.38-1.09-2.29-2.85-2.79-5.37a69,69,0,0,1-.37-8.64.3.3,0,0,1,.31-.3.31.31,0,0,1,.32.31,66.76,66.76,0,0,0,.36,8.51,8,8,0,0,0,2.56,5,8.39,8.39,0,0,0,5.2,1.59.31.31,0,1,1,0,.62Z"/><path d="M120.17,102.37a.31.31,0,0,1,0-.62,8.42,8.42,0,0,0,5.21-1.59,8.12,8.12,0,0,0,2.56-5,50.09,50.09,0,0,0,.31-7.25.33.33,0,0,1,.31-.32.31.31,0,0,1,.32.31,52.23,52.23,0,0,1-.33,7.38,8.65,8.65,0,0,1-2.78,5.37A9,9,0,0,1,120.17,102.37Z"/><path d="M128.15,88.23c-5.94,0-12-5.57-13.59-7.09-.39,1.24-1.48,4.46-2.59,5.72a.31.31,0,0,1-.44,0,.31.31,0,0,1,0-.44c1.27-1.44,2.6-5.93,2.62-6a.31.31,0,0,1,.22-.22.33.33,0,0,1,.3.09c.07.08,7.31,7.56,13.89,7.26a.33.33,0,0,1,.33.3.32.32,0,0,1-.3.33Z"/><path d="M115.05,104.43a.32.32,0,0,1-.31-.34c.16-1.75.21-3.32.21-3.34a.32.32,0,0,1,.63,0s0,1.61-.22,3.38A.31.31,0,0,1,115.05,104.43Z"/><path d="M125.28,104.28A.32.32,0,0,1,125,104c-.15-1.7-.2-3.2-.2-3.22a.31.31,0,0,1,.62,0s0,1.5.2,3.18a.3.3,0,0,1-.28.34Z"/><path d="M110.1,88.87a.32.32,0,0,1-.3-.22c-.08-.26-1.93-6.41,0-9.63a3.71,3.71,0,0,1,2.4-1.78A8.54,8.54,0,0,1,117.32,74c4.3-.76,11.09.31,12.75,5,.75,2.12.75,4.54,0,9.25a.32.32,0,0,1-.36.26.3.3,0,0,1-.26-.35c.72-4.6.72-6.94,0-8.95-1.54-4.38-8-5.35-12-4.63a8,8,0,0,0-4.82,3.06.3.3,0,0,1-.2.13,3.06,3.06,0,0,0-2.11,1.52c-1.76,3,.08,9.06.1,9.13a.32.32,0,0,1-.21.39Z"/><path d="M92.58,189.22a.35.35,0,0,1-.14,0,.31.31,0,0,1-.14-.42c1.57-3.19,7.66-35,5.65-44.06-2-9.29,1.24-18.54,1.28-18.63a.31.31,0,1,1,.58.21c0,.09-3.25,9.18-1.25,18.28s-4.11,41.26-5.7,44.48A.3.3,0,0,1,92.58,189.22Z"/><path d="M147.62,189.22a.3.3,0,0,1-.28-.17c-1.59-3.22-7.73-35.28-5.7-44.48s-1.22-18.19-1.25-18.28a.31.31,0,1,1,.58-.21c0,.09,3.32,9.34,1.28,18.63-2,9.11,4.08,40.87,5.65,44.06a.31.31,0,0,1-.14.42A.35.35,0,0,1,147.62,189.22Z"/><path d="M166.82,116.75a30.32,30.32,0,0,1-5.25-.5c-4.62-.84-8.45-2.48-9.31-4a1.17,1.17,0,0,1-.13-1c.62-1.69,3.06-1.7,5-1.41a.31.31,0,0,1,.26.35.32.32,0,0,1-.36.27c-1.4-.21-3.83-.36-4.33,1a.61.61,0,0,0,.09.52c.75,1.32,4.57,2.91,8.88,3.69,5.55,1,9.66.35,9.88-.86.1-.55-.91-1.63-3-2.6a.32.32,0,0,1-.15-.41.31.31,0,0,1,.41-.16c1.78.81,3.61,2.1,3.4,3.29S169.69,116.75,166.82,116.75Z"/><path d="M86.85,172.05a11.19,11.19,0,0,1-6.35-1.86c-4.73-3.16-6.57-9.56-7.24-13.09-.28-1.5-.63-3.59-1-5.8-.32-1.94-.66-4-1-6a.32.32,0,0,1,.26-.36.31.31,0,0,1,.36.25c.35,2,.69,4.08,1,6,.36,2.21.7,4.3,1,5.78.66,3.44,2.43,9.66,7,12.69a11.5,11.5,0,0,0,9.07,1.42,9.06,9.06,0,0,0,7.36-8,.31.31,0,0,1,.35-.26.31.31,0,0,1,.27.35A9.83,9.83,0,0,1,90,171.7,15.64,15.64,0,0,1,86.85,172.05Z"/><path d="M96.33,156.69a.33.33,0,0,1-.3-.22c-2.9-9-5.84-16.89-5.87-17a.31.31,0,0,1,.18-.4.32.32,0,0,1,.41.18c0,.08,3,7.95,5.88,17a.31.31,0,0,1-.2.39Z"/><path d="M74.81,146.68c-1.88,0-3.25-.4-3.54-1.35a.31.31,0,0,1,.21-.39.31.31,0,0,1,.39.2c.35,1.18,4.51,1.35,9.91-.28,4.19-1.27,7.81-3.28,8.41-4.68a.6.6,0,0,0,0-.52c-.62-1.23-2.59-1-4.13-.58a.31.31,0,0,1-.38-.22.3.3,0,0,1,.22-.38c2.57-.69,4.2-.39,4.85.89a1.18,1.18,0,0,1,0,1c-.68,1.58-4.38,3.7-8.8,5A26.73,26.73,0,0,1,74.81,146.68Z"/><path d="M71.57,145.55a.32.32,0,0,1-.3-.22c-.33-1.1,1.4-2.85,3.19-3.93a.31.31,0,0,1,.43.11.32.32,0,0,1-.1.43c-1.89,1.13-3.1,2.63-2.92,3.2a.32.32,0,0,1-.21.39Z"/><path d="M113.62,87.86a.18.18,0,0,1-.1,0,.31.31,0,0,1-.19-.4c.56-1.54,2.7-2,4-1.7a.32.32,0,0,1,.24.38.31.31,0,0,1-.37.23c-1-.23-2.83.16-3.24,1.31A.33.33,0,0,1,113.62,87.86Z"/><path d="M120.61,98a4.55,4.55,0,0,1-1.36-.2.31.31,0,1,1,.19-.59,3.36,3.36,0,0,0,2.5-.18,2.28,2.28,0,0,0,.86-1.85.31.31,0,1,1,.62,0,2.84,2.84,0,0,1-1.13,2.32A2.93,2.93,0,0,1,120.61,98Z"/><path d="M118,95a.28.28,0,0,1-.21-.08,3.24,3.24,0,0,1-1.1-1.9,1.2,1.2,0,0,1,.35-.9,1.33,1.33,0,0,1,1-.43,2,2,0,0,1,1.06.36c.19-1.72.32-4.13,0-4.66a.3.3,0,0,1,.08-.43.31.31,0,0,1,.44.09c.62,1,.15,4.85.05,5.63a.32.32,0,0,1-.53.18,1.81,1.81,0,0,0-1.08-.55.73.73,0,0,0-.54.24.55.55,0,0,0-.18.45,2.72,2.72,0,0,0,.89,1.46.31.31,0,0,1,0,.44A.3.3,0,0,1,118,95Z"/><path d="M113.47,79.48a.29.29,0,0,1-.25-.13l-1-1.42a.31.31,0,0,1,.07-.43.32.32,0,0,1,.44.07l1,1.42a.32.32,0,0,1-.08.44A.29.29,0,0,1,113.47,79.48Z"/><path class="cls-2" d="M22.53,150.89a1.36,1.36,0,1,0-1.36-1.36A1.36,1.36,0,0,0,22.53,150.89Z"/><path class="cls-2" d="M33.09,151a1.43,1.43,0,1,0-1.43-1.43A1.43,1.43,0,0,0,33.09,151Z"/><path class="cls-2" d="M43.66,150.85a1.32,1.32,0,1,0-1.32-1.32A1.32,1.32,0,0,0,43.66,150.85Z"/><path class="cls-2" d="M22.53,161.53a1.43,1.43,0,1,0-1.43-1.43A1.43,1.43,0,0,0,22.53,161.53Z"/><path class="cls-2" d="M33.09,161.6a1.5,1.5,0,1,0-1.5-1.5A1.5,1.5,0,0,0,33.09,161.6Z"/><path class="cls-2" d="M43.66,161.49a1.4,1.4,0,1,0-1.39-1.39A1.39,1.39,0,0,0,43.66,161.49Z"/><path class="cls-2" d="M22.53,172a1.33,1.33,0,1,0-1.33-1.33A1.33,1.33,0,0,0,22.53,172Z"/><circle class="cls-2" cx="33.09" cy="170.66" r="1.39"/><path class="cls-2" d="M43.66,172a1.3,1.3,0,1,0-1.3-1.3A1.3,1.3,0,0,0,43.66,172Z"/><path class="cls-2" d="M1.43,150.89a1.36,1.36,0,1,0-1.36-1.36A1.36,1.36,0,0,0,1.43,150.89Z"/><path class="cls-2" d="M12,151a1.43,1.43,0,1,0-1.43-1.43A1.43,1.43,0,0,0,12,151Z"/><path class="cls-2" d="M22.56,150.85a1.32,1.32,0,1,0-1.32-1.32A1.33,1.33,0,0,0,22.56,150.85Z"/><path class="cls-2" d="M1.43,161.53A1.43,1.43,0,1,0,0,160.1,1.43,1.43,0,0,0,1.43,161.53Z"/><path class="cls-2" d="M12,161.6a1.5,1.5,0,1,0-1.5-1.5A1.51,1.51,0,0,0,12,161.6Z"/><path class="cls-2" d="M22.56,161.49a1.4,1.4,0,1,0-1.39-1.39A1.4,1.4,0,0,0,22.56,161.49Z"/><path class="cls-2" d="M1.43,172a1.33,1.33,0,1,0-1.32-1.33A1.33,1.33,0,0,0,1.43,172Z"/><circle class="cls-2" cx="12" cy="170.66" r="1.39"/><circle class="cls-2" cx="22.56" cy="170.66" r="1.3"/><path d="M79.41,72.57H77.53a4.25,4.25,0,0,1-4.25-4.24V63.17c0-.1,0-.2,0-.31a.31.31,0,0,1,.14-.23.29.29,0,0,1,.27,0,15.73,15.73,0,0,0,9.55,0,.3.3,0,0,1,.26,0,.31.31,0,0,1,.14.23c0,.1,0,.2,0,.3v5.16A4.25,4.25,0,0,1,79.41,72.57ZM73.9,63.31v5A3.63,3.63,0,0,0,77.53,72h1.88A3.63,3.63,0,0,0,83,68.33v-5A16.42,16.42,0,0,1,73.9,63.31Z"/><path d="M78.49,64A16.28,16.28,0,0,1,62.24,47.72,16.26,16.26,0,1,1,78.49,64Zm0-31.87A15.62,15.62,0,1,0,94.11,47.72,15.64,15.64,0,0,0,78.49,32.1Z"/><path d="M68.9,54.64l-.5,0a.31.31,0,0,1-.3-.32.32.32,0,0,1,.31-.3,4.64,4.64,0,0,0,3.2-.77,3.12,3.12,0,0,0,.52-.57,4.74,4.74,0,0,1-2-4.51c.06-.43.45-2.13,1.32-2.61a1,1,0,0,1,.93,0c.6.28.83,1.1,1,1.64l0,.12A7.5,7.5,0,0,1,73,52.46a10.42,10.42,0,0,0,5.24.92,10.24,10.24,0,0,0,3.31-.56,5.49,5.49,0,0,0,2.64-2l-.19-.1a3.19,3.19,0,0,1-1.7-2.28,3,3,0,0,1,.29-1.62,2,2,0,0,1,1.15-1.12,1.11,1.11,0,0,1,1,.15c.79.58.82,2.16.82,2.48a5,5,0,0,1-.51,2.21,14.86,14.86,0,0,0,5.23.66.31.31,0,1,1,0,.62,15.09,15.09,0,0,1-5.54-.73,6.07,6.07,0,0,1-3,2.32,10.87,10.87,0,0,1-3.51.61,11,11,0,0,1-5.59-1,3.53,3.53,0,0,1-.63.71A4.72,4.72,0,0,1,68.9,54.64ZM72,46a.41.41,0,0,0-.19.05,3.61,3.61,0,0,0-1,2.14,4.08,4.08,0,0,0,.8,3.05,4.33,4.33,0,0,0,.87.84,6.68,6.68,0,0,0,.62-2.8,6.86,6.86,0,0,0-.25-1.87l0-.12c-.11-.41-.3-1.09-.63-1.25A.74.74,0,0,0,72,46Zm12.14.21a.59.59,0,0,0-.21,0,1.39,1.39,0,0,0-.76.79,2.27,2.27,0,0,0-.24,1.27,2.58,2.58,0,0,0,1.38,1.82l.2.1a4.49,4.49,0,0,0,.47-2,2.86,2.86,0,0,0-.57-2A.45.45,0,0,0,84.11,46.25Z"/><path d="M200.22,98a.31.31,0,0,1,0-.62,7.36,7.36,0,0,0,7.52-7.18V78.46a.32.32,0,0,1,.63,0V90.23A8,8,0,0,1,200.22,98Z"/><path d="M124.8,62.07a.31.31,0,0,1-.31-.32v-11a8,8,0,0,1,8.14-7.8h67.59a8,8,0,0,1,8.15,7.8v10.9a.32.32,0,0,1-.63,0V50.76a7.36,7.36,0,0,0-7.52-7.18H132.63a7.37,7.37,0,0,0-7.52,7.18v11A.31.31,0,0,1,124.8,62.07Z"/><path d="M176.19,98H133.66a.31.31,0,0,1,0-.62h42.53a.31.31,0,0,1,0,.62Z"/><path d="M100.88,138.82h-9.5a.31.31,0,0,1,0-.62h9.5a7.18,7.18,0,0,0,7.17-7.18v-31a7.18,7.18,0,0,0-7.17-7.18H82a.31.31,0,1,1,0-.62h18.9a7.81,7.81,0,0,1,7.8,7.8v31A7.81,7.81,0,0,1,100.88,138.82Z"/><path d="M68.61,138.82H50a7.81,7.81,0,0,1-7.8-7.8v-31a7.81,7.81,0,0,1,7.8-7.8H62.51a.31.31,0,0,1,0,.62H50a7.19,7.19,0,0,0-7.18,7.18v31A7.19,7.19,0,0,0,50,138.2H68.61a.31.31,0,1,1,0,.62Z"/><path d="M75.45,127.61a.31.31,0,0,1-.28-.18c-2-4.56-3.5-10.6-1.89-13.1a2.46,2.46,0,0,1,2.17-1.16c2.78,0,3.79,3.62,4.87,7.44a25.07,25.07,0,0,0,2.07,5.7.31.31,0,0,1-.54.32,25.49,25.49,0,0,1-2.13-5.85c-1-3.59-2-7-4.25-7a1.82,1.82,0,0,0-1.66.87c-1.25,1.94-.44,7.2,1.93,12.5a.31.31,0,0,1-.16.41A.28.28,0,0,1,75.45,127.61Z"/><path d="M87.15,143.33a.31.31,0,0,1-.3-.23L85.48,138a.3.3,0,0,1,.11-.33c.75-.56,1.94-6.81-.42-10.11-1.21-1.7-7.91-.48-11.71,1.65-1.65.93-2.43,1.85-2.14,2.53a3.65,3.65,0,0,0,2.37,2.07c2.15.68,5.29,0,8-1.63a.31.31,0,0,1,.43.1.3.3,0,0,1-.1.43c-2.86,1.76-6.21,2.43-8.52,1.7A4.3,4.3,0,0,1,70.75,132c-.31-.73-.14-1.89,2.4-3.32,3.83-2.15,11-3.67,12.53-1.48,2.42,3.39,1.44,9.53.44,10.82l1.33,4.89a.3.3,0,0,1-.22.38Z"/><path d="M78.85,137.81a6.62,6.62,0,0,1-1.3-.14,13.57,13.57,0,0,1-5.34-2.79,19.35,19.35,0,0,1-3.27-3.19,4.86,4.86,0,0,1-1.31-3.2,3.27,3.27,0,0,1,.27-1.13c.59-1.4,2.07-2.86,3.64-2.83a3.72,3.72,0,0,1,2.23,1l.2.16c.83.63,1.43,1.12,2.16,1.73a.3.3,0,0,1,0,.43.31.31,0,0,1-.44,0c-.72-.6-1.32-1.08-2.14-1.71l-.21-.16a3.19,3.19,0,0,0-1.85-.91,3.84,3.84,0,0,0-3,2.45,2.88,2.88,0,0,0-.23.93,4.18,4.18,0,0,0,1.17,2.77,18.91,18.91,0,0,0,3.17,3.09,13.11,13.11,0,0,0,5.1,2.67,4.52,4.52,0,0,0,2.52-.1,2.57,2.57,0,0,0,1.25-.89,2.38,2.38,0,0,0-.16-2.64l-.08-.12-.18-.25a.32.32,0,1,1,.51-.37c.11.15.13.19.19.28l.08.13a2.85,2.85,0,0,1,.15,3.33,3.18,3.18,0,0,1-1.55,1.12A4.7,4.7,0,0,1,78.85,137.81Z"/><path d="M77.11,140.8l-.6,0a13.67,13.67,0,0,1-5.64-2.13,19.65,19.65,0,0,1-3.64-2.77,4.86,4.86,0,0,1-1.67-3,3.32,3.32,0,0,1,.13-1.16A4.28,4.28,0,0,1,67.8,129a.31.31,0,0,1,.28.56,3.68,3.68,0,0,0-1.79,2.36,2.84,2.84,0,0,0-.11.95,4.14,4.14,0,0,0,1.49,2.61,18.86,18.86,0,0,0,3.52,2.69,13,13,0,0,0,5.38,2,4.64,4.64,0,0,0,2.49-.39,2.62,2.62,0,0,0,1.13-1,1.6,1.6,0,0,0,.16-1.43.3.3,0,0,1,.19-.39.31.31,0,0,1,.4.19,2.18,2.18,0,0,1-.2,1.93,3.15,3.15,0,0,1-1.4,1.29A4.85,4.85,0,0,1,77.11,140.8Z"/><path d="M76.34,146.6a.31.31,0,0,1-.31-.24l-.88-4.17c-1.5-.42-2.47-1.47-3.54-3a.31.31,0,0,1,.08-.43.3.3,0,0,1,.43.08c1,1.49,2,2.48,3.37,2.82a.33.33,0,0,1,.23.24l.92,4.35a.31.31,0,0,1-.24.37Z"/><path d="M87.38,138.78a.3.3,0,0,1-.31-.3c0-.14-.25-14.4,5.88-23.82s19.9-8.24,20-8.22a.3.3,0,0,1,.28.34.3.3,0,0,1-.34.28c-.13,0-13.47-1.23-19.44,7.94s-5.79,23.32-5.79,23.46a.31.31,0,0,1-.3.32Z"/><path d="M149.42,120.67a.32.32,0,0,1-.3-.22,37.1,37.1,0,0,0-2.83-5.45c-6-9.18-18.28-8-18.4-8a.32.32,0,0,1-.35-.28.31.31,0,0,1,.28-.34c.13,0,12.81-1.21,19,8.29a36.23,36.23,0,0,1,2.9,5.6.3.3,0,0,1-.2.39Z"/><path class="cls-1" d="M53.91,105.94a2.2,2.2,0,1,1,2.2-2.2A2.2,2.2,0,0,1,53.91,105.94Zm0-3.78a1.58,1.58,0,1,0,1.57,1.58A1.58,1.58,0,0,0,53.91,102.16Z"/><path class="cls-1" d="M102.76,118.18a2.05,2.05,0,1,1,2-2.05A2,2,0,0,1,102.76,118.18Zm0-3.47a1.42,1.42,0,1,0,1.42,1.42A1.43,1.43,0,0,0,102.76,114.71Z"/><path d="M61.22,125.7a4.32,4.32,0,0,1-3-1.22.31.31,0,0,1,.42-.46,3.73,3.73,0,0,0,2.56,1h.16a.32.32,0,0,1,0,.63h-.17Zm3.22-.94a.31.31,0,0,1-.26-.14.33.33,0,0,1,.09-.44,8.19,8.19,0,0,0,2.2-2.2.3.3,0,0,1,.43-.08.32.32,0,0,1,.08.44,9,9,0,0,1-2.37,2.37A.34.34,0,0,1,64.44,124.76Zm-7.83-2.85a.31.31,0,0,1-.28-.18,19.68,19.68,0,0,1-1.14-3.1.31.31,0,1,1,.6-.17,18.44,18.44,0,0,0,1.1,3,.32.32,0,0,1-.15.42A.31.31,0,0,1,56.61,121.91Zm11.77-2.23a.42.42,0,0,1-.15,0,.31.31,0,0,1-.13-.42c.27-.52.53-1,.79-1.58s.44-.89.67-1.33a.31.31,0,0,1,.55.29q-.33.65-.66,1.32c-.26.53-.52,1.06-.79,1.59A.32.32,0,0,1,68.38,119.68Zm-13.61-4a.3.3,0,0,1-.3-.26c-.19-1-.34-2.1-.48-3.24a.32.32,0,0,1,.63-.07c.12,1.13.28,2.21.46,3.2a.32.32,0,0,1-.25.37ZM54,109.21a.32.32,0,0,1-.31-.29c-.11-1.86-.12-3.15-.12-3.29a.32.32,0,0,1,.63,0c0,.14,0,1.41.12,3.25a.31.31,0,0,1-.3.33Z"/><path d="M94.18,135.06a4.7,4.7,0,0,1-2.59-.83.32.32,0,0,1-.09-.43.32.32,0,0,1,.43-.09,4.11,4.11,0,0,0,2.86.68.31.31,0,0,1,.35.27.3.3,0,0,1-.26.35A5.36,5.36,0,0,1,94.18,135.06Zm3.48-1.51a.28.28,0,0,1-.22-.1.31.31,0,0,1,0-.44,9.66,9.66,0,0,0,1.82-2.55.31.31,0,0,1,.43-.13.31.31,0,0,1,.13.42,10.67,10.67,0,0,1-1.94,2.71A.31.31,0,0,1,97.66,133.55ZM89.47,132a.29.29,0,0,1-.25-.13,23.11,23.11,0,0,1-1.77-2.77.32.32,0,0,1,.12-.43.32.32,0,0,1,.43.12,22.15,22.15,0,0,0,1.72,2.71.32.32,0,0,1-.07.44A.3.3,0,0,1,89.47,132Zm11.31-4.1-.09,0a.3.3,0,0,1-.2-.39c.31-1,.6-2,.85-3.11a.31.31,0,0,1,.37-.24.32.32,0,0,1,.24.37c-.26,1.14-.55,2.21-.87,3.18A.31.31,0,0,1,100.78,127.91Zm-14.53-1.55a.3.3,0,0,1-.28-.17c-.46-1-.91-2-1.35-3a.31.31,0,0,1,.16-.41.31.31,0,0,1,.41.16c.44,1,.89,2,1.34,3a.3.3,0,0,1-.14.41A.35.35,0,0,1,86.25,126.36Zm16-4.79a.33.33,0,0,1-.31-.36c.28-1.88.37-3.21.37-3.22a.31.31,0,1,1,.62,0s-.08,1.36-.37,3.27A.31.31,0,0,1,102.23,121.57ZM83.6,120.42a.32.32,0,0,1-.29-.18c-.53-1.2-1-2.14-1.37-2.94a.32.32,0,0,1,.57-.28c.4.81.83,1.76,1.37,3a.32.32,0,0,1-.16.42Zm-2.94-5.8a.32.32,0,0,1-.27-.14q-.24-.39-.48-.72a.33.33,0,0,1,.07-.44.32.32,0,0,1,.44.07c.17.24.34.49.5.75a.31.31,0,0,1-.1.43A.24.24,0,0,1,80.66,114.62Z"/><path class="cls-1" d="M175.35,172.21a.27.27,0,0,1-.17-.06.31.31,0,0,1-.08-.43l11.65-17.29a.32.32,0,0,1,.44-.09.32.32,0,0,1,.08.44l-11.66,17.29A.31.31,0,0,1,175.35,172.21Z"/><path class="cls-1" d="M190.25,172.21a.31.31,0,0,1-.22-.09.31.31,0,0,1,0-.44l8.19-8.67L190,154.82a.3.3,0,0,1,0-.44.31.31,0,0,1,.44,0l8.4,8.4a.32.32,0,0,1,0,.44l-8.41,8.89A.32.32,0,0,1,190.25,172.21Z"/><path d="M204.73,51.53H128.55a.31.31,0,0,1,0-.62h76.18a.31.31,0,0,1,0,.62Z"/><path d="M201.44,49a1.83,1.83,0,1,1,1.83-1.83A1.83,1.83,0,0,1,201.44,49Zm0-3a1.21,1.21,0,1,0,1.21,1.2A1.21,1.21,0,0,0,201.44,46Z"/><path d="M194.55,49a1.83,1.83,0,1,1,1.83-1.83A1.83,1.83,0,0,1,194.55,49Zm0-3a1.21,1.21,0,1,0,1.21,1.2A1.2,1.2,0,0,0,194.55,46Z"/><path d="M187.67,49a1.83,1.83,0,1,1,1.83-1.83A1.83,1.83,0,0,1,187.67,49Zm0-3a1.21,1.21,0,1,0,1.2,1.2A1.21,1.21,0,0,0,187.67,46Z"/><path d="M115.67,75.16a.34.34,0,0,1-.24-.11c-.19-.22-4.66-5.49-3-9,.91-2,3.53-3,7.8-3s6.87,1,7.76,3c1.6,3.52-2.95,8.75-3.14,9a.31.31,0,0,1-.47-.41s4.47-5.14,3-8.3c-.78-1.73-3.2-2.61-7.19-2.61s-6.43.89-7.24,2.63c-1.46,3.19,2.9,8.32,3,8.37a.32.32,0,0,1-.24.52Z"/><path d="M196.4,114.15a1,1,0,0,1-.3,0,1.19,1.19,0,0,1-.75-.56l-5.77-9.79a.61.61,0,0,0-.82-.21l-4,2.34a1.22,1.22,0,0,1-1.2,0,1.25,1.25,0,0,1-.64-1l-.84-17.24a1.24,1.24,0,0,1,.6-1.12,1.21,1.21,0,0,1,1.26,0l14.68,9.09a1.21,1.21,0,0,1,0,2.08L195,99.86a.59.59,0,0,0-.21.81l5.77,9.79a1.19,1.19,0,0,1,.13.92,1.22,1.22,0,0,1-.56.75L197,114A1.23,1.23,0,0,1,196.4,114.15Zm-7.34-11.3a1.2,1.2,0,0,1,1.05.6l5.78,9.78a.59.59,0,0,0,.81.22l3.14-1.86a.59.59,0,0,0,.28-.36.54.54,0,0,0-.07-.45L194.28,101a1.23,1.23,0,0,1,.43-1.67l3.6-2.12a.63.63,0,0,0,.3-.51.6.6,0,0,0-.29-.51l-14.68-9.09a.59.59,0,0,0-.91.53l.85,17.25a.59.59,0,0,0,.31.5.6.6,0,0,0,.58,0l4-2.34A1.19,1.19,0,0,1,189.06,102.85Z"/><path d="M146.08,69.12H133.35a.31.31,0,0,1-.31-.32V56.08a.31.31,0,0,1,.31-.31h12.73a.31.31,0,0,1,.31.31V68.8A.31.31,0,0,1,146.08,69.12Zm-12.42-.63h12.11V56.39H133.66Z"/><path d="M143.91,87h-8.39a.31.31,0,0,1-.31-.31V78.26a.31.31,0,0,1,.31-.32h8.39a.31.31,0,0,1,.31.32v8.39A.31.31,0,0,1,143.91,87Zm-8.08-.62h7.77V78.57h-7.77Z"/><path d="M198.59,58.18H160a.31.31,0,1,1,0-.62h38.55a.31.31,0,1,1,0,.62Z"/><path d="M198.59,68H160a.31.31,0,1,1,0-.62h38.55a.31.31,0,1,1,0,.62Z"/><path d="M198.59,77.82H160a.32.32,0,1,1,0-.63h38.55a.32.32,0,1,1,0,.63Z"/><path d="M75.45,116.66A5.67,5.67,0,1,1,81.12,111,5.68,5.68,0,0,1,75.45,116.66Zm0-10.72a5,5,0,1,0,5,5A5.05,5.05,0,0,0,75.45,105.94Z"/><path d="M120.14,105.94c-5.88,0-6.31-2.78-6.33-2.9a.31.31,0,0,1,.27-.35.3.3,0,0,1,.35.27s.44,2.36,5.71,2.36,5.54-2.32,5.54-2.35a.33.33,0,0,1,.34-.28.31.31,0,0,1,.29.33C126.3,103.14,126,105.94,120.14,105.94Z"/><path d="M114.37,107.9l-.13,0c-2.17-1-3.46-2.67-3.46-4.48,0-1.06.61-2.55,3.52-3.6a.32.32,0,0,1,.4.19.3.3,0,0,1-.19.4c-2.06.75-3.11,1.76-3.11,3,0,1.56,1.16,3,3.1,3.92a.31.31,0,0,1-.13.59Z"/><path d="M120.44,109a20,20,0,0,1-2.53-.15.3.3,0,0,1-.27-.34.29.29,0,0,1,.35-.27,20.75,20.75,0,0,0,2.45.14c5.86,0,9-2.57,9-5,0-1.26-1.2-2.36-3.37-3.1a.32.32,0,0,1-.19-.4.3.3,0,0,1,.39-.19c2.44.83,3.79,2.14,3.79,3.69C130.09,106.11,126.71,109,120.44,109Z"/><path d="M112.89,111.7a.32.32,0,0,1-.32-.33c.27-3.51-.35-4.87-.36-4.88a.32.32,0,0,1,.15-.42.31.31,0,0,1,.41.15s.71,1.49.43,5.19A.31.31,0,0,1,112.89,111.7Z"/><path d="M127.81,111.7a.31.31,0,0,1-.31-.29c-.28-3.71.39-5.1.42-5.16a.32.32,0,0,1,.42-.14.31.31,0,0,1,.14.42s-.62,1.35-.36,4.84a.31.31,0,0,1-.29.33Z"/><path d="M70.13,29.79a.29.29,0,0,1-.29-.2L63.15,11.76a.32.32,0,0,1,.19-.41.32.32,0,0,1,.4.19l6.68,17.83a.33.33,0,0,1-.18.41Z"/><path d="M44.85,85a.31.31,0,0,1-.22-.09.31.31,0,0,1,0-.44L64.54,64.35a.31.31,0,1,1,.44.44L45.07,84.92A.31.31,0,0,1,44.85,85Z"/><path d="M101.68,74a.3.3,0,0,1-.2-.08l-10.8-9.14a.31.31,0,0,1,.4-.48l10.8,9.15a.32.32,0,0,1,0,.44A.34.34,0,0,1,101.68,74Z"/><path d="M97.28,40.61a.32.32,0,0,1-.27-.16.31.31,0,0,1,.12-.42l12.09-6.93a.31.31,0,0,1,.43.11.32.32,0,0,1-.12.43L97.44,40.57A.29.29,0,0,1,97.28,40.61Z"/><path d="M101.33,97.47h-13a.31.31,0,0,1,0-.62h13a.31.31,0,1,1,0,.62Z"/><path d="M101.33,100.83H95.24a.32.32,0,0,1,0-.63h6.09a.32.32,0,1,1,0,.63Z"/><path d="M93.21,100.83H89.72a.32.32,0,0,1,0-.63h3.49a.32.32,0,1,1,0,.63Z"/><path d="M54.8,52.34H46.55a.32.32,0,0,1,0-.63H54.8a.32.32,0,1,1,0,.63Z"/><path d="M133.35,10.2a5.1,5.1,0,1,1,5.1-5.1A5.11,5.11,0,0,1,133.35,10.2Zm0-9.58a4.48,4.48,0,1,0,4.48,4.48A4.48,4.48,0,0,0,133.35.62Z"/><path d="M6.93,83.56A5.1,5.1,0,1,1,12,78.46,5.1,5.1,0,0,1,6.93,83.56Zm0-9.57a4.48,4.48,0,1,0,4.48,4.47A4.47,4.47,0,0,0,6.93,74Z"/><path d="M170.61,37.67a.31.31,0,0,1-.31-.27,31.09,31.09,0,0,0-.72-3.49.32.32,0,0,1,.22-.38.31.31,0,0,1,.38.22,31.28,31.28,0,0,1,.74,3.56.32.32,0,0,1-.27.36Zm-1.82-7a.31.31,0,0,1-.29-.2c-.42-1.11-.89-2.22-1.41-3.28a.33.33,0,0,1,.14-.42.31.31,0,0,1,.42.15c.53,1.08,1,2.2,1.43,3.33a.31.31,0,0,1-.18.4Zm-3.15-6.45a.29.29,0,0,1-.26-.15c-.63-1-1.3-2-2-2.94a.31.31,0,0,1,.06-.43.31.31,0,0,1,.44.06c.73,1,1.41,2,2,3a.32.32,0,0,1-.1.43A.37.37,0,0,1,165.64,24.27Zm-4.34-5.71a.29.29,0,0,1-.23-.1A35.14,35.14,0,0,0,158.52,16a.31.31,0,1,1,.41-.47c.91.8,1.78,1.65,2.6,2.53a.31.31,0,0,1,0,.44A.34.34,0,0,1,161.3,18.56Zm-5.37-4.74a.33.33,0,0,1-.19-.06c-1-.69-2-1.35-3-2a.31.31,0,0,1-.11-.43.32.32,0,0,1,.43-.11c1,.62,2,1.29,3,2a.32.32,0,0,1,.07.44A.33.33,0,0,1,155.93,13.82Zm-6.16-3.68a.35.35,0,0,1-.14,0c-1-.51-2.15-1-3.26-1.42a.33.33,0,0,1-.18-.41.31.31,0,0,1,.41-.17c1.13.44,2.24.92,3.3,1.44a.31.31,0,0,1-.13.59ZM143.1,7.52H143c-1.11-.34-2.27-.66-3.44-.94a.32.32,0,0,1-.23-.38.31.31,0,0,1,.38-.23c1.18.29,2.35.61,3.48,1a.33.33,0,0,1,.2.4A.3.3,0,0,1,143.1,7.52Z"/><path d="M84.33,29.56a.35.35,0,0,1-.14,0,.32.32,0,0,1-.15-.42A32.73,32.73,0,0,1,85.86,26a.32.32,0,0,1,.43-.09.31.31,0,0,1,.1.43,28.64,28.64,0,0,0-1.78,3.09A.32.32,0,0,1,84.33,29.56Zm3.86-6.08a.33.33,0,0,1-.19-.06.31.31,0,0,1-.06-.44c.72-.95,1.49-1.9,2.29-2.8a.31.31,0,0,1,.47.41c-.79.89-1.55,1.82-2.26,2.77A.33.33,0,0,1,88.19,23.48Zm4.74-5.39a.31.31,0,0,1-.22-.09.33.33,0,0,1,0-.45c.86-.84,1.76-1.66,2.68-2.43a.31.31,0,0,1,.44,0,.32.32,0,0,1,0,.44c-.9.77-1.79,1.58-2.64,2.41A.31.31,0,0,1,92.93,18.09Zm5.49-4.64a.29.29,0,0,1-.25-.13.3.3,0,0,1,.07-.43c1-.71,2-1.38,3-2a.31.31,0,1,1,.32.53c-1,.62-2,1.28-3,2A.3.3,0,0,1,98.42,13.45Zm6.13-3.72a.33.33,0,0,1-.28-.18.32.32,0,0,1,.14-.42c1.07-.54,2.18-1,3.29-1.49a.32.32,0,0,1,.41.17.32.32,0,0,1-.17.41c-1.1.44-2.19.94-3.25,1.47A.33.33,0,0,1,104.55,9.73ZM111.2,7a.31.31,0,0,1-.1-.61c1.14-.36,2.32-.68,3.49-1a.32.32,0,0,1,.38.24.32.32,0,0,1-.24.37c-1.16.27-2.31.58-3.44.94Zm7-1.61a.3.3,0,0,1-.31-.26.32.32,0,0,1,.26-.36c1.17-.17,2.38-.31,3.59-.4a.31.31,0,0,1,.33.29.3.3,0,0,1-.28.33c-1.2.09-2.39.23-3.55.4Zm8.64-.52-1.2,0h-.29c-.21,0-.31-.13-.32-.31a.31.31,0,0,1,.32-.31h1.5a.32.32,0,0,1,0,.63Z"/><path d="M36.78,125.17h-.09l-.73-.22a.31.31,0,0,1-.2-.39.3.3,0,0,1,.39-.2l.71.21a.31.31,0,0,1-.08.61Zm-4.09-1.46a.3.3,0,0,1-.13,0c-1.09-.47-2.19-1-3.25-1.58a.3.3,0,0,1-.13-.42.31.31,0,0,1,.42-.13q1.59.87,3.21,1.56a.3.3,0,0,1,.16.4A.3.3,0,0,1,32.69,123.71Zm-6.31-3.42a.34.34,0,0,1-.17-.05c-1-.67-2-1.39-2.91-2.15a.31.31,0,0,1,.39-.49c.93.75,1.89,1.46,2.87,2.12a.31.31,0,0,1,.08.43A.31.31,0,0,1,26.38,120.29Zm-5.58-4.51a.29.29,0,0,1-.21-.09c-.87-.83-1.71-1.71-2.5-2.62a.31.31,0,0,1,.47-.41c.78.89,1.61,1.76,2.46,2.58a.31.31,0,0,1,0,.44A.3.3,0,0,1,20.8,115.78Zm-4.73-5.4a.32.32,0,0,1-.25-.12c-.72-1-1.4-2-2-3a.31.31,0,1,1,.53-.33c.62,1,1.29,2,2,3a.3.3,0,0,1-.06.43A.33.33,0,0,1,16.07,110.38Zm-3.76-6.11a.32.32,0,0,1-.28-.17c-.53-1.06-1-2.17-1.5-3.29a.31.31,0,0,1,.58-.24c.45,1.11,1,2.2,1.48,3.25a.31.31,0,0,1-.14.42A.32.32,0,0,1,12.31,104.27ZM9.58,97.63a.32.32,0,0,1-.3-.21c-.37-1.13-.7-2.3-1-3.47a.32.32,0,0,1,.61-.16c.29,1.16.62,2.32,1,3.43a.33.33,0,0,1-.2.4Zm-1.76-7a.3.3,0,0,1-.3-.26C7.3,89.24,7.12,88,7,86.84a.31.31,0,0,1,.27-.35.32.32,0,0,1,.35.28c.13,1.18.31,2.37.52,3.53a.32.32,0,0,1-.25.37Z"/><path d="M7.68,71.88h0a.32.32,0,0,1-.26-.36c.21-1.19.46-2.38.74-3.54a.31.31,0,0,1,.38-.22.31.31,0,0,1,.23.37c-.28,1.14-.53,2.32-.73,3.5A.32.32,0,0,1,7.68,71.88Zm1.73-7-.1,0a.31.31,0,0,1-.2-.39c.38-1.15.81-2.29,1.28-3.39A.32.32,0,0,1,10.8,61a.31.31,0,0,1,.16.41c-.46,1.08-.88,2.2-1.25,3.34A.32.32,0,0,1,9.41,64.91Zm2.81-6.6a.42.42,0,0,1-.15,0,.31.31,0,0,1-.13-.42c.58-1.08,1.2-2.12,1.85-3.12a.32.32,0,0,1,.43-.09.31.31,0,0,1,.09.44c-.64,1-1.25,2-1.81,3.06A.32.32,0,0,1,12.22,58.31Zm4-6a.31.31,0,0,1-.2-.07.31.31,0,0,1,0-.44,32.64,32.64,0,0,1,2.42-2.69.31.31,0,0,1,.44,0,.31.31,0,0,1,0,.44,35.21,35.21,0,0,0-2.38,2.64A.3.3,0,0,1,16.17,52.32Zm5.07-5.07a.33.33,0,0,1-.25-.12.33.33,0,0,1,.05-.44A33.33,33.33,0,0,1,24,44.57a.32.32,0,0,1,.43.09.31.31,0,0,1-.1.43,33.6,33.6,0,0,0-2.88,2.09A.32.32,0,0,1,21.24,47.25Zm6-3.9a.32.32,0,0,1-.28-.17.31.31,0,0,1,.14-.42c1.05-.54,2.15-1,3.29-1.51a.31.31,0,0,1,.23.58c-1.11.45-2.2,1-3.24,1.48A.23.23,0,0,1,27.25,43.35Zm6.64-2.72a.3.3,0,0,1-.29-.21.31.31,0,0,1,.2-.4c1.11-.35,2.28-.68,3.48-1a.3.3,0,0,1,.37.23.31.31,0,0,1-.22.38c-1.19.29-2.34.62-3.44,1Zm7-1.74a.31.31,0,0,1-.3-.25.32.32,0,0,1,.25-.37c1.13-.21,2.32-.41,3.55-.59a.32.32,0,0,1,.36.27.32.32,0,0,1-.27.35c-1.22.17-2.41.37-3.53.59Zm7.11-1a.31.31,0,0,1-.31-.28.32.32,0,0,1,.28-.35c1.19-.12,2.39-.23,3.59-.33a.29.29,0,0,1,.33.29.3.3,0,0,1-.28.33c-1.19.1-2.39.21-3.57.33Zm7.17-.59a.31.31,0,0,1-.32-.29.31.31,0,0,1,.3-.33c1.2-.07,2.4-.14,3.59-.19a.28.28,0,0,1,.32.29.31.31,0,0,1-.29.33l-3.59.19Z"/></g></g></svg>