                <!-- I need to embed the svg here, replacing the svg code (as per my tutor's feedback from task 1.7) -->
                <svg width="300px" xmlns="http://www.w3.org/2000/svg" xmlns:xlink="http://www.w3.org/1999/xlink" viewBox="0 0 1084 1444">
                  <defs>
                  <style>
                  .cls-1 {
                      fill:#00232c;
                      }
                  .cls-2 {
                      fill:none;
                      }
                  .cls-3 {
                      fill:#fffefb;
                      }
                  .cls-4 {
                      fill:#d7dbce;
                      }
                  .cls-31,
                  .cls-4,
                  .cls-5 {
                      fill-rule:evenodd;
                      }
                  .cls-10,
                  .cls-5 {
                      fill:#fff;
                      }
                  .cls-31,
                  .cls-6 {
                      fill:#002226;
                      }
                  .cls-7 {
                      fill:#c8ccc0;
                      }
                  .cls-8 {
                      fill:#a4b4af;
                      }
                  .cls-9 {
                      fill:#609a75;
                      }
                  .cls-11 {
                      fill:#a4b9b3;
                      }
                  .cls-12 {
                      fill:#619b76;
                      }
                  .cls-13 {
                      fill:#008192;
                      }
                  .cls-14 {
                      fill:#b8bd03;
                      }
                  .cls-15 {
                      fill:#00babe;
                      }
                  .cls-16 {
                      clip-path:url(#clip-path);
                      }
                  .cls-17 {
                      fill:#00a7ac;
                      }
                  .cls-18 {
                      clip-path:url(#clip-path-2);
                      }
                  .cls-19 {
                      fill:#50757f;
                      }
                  .cls-20 {
                      clip-path:url(#clip-path-3);
                      }
                  .cls-21 {
                      fill:#242318;
                      }
                  .cls-22 {
                      fill:#00232e;
                      }
                  .cls-23 {
                      fill:#f8d730;
                      }
                  .cls-24 {
                      fill:#18170f;
                      }
                  .cls-25 {
                      fill:#06959a;
                      }
                  .cls-26 {
                      fill:#1f7d76;
                      }
                  .cls-27 {
                      fill:#94d0ce;
                      }
                  .cls-28 {
                      fill:#34242b;
                      }
                  .cls-29 {
                      fill:#1b1315;
                      }
                  .cls-30 {
                      fill:#f9f6f7;
                      }
                  </style>
                  <clipPath id="clip-path">
                  <polygon class="cls-1" points="685.77 885.85 569.38 885.85 576.77 540.82 677.46 540.82 685.77 885.85"/>
                  </clipPath>
                  <clipPath id="clip-path-2">
                  <path class="cls-2" d="M656.52,886.72c-27.4.86-35.72,0-58.81-.29,23.09-164.3-20.94-345.62-20.94-345.62H677.46S633.43,737.11,656.52,886.72Z"/>
                  </clipPath><clipPath id="clip-path-3">
                  <polygon class="cls-3" points="685.77 885.85 569.38 885.85 576.77 540.82 677.46 539.95 685.77 885.85"/>
                  </clipPath>
                  </defs>
                  <g id="Layer_2" data-name="Layer 2">
                  <g id="Layer_1-2" data-name="Layer 1">
                  <polygon class="cls-4" points="1004.27 1356.33 78.75 1356.5 78.75 75.17 1006.8 75.17 1004.27 1356.33"/>
                  <path class="cls-5" d="M0,.08V1444H1084V0ZM1004.27,1356.33l-925.52.17,0-1281.33h928Z"/>
                  <path class="cls-6" d="M425.73,156.35c11.78,2.8,17.27,9,17.27,14.69,0,23.22-40.72,27-57.52,27-4.54,0-18.78,0-18.78-6.76,0-2.45,4.09-8.64,5.95-10.39,1.4-1.16,8.29-3.38,10-3.38.58,0,.93.12.93.82,0,1.16-1.17,1.75-2,2.21a13.56,13.56,0,0,0-2,1.75v.24c41.65,1.51,53.08-10.5,53.08-12.37,0-6-32.31-10.61-37.91-11.55-5.84-.93-11.9-2.8-11.9-9.8,0-3.85,1.87-12.36,3.73-15.51,3.62-6,24.73-17,50.28-17a70.06,70.06,0,0,1,14.7,1.63c2.68.58,3,1.52,3,3.85,0,8.63-2.92,10.62-9.8,13.3-5,1.87-5.95,2.45-10.5,5.71a6.91,6.91,0,0,1-2.91,1.17,1.63,1.63,0,0,1-1.87-1.75c0-.23,2.22-3.85,8.52-8.16l-.24-.24c-30.09,1.05-43,11.9-43.16,14.58C394.7,148,393.18,148.76,425.73,156.35Z"/>
                  <path class="cls-6" d="M492.34,178.86c-7.12,8.28-19.95,19.25-31.5,19.25-8.52,0-12.48-7.58-12.72-15.28-.46-15.29,16.45-30.92,31.62-30.8,3.73,0,8.4.93,8.4,5.6,0,5.72-5.72,14.35-28.12,21.7l-.23,2.56c-.35,4.44,3.5,6,7.23,6,8.28,0,18.08-8.51,24.27-13.41Zm-14.47-18.78c0-.82-.58-1.52-1.4-1.28-5.83,1.51-12.6,7.11-15.75,14.81C471,170.11,478,162.06,477.87,160.08Z"/>
                  <path class="cls-6" d="M509.71,188.31c-2.21,1.75-9.68,7.82-12.36,7.82-3.27,0-10-7.7-10.27-13.77-.46-14.58,29.87-29.51,43.4-29.86,5.36-.12,7.58,4.2,7.58,5.6s-3,2.56-4.08,2.91c2.21.94,3.38,2.22,3.38,4.78,0,3.74-10.15,11.9-10.15,17.39,0,2,1.75,2.8,3.62,2.8,4.9,0,11.55-5.95,16.56-9.34l.94,4.32c-5,5.72-20.65,18.2-26.37,18.2-3.85,0-5.6-2.8-5.6-6.18,0-3.74,2.8-9.92,4.32-13.07l-.23-.23Zm-14.11-3c.12.58.58,2.68,2.33,2.33,2.33-.47,5.95-.12,29.05-23.45l-.23-.23C499,172.44,495.6,179.56,495.6,185.28Z"/>
                  <path class="cls-6" d="M588,147.6c-5.49,11.08-6.42,15.4-19.25,14.58-4,5.13-10.62,14.7-10.62,21.7,0,2.56.82,4.08,3.5,4.08,3.74,0,7.93-3.5,20.07-12.13l.58,5.13c-6.88,6.3-19.48,18.78-29.4,18.78-4.55,0-7.35-3.15-7.35-7.81,0-3.85,1.52-8.29,3-11.67l-.24-.23-6,4.78-1.28-4.43c7-5.37,13.42-11.32,17.73-18.67-7.11,0-4.9-.46-11.08.47l1.28-2.1c6.3-10.27,7.24-12.13,19.72-12.6,3.5-4.78,6.06-10.27,12.83-10.27,1.52,0,3.73.35,3.73,2.22,0,2.1-3.38,5.95-4.55,7.58Z"/>
                  <path class="cls-6" d="M622.05,147.6c-5.49,11.08-6.42,15.4-19.25,14.58-4,5.13-10.62,14.7-10.62,21.7,0,2.56.82,4.08,3.5,4.08,3.74,0,7.93-3.5,20.07-12.13l.58,5.13c-6.88,6.3-19.48,18.78-29.4,18.78-4.55,0-7.35-3.15-7.35-7.81,0-3.85,1.52-8.29,3-11.67l-.24-.23-6,4.78-1.28-4.43c7-5.37,13.42-11.32,17.73-18.67-7.11,0-4.9-.46-11.08.47l1.28-2.1c6.3-10.27,7.24-12.13,19.72-12.6,3.5-4.78,6.06-10.27,12.83-10.27,1.52,0,3.73.35,3.73,2.22,0,2.1-3.38,5.95-4.55,7.58Z"/>
                  <path class="cls-6" d="M652.72,179c-6.41,6.65-17.38,18.43-27.41,18.43-8.52,0-10.38-8.28-10.38-15.17,0-12.25,5.25-25.43,12.83-34.76,10.27-12.71,21.35-23.56,25.08-23.56,2,0,2.45,2.8,2.33,4.31-.81,11.08-3.85,21.35-29.16,45.85a13.08,13.08,0,0,0-.82,8c1,2.68,2.69,5,5.84,5,6.41,0,15.39-7.46,20.06-11.66Zm-24.14-15.63c8.28-7.7,15.51-18.9,17.61-25.55-5.72,2.8-12.36,13.3-17.85,25.31Z"/>
                  <path class="cls-6" d="M693.9,178.86c-7.12,8.28-19.95,19.25-31.5,19.25-8.51,0-12.48-7.58-12.71-15.28-.47-15.29,16.45-30.92,31.61-30.8,3.73,0,8.4.93,8.4,5.6,0,5.72-5.72,14.35-28.11,21.7l-.24,2.56c-.35,4.44,3.5,6,7.24,6,8.28,0,18.08-8.51,24.26-13.41Zm-14.47-18.78c0-.82-.58-1.52-1.4-1.28-5.83,1.51-12.59,7.11-15.74,14.81C672.55,170.11,679.55,162.06,679.43,160.08Z"/>
                  <path class="cls-7" d="M1005.5,633.6S897,485.51,829.89,393.89s-69.12-65.44-110.6-47.11C695.59,336.31,680,335.36,666,352c-27.14,32.26-61.41,73.91-86.9,109.94C549.45,503.84,387.33,734.1,387.33,734.1l-1.12,307,618.67.86Z"/>
                  <rect class="cls-8" x="146.82" y="667.59" width="79.25" height="381.55"/>
                  <rect class="cls-6" x="154.12" y="684.61" width="13.56" height="8.51"/>
                  <rect class="cls-6" x="178.63" y="684.61" width="13.56" height="8.51"/>
                  <rect class="cls-6" x="203.14" y="684.61" width="13.56" height="8.51"/>
                  <rect class="cls-6" x="154.21" y="703.74" width="13.56" height="8.51"/>
                  <rect class="cls-6" x="178.72" y="703.74" width="13.56" height="8.51"/>
                  <rect class="cls-6" x="203.22" y="703.74" width="13.56" height="8.51"/>
                  <rect class="cls-6" x="154.3" y="722.88" width="13.56" height="8.51"/>
                  <rect class="cls-6" x="178.8" y="722.88" width="13.56" height="8.51"/>
                  <rect class="cls-6" x="203.31" y="722.88" width="13.56" height="8.51"/>
                  <rect class="cls-6" x="154.38" y="742.02" width="13.56" height="8.51"/>
                  <rect class="cls-6" x="178.89" y="742.02" width="13.56" height="8.51"/>
                  <rect class="cls-6" x="203.4" y="742.02" width="13.56" height="8.51"/>
                  <rect class="cls-6" x="154.47" y="761.15" width="13.56" height="8.51"/>
                  <rect class="cls-6" x="178.98" y="761.15" width="13.56" height="8.51"/>
                  <rect class="cls-6" x="203.48" y="761.15" width="13.56" height="8.51"/>
                  <polygon class="cls-6" points="228.94 667.59 143.7 667.59 164.2 625.03 210.6 625.03 228.94 667.59"/>
                  <rect class="cls-6" x="167.68" y="609.43" width="1.04" height="22.7"/><polygon class="cls-6" points="176.71 630.73 175.67 630.69 175.86 614.37 176.9 614.41 176.71 630.73"/>
                  <rect class="cls-6" x="201.05" y="600.21" width="1.04" height="37.59"/>
                  <polygon class="cls-9" points="146.32 1045.63 78.83 1045.63 78.83 707.25 146.83 707.33 146.32 1045.63"/>
                  <rect class="cls-10" x="101.28" y="737.76" width="8.2" height="14.13"/>
                  <rect class="cls-10" x="114.59" y="737.76" width="8.19" height="14.13"/>
                  <rect class="cls-10" x="101.28" y="769.17" width="8.2" height="14.13"/>
                  <rect class="cls-10" x="114.59" y="769.17" width="8.19" height="14.13"/>
                  <rect class="cls-10" x="101.28" y="800.58" width="8.2" height="14.13"/>
                  <rect class="cls-10" x="114.59" y="800.58" width="8.19" height="14.13"/>
                  <rect class="cls-10" x="101.28" y="831.99" width="8.2" height="14.13"/>
                  <rect class="cls-10" x="114.59" y="831.99" width="8.19" height="14.13"/>
                  <rect class="cls-10" x="101.28" y="863.4" width="8.2" height="14.13"/>
                  <rect class="cls-10" x="114.59" y="863.4" width="8.19" height="14.13"/>
                  <polygon class="cls-10" points="927.91 1044.18 811.27 1044.18 813.26 585.62 926.72 671.28 927.91 1044.18"/>
                  <rect class="cls-6" x="828.69" y="670.53" width="76.6" height="361.8"/>
                  <path class="cls-10" d="M909.32,1034.73H826.38V667.1h82.94Zm-78.65-3h72.65V673.58H830.67Z"/>
                  <rect class="cls-10" x="829.68" y="993.4" width="74.63" height="3.01"/>
                  <rect class="cls-10" x="829.68" y="957.58" width="74.63" height="3"/>
                  <rect class="cls-10" x="829.68" y="921.66" width="74.63" height="3.01"/>
                  <rect class="cls-10" x="829.68" y="885.83" width="74.63" height="3.01"/>
                  <rect class="cls-10" x="829.68" y="849.92" width="74.63" height="3.01"/>
                  <rect class="cls-10" x="829.68" y="814.01" width="74.63" height="3"/>
                  <rect class="cls-10" x="829.68" y="778.18" width="74.63" height="3.01"/>
                  <rect class="cls-10" x="829.68" y="742.27" width="74.63" height="3.01"/>
                  <rect class="cls-10" x="829.68" y="706.44" width="74.63" height="3.01"/>
                  <rect class="cls-10" x="892.66" y="672.03" width="1.98" height="358.79"/>
                  <rect class="cls-10" x="882" y="672.03" width="1.98" height="358.79"/>
                  <rect class="cls-10" x="871.34" y="672.03" width="1.98" height="358.79"/>
                  <rect class="cls-10" x="860.67" y="672.03" width="1.98" height="358.79"/>
                  <rect class="cls-10" x="850.01" y="672.03" width="1.98" height="358.79"/>
                  <rect class="cls-10" x="839.35" y="672.03" width="1.98" height="358.79"/>
                  <rect class="cls-11" x="383.6" y="636.77" width="145.8" height="407.45"/>
                  <rect class="cls-11" x="381.23" y="610.92" width="149.77" height="29.86"/>
                  <polygon class="cls-5" points="423.35 566.76 423.11 566.66 422.89 566.79 422.92 566.54 422.72 566.38 422.97 566.32 423.06 566.08 423.19 566.3 423.45 566.32 423.28 566.51 423.35 566.76"/>
                  <polygon class="cls-5" points="424.57 566.26 424.33 566.17 424.12 566.3 424.14 566.05 423.94 565.88 424.19 565.83 424.29 565.59 424.42 565.81 424.67 565.83 424.5 566.02 424.57 566.26"/>
                  <polygon class="cls-5" points="423.47 567.84 423.24 567.74 423.02 567.88 423.04 567.62 422.85 567.46 423.1 567.4 423.19 567.17 423.32 567.38 423.57 567.4 423.41 567.59 423.47 567.84"/>
                  <polygon class="cls-5" points="424.69 567.35 424.46 567.25 424.24 567.38 424.27 567.13 424.07 566.97 424.32 566.91 424.41 566.67 424.54 566.89 424.8 566.91 424.63 567.1 424.69 567.35"/>
                  <rect class="cls-11" x="410.57" y="591.5" width="43.94" height="26.96"/>
                  <rect class="cls-6" x="396.5" y="654.25" width="120.75" height="360"/>
                  <path class="cls-11" d="M518.05,1014.89H396.12V833.75H518.05Zm-118.78-1.5H514.9V835.25H399.27Z"/>
                  <rect class="cls-11" x="397.7" y="995.4" width="118.78" height="1.5"/>
                  <rect class="cls-11" x="397.7" y="977.47" width="118.78" height="1.5"/>
                  <rect class="cls-11" x="397.7" y="959.49" width="118.78" height="1.5"/>
                  <rect class="cls-11" x="397.7" y="941.55" width="118.78" height="1.5"/>
                  <rect class="cls-11" x="397.7" y="923.57" width="118.78" height="1.5"/>
                  <rect class="cls-11" x="397.7" y="905.59" width="118.78" height="1.5"/>
                  <rect class="cls-11" x="397.7" y="887.65" width="118.78" height="1.5"/>
                  <rect class="cls-11" x="397.7" y="869.67" width="118.78" height="1.5"/>
                  <rect class="cls-11" x="397.7" y="851.73" width="118.78" height="1.5"/>
                  <rect class="cls-11" x="497.94" y="834.5" width="3.15" height="179.63"/>
                  <rect class="cls-11" x="480.97" y="834.5" width="3.15" height="179.63"/>
                  <rect class="cls-11" x="464.01" y="834.5" width="3.15" height="179.63"/>
                  <rect class="cls-11" x="447.02" y="834.5" width="3.15" height="179.63"/>
                  <rect class="cls-11" x="430.05" y="834.5" width="3.15" height="179.63"/>
                  <rect class="cls-11" x="413.09" y="834.5" width="3.15" height="179.63"/>
                  <path class="cls-11" d="M518.08,834.38H396.16V653.24H518.08ZM399.3,832.87H514.93V654.74H399.3Z"/>
                  <rect class="cls-11" x="397.73" y="814.89" width="118.78" height="1.5"/>
                  <rect class="cls-11" x="397.73" y="796.95" width="118.78" height="1.5"/>
                  <rect class="cls-11" x="397.73" y="778.97" width="118.78" height="1.5"/>
                  <rect class="cls-11" x="397.73" y="761.03" width="118.78" height="1.5"/>
                  <rect class="cls-11" x="397.73" y="743.05" width="118.78" height="1.51"/>
                  <rect class="cls-11" x="397.73" y="725.07" width="118.78" height="1.5"/>
                  <rect class="cls-11" x="397.73" y="707.14" width="118.78" height="1.5"/>
                  <rect class="cls-11" x="397.73" y="689.15" width="118.78" height="1.51"/>
                  <rect class="cls-11" x="397.73" y="671.22" width="118.78" height="1.5"/>
                  <rect class="cls-11" x="497.97" y="653.99" width="3.15" height="179.63"/>
                  <rect class="cls-11" x="481" y="653.99" width="3.15" height="179.63"/>
                  <rect class="cls-11" x="464.04" y="653.99" width="3.15" height="179.63"/>
                  <rect class="cls-11" x="447.05" y="653.99" width="3.15" height="179.63"/>
                  <rect class="cls-11" x="430.08" y="653.99" width="3.15" height="179.63"/>
                  <rect class="cls-11" x="413.12" y="653.99" width="3.15" height="179.63"/>
                  <polygon class="cls-12" points="792.52 612.03 697.26 610.24 697.1 554.57 791.95 576.06 792.52 612.03"/>
                  <polygon class="cls-12" points="792.28 993.02 697.27 993.95 697.27 602.97 792.46 602.97 792.28 993.02"/>
                  <rect class="cls-12" x="705.39" y="615.49" width="79.7" height="320.68"/>
                  <rect class="cls-10" x="704.99" y="616.49" width="79.19" height="351"/>
                  <path class="cls-12" d="M786.14,791.53H704.33V614.14h81.81Zm-79.7-1.47H784V615.62H706.44Z"/>
                  <rect class="cls-12" x="705.39" y="772.45" width="79.7" height="1.47"/>
                  <rect class="cls-12" x="705.39" y="754.88" width="79.7" height="1.47"/>
                  <rect class="cls-12" x="705.39" y="737.27" width="79.7" height="1.47"/>
                  <rect class="cls-12" x="705.39" y="719.71" width="79.7" height="1.47"/>
                  <rect class="cls-12" x="705.39" y="702.1" width="79.7" height="1.48"/>
                  <rect class="cls-12" x="705.39" y="684.49" width="79.7" height="1.47"/>
                  <rect class="cls-12" x="705.39" y="666.93" width="79.7" height="1.47"/>
                  <rect class="cls-12" x="705.39" y="649.32" width="79.7" height="1.47"/>
                  <rect class="cls-12" x="705.39" y="631.75" width="79.7" height="1.47"/>
                  <path class="cls-12" d="M786.19,969.48h-81.8V790.17h81.8ZM706.5,968h77.58V791.66H706.5Z"/>
                  <rect class="cls-12" x="705.45" y="950.19" width="79.68" height="1.49"/>
                  <rect class="cls-12" x="705.45" y="932.44" width="79.68" height="1.49"/>
                  <rect class="cls-12" x="705.45" y="914.64" width="79.68" height="1.49"/>
                  <rect class="cls-12" x="705.45" y="896.88" width="79.68" height="1.49"/>
                  <rect class="cls-12" x="705.45" y="879.08" width="79.68" height="1.49"/>
                  <rect class="cls-12" x="705.45" y="861.28" width="79.68" height="1.49"/>
                  <rect class="cls-12" x="705.45" y="843.53" width="79.68" height="1.49"/>
                  <rect class="cls-12" x="705.45" y="825.73" width="79.68" height="1.49"/>
                  <rect class="cls-12" x="705.45" y="807.97" width="79.68" height="1.49"/>
                  <polygon class="cls-10" points="319.16 917.29 230.22 916.97 229.93 545.98 319.11 545.98 319.16 917.29"/>
                  <polygon class="cls-13" points="307.13 578.12 235.61 578.11 235.61 577.07 307.19 577.02 307.13 578.12"/>
                  <polygon class="cls-13" points="307.25 609.43 235.51 609.43 235.56 608.34 307.33 608.28 307.25 609.43"/>
                  <polygon class="cls-13" points="307.22 640.68 235.66 640.62 235.66 639.57 307.22 639.6 307.22 640.68"/>
                  <rect class="cls-13" x="235.51" y="670.97" width="71.8" height="1.04"/>
                  <rect class="cls-13" x="235.48" y="701.97" width="71.75" height="1.04"/>
                  <rect class="cls-13" x="235.68" y="733.81" width="71.68" height="1.04"/>
                  <rect class="cls-13" x="235.8" y="764.82" width="71.46" height="1.04"/>
                  <rect class="cls-8" x="245.3" y="554.76" width="52.7" height="11.48"/>
                  <rect class="cls-6" x="245.3" y="585.29" width="52.7" height="11.48"/>
                  <rect class="cls-14" x="245.3" y="617.38" width="52.7" height="11.48"/>
                  <rect class="cls-6" x="245.3" y="647.91" width="52.7" height="11.48"/>
                  <rect class="cls-8" x="245.3" y="680.01" width="52.69" height="11.48"/>
                  <rect class="cls-6" x="245.3" y="710.53" width="52.69" height="11.48"/>
                  <rect class="cls-14" x="245.3" y="742.3" width="52.69" height="11.48"/>
                  <rect class="cls-8" x="245.3" y="772.82" width="52.69" height="11.48"/>
                  <rect class="cls-13" x="235.8" y="796.39" width="71.63" height="1.04"/>
                  <rect class="cls-13" x="235.8" y="827.44" width="71.46" height="1.04"/>
                  <rect class="cls-6" x="245.3" y="804.75" width="52.69" height="11.48"/>
                  <rect class="cls-14" x="245.3" y="835.28" width="52.69" height="11.48"/>
                  <rect class="cls-9" x="245.3" y="568.98" width="52.06" height="1.99"/>
                  <rect class="cls-14" x="245.3" y="599.03" width="52.06" height="1.99"/>
                  <rect class="cls-9" x="245.3" y="631.59" width="52.06" height="1.99"/>
                  <rect class="cls-14" x="245.3" y="662.47" width="52.06" height="1.99"/>
                  <rect class="cls-9" x="245.3" y="694.61" width="52.06" height="1.99"/>
                  <rect class="cls-9" x="245.3" y="725" width="52.06" height="1.99"/>
                  <rect class="cls-9" x="245.3" y="756.39" width="52.06" height="1.99"/>
                  <rect class="cls-13" x="245.3" y="786.78" width="52.06" height="1.99"/>
                  <rect class="cls-13" x="245.3" y="818.67" width="52.06" height="1.99"/>
                  <rect class="cls-13" x="245.3" y="849.31" width="52.06" height="1.99"/>
                  <polygon class="cls-15" points="685.77 886.72 569.38 886.72 576.77 541.68 677.46 540.82 685.77 886.72"/>
                  <polygon class="cls-1" points="685.77 885.85 569.38 885.85 576.77 540.82 677.46 540.82 685.77 885.85"/>
                  <g class="cls-16"><rect class="cls-17" x="567.53" y="574.54" width="117.32" height="3.46"/>
                  <rect class="cls-17" x="567.53" y="584.92" width="117.32" height="3.46"/>
                  <rect class="cls-17" x="567.53" y="595.29" width="117.32" height="3.46"/>
                  <rect class="cls-17" x="567.53" y="605.67" width="117.32" height="3.46"/>
                  <rect class="cls-17" x="567.53" y="616.05" width="117.32" height="3.46"/>
                  <rect class="cls-17" x="567.53" y="626.43" width="117.32" height="3.46"/>
                  <rect class="cls-17" x="567.53" y="636.8" width="117.32" height="3.46"/>
                  <rect class="cls-17" x="567.53" y="647.18" width="117.32" height="3.46"/>
                  <rect class="cls-17" x="567.53" y="657.56" width="117.32" height="3.46"/>
                  <rect class="cls-17" x="567.53" y="667.93" width="117.32" height="3.46"/>
                  <rect class="cls-17" x="567.53" y="678.31" width="117.32" height="3.46"/>
                  <rect class="cls-17" x="567.53" y="688.69" width="117.32" height="3.46"/>
                  <rect class="cls-17" x="567.53" y="699.07" width="117.32" height="3.46"/>
                  <rect class="cls-17" x="567.53" y="709.44" width="117.32" height="3.46"/>
                  <rect class="cls-17" x="567.53" y="719.82" width="117.32" height="3.46"/>
                  <rect class="cls-17" x="567.53" y="730.2" width="117.32" height="3.46"/>
                  <rect class="cls-17" x="567.53" y="740.57" width="117.32" height="3.46"/>
                  <rect class="cls-17" x="567.53" y="750.95" width="117.32" height="3.46"/>
                  <rect class="cls-17" x="567.53" y="761.33" width="117.32" height="3.46"/>
                  <rect class="cls-17" x="567.53" y="771.7" width="117.32" height="3.46"/>
                  <rect class="cls-17" x="567.53" y="782.08" width="117.32" height="3.46"/>
                  <rect class="cls-17" x="567.53" y="792.46" width="117.32" height="3.46"/>
                  <rect class="cls-17" x="567.53" y="802.84" width="117.32" height="3.46"/>
                  <rect class="cls-17" x="567.53" y="813.21" width="117.32" height="3.46"/>
                  <rect class="cls-17" x="567.53" y="823.59" width="117.32" height="3.46"/>
                  <rect class="cls-17" x="567.53" y="833.97" width="117.32" height="3.46"/>
                  </g>
                  <g class="cls-18">
                  <polygon class="cls-19" points="685.77 886.72 569.38 886.72 576.77 541.68 677.46 540.82 685.77 886.72"/>
                  <polygon class="cls-3" points="685.77 885.85 569.38 885.85 576.77 540.82 677.46 539.95 685.77 885.85"/>
                  <g class="cls-20">
                  <rect class="cls-21" x="567.53" y="574.54" width="117.32" height="3.46"/>
                  <rect class="cls-21" x="567.53" y="584.92" width="117.32" height="3.46"/>
                  <rect class="cls-21" x="567.53" y="595.29" width="117.32" height="3.46"/>
                  <rect class="cls-21" x="567.53" y="605.67" width="117.32" height="3.46"/>
                  <rect class="cls-21" x="567.53" y="616.05" width="117.32" height="3.46"/>
                  <rect class="cls-21" x="567.53" y="626.43" width="117.32" height="3.46"/>
                  <rect class="cls-21" x="567.53" y="636.8" width="117.32" height="3.46"/>
                  <rect class="cls-21" x="567.53" y="647.18" width="117.32" height="3.46"/>
                  <rect class="cls-21" x="567.53" y="657.56" width="117.32" height="3.46"/>
                  <rect class="cls-21" x="567.53" y="667.93" width="117.32" height="3.46"/>
                  <rect class="cls-21" x="567.53" y="678.31" width="117.32" height="3.46"/>
                  <rect class="cls-21" x="567.53" y="688.69" width="117.32" height="3.46"/>
                  <rect class="cls-21" x="567.53" y="699.07" width="117.32" height="3.46"/>
                  <rect class="cls-21" x="567.53" y="709.44" width="117.32" height="3.46"/>
                  <rect class="cls-21" x="567.53" y="719.82" width="117.32" height="3.46"/>
                  <rect class="cls-21" x="567.53" y="730.2" width="117.32" height="3.46"/>
                  <rect class="cls-21" x="567.53" y="740.57" width="117.32" height="3.46"/>
                  <rect class="cls-21" x="567.53" y="750.95" width="117.32" height="3.46"/>
                  <rect class="cls-21" x="567.53" y="761.33" width="117.32" height="3.46"/>
                  <rect class="cls-21" x="567.53" y="771.7" width="117.32" height="3.46"/>
                  <rect class="cls-21" x="567.53" y="782.08" width="117.32" height="3.46"/>
                  <rect class="cls-21" x="567.53" y="792.46" width="117.32" height="3.46"/>
                  <rect class="cls-21" x="567.53" y="802.84" width="117.32" height="3.46"/>
                  <rect class="cls-21" x="567.53" y="813.21" width="117.32" height="3.46"/>
                  <rect class="cls-21" x="567.53" y="823.59" width="117.32" height="3.46"/>
                  <rect class="cls-21" x="567.53" y="833.97" width="117.32" height="3.46"/>
                  </g>
                  </g>
                  <rect class="cls-14" x="609.41" y="556.38" width="54.81" height="9.22"/>
                  <rect class="cls-14" x="928.88" y="573.51" width="64.34" height="467.4"/>
                  <rect class="cls-6" x="921.15" y="584.42" width="81.13" height="7.19"/>
                  <rect class="cls-6" x="921.15" y="598.8" width="81.13" height="7.19"/>
                  <rect class="cls-6" x="921.15" y="613.19" width="81.13" height="7.19"/>
                  <rect class="cls-6" x="921.15" y="627.57" width="81.13" height="7.19"/>
                  <rect class="cls-6" x="921.15" y="641.95" width="81.13" height="7.19"/>
                  <rect class="cls-6" x="921.15" y="656.33" width="81.13" height="7.19"/>
                  <rect class="cls-6" x="921.15" y="670.71" width="81.13" height="7.19"/>
                  <rect class="cls-6" x="921.15" y="685.09" width="81.13" height="7.19"/>
                  <rect class="cls-6" x="921.15" y="699.48" width="81.13" height="7.19"/>
                  <rect class="cls-6" x="921.15" y="713.86" width="81.13" height="7.19"/>
                  <rect class="cls-6" x="921.15" y="728.24" width="81.13" height="7.19"/>
                  <rect class="cls-6" x="921.15" y="742.62" width="81.13" height="7.19"/>
                  <rect class="cls-6" x="921.15" y="757" width="81.13" height="7.19"/>
                  <rect class="cls-6" x="921.15" y="771.38" width="81.13" height="7.19"/>
                  <rect class="cls-6" x="921.15" y="785.76" width="81.13" height="7.19"/>
                  <rect class="cls-6" x="921.15" y="800.15" width="81.13" height="7.19"/>
                  <rect class="cls-6" x="921.15" y="814.53" width="81.13" height="7.19"/>
                  <rect class="cls-6" x="921.15" y="828.91" width="81.13" height="7.19"/>
                  <rect class="cls-6" x="921.15" y="843.29" width="81.13" height="7.19"/>
                  <rect class="cls-6" x="921.15" y="857.67" width="81.13" height="7.19"/>
                  <rect class="cls-6" x="921.15" y="872.05" width="81.13" height="7.19"/>
                  <rect class="cls-6" x="921.15" y="886.44" width="81.13" height="7.19"/>
                  <rect class="cls-6" x="921.15" y="900.82" width="81.13" height="7.19"/>
                  <rect class="cls-6" x="921.15" y="915.2" width="81.13" height="7.19"/>
                  <rect class="cls-6" x="921.15" y="929.58" width="81.13" height="7.19"/>
                  <rect class="cls-6" x="921.15" y="943.96" width="81.13" height="7.19"/>
                  <rect class="cls-6" x="921.15" y="958.34" width="81.13" height="7.19"/>
                  <rect class="cls-6" x="921.15" y="972.73" width="81.13" height="7.19"/>
                  <rect class="cls-6" x="921.15" y="987.11" width="81.13" height="7.19"/>
                  <rect class="cls-6" x="921.15" y="1001.49" width="81.13" height="7.19"/>
                  <polyline class="cls-6" points="921.15 1023.06 921.15 1015.87 1002.28 1015.87 1002.28 1023.06"/>
                  <rect class="cls-14" x="921.15" y="546.78" width="81.13" height="30.34"/>
                  <rect class="cls-14" x="933.74" y="527.01" width="55.95" height="30.34"/>
                  <rect class="cls-22" x="951.92" y="481.95" width="2.8" height="559.49"/>
                  <rect class="cls-22" x="964.51" y="481.95" width="2.8" height="559.49"/>
                  <rect class="cls-13" x="315.09" y="652.15" width="64.14" height="310.77"/>
                  <rect class="cls-10" x="360.81" y="655.5" width="13.4" height="2.87"/>
                  <rect class="cls-10" x="360.81" y="662.68" width="13.4" height="2.87"/>
                  <rect class="cls-10" x="360.81" y="669.86" width="13.4" height="2.87"/>
                  <rect class="cls-10" x="360.81" y="677.04" width="13.4" height="2.87"/>
                  <rect class="cls-10" x="360.81" y="684.22" width="13.4" height="2.87"/>
                  <rect class="cls-10" x="360.81" y="691.4" width="13.4" height="2.87"/>
                  <rect class="cls-10" x="360.81" y="698.58" width="13.4" height="2.87"/>
                  <rect class="cls-10" x="360.81" y="705.76" width="13.4" height="2.87"/>
                  <rect class="cls-10" x="360.81" y="712.94" width="13.4" height="2.87"/>
                  <rect class="cls-10" x="360.81" y="720.12" width="13.4" height="2.87"/>
                  <rect class="cls-10" x="360.81" y="727.3" width="13.4" height="2.87"/>
                  <rect class="cls-10" x="360.81" y="734.48" width="13.4" height="2.87"/>
                  <rect class="cls-10" x="360.81" y="741.66" width="13.4" height="2.87"/>
                  <rect class="cls-10" x="360.81" y="748.84" width="13.4" height="2.87"/>
                  <rect class="cls-10" x="360.81" y="756.02" width="13.4" height="2.87"/>
                  <rect class="cls-10" x="360.81" y="763.2" width="13.4" height="2.87"/>
                  <rect class="cls-10" x="360.81" y="770.38" width="13.4" height="2.87"/>
                  <rect class="cls-10" x="360.81" y="777.56" width="13.4" height="2.87"/>
                  <rect class="cls-10" x="360.81" y="784.74" width="13.4" height="2.87"/>
                  <rect class="cls-10" x="360.81" y="791.92" width="13.4" height="2.87"/>
                  <rect class="cls-10" x="360.81" y="799.1" width="13.4" height="2.87"/>
                  <rect class="cls-10" x="360.81" y="806.28" width="13.4" height="2.87"/>
                  <rect class="cls-10" x="360.81" y="813.46" width="13.4" height="2.87"/>
                  <rect class="cls-10" x="360.81" y="820.64" width="13.4" height="2.87"/>
                  <rect class="cls-10" x="360.81" y="827.82" width="13.4" height="2.87"/>
                  <rect class="cls-10" x="360.81" y="835" width="13.4" height="2.87"/>
                  <rect class="cls-10" x="360.81" y="842.18" width="13.4" height="2.87"/>
                  <rect class="cls-10" x="360.81" y="849.37" width="13.4" height="2.87"/>
                  <rect class="cls-10" x="360.81" y="856.55" width="13.4" height="2.87"/>
                  <rect class="cls-10" x="360.81" y="863.73" width="13.4" height="2.87"/>
                  <rect class="cls-10" x="360.81" y="870.91" width="13.4" height="2.87"/>
                  <rect class="cls-10" x="360.81" y="878.09" width="13.4" height="2.87"/>
                  <rect class="cls-10" x="360.81" y="885.27" width="13.4" height="2.87"/>
                  <rect class="cls-10" x="360.81" y="892.45" width="13.4" height="2.87"/>
                  <rect class="cls-10" x="319.16" y="656.46" width="13.4" height="2.87"/>
                  <rect class="cls-10" x="319.16" y="663.64" width="13.4" height="2.87"/>
                  <rect class="cls-10" x="319.16" y="670.82" width="13.4" height="2.87"/>
                  <rect class="cls-10" x="319.16" y="678" width="13.4" height="2.87"/>
                  <rect class="cls-10" x="319.16" y="685.18" width="13.4" height="2.87"/>
                  <rect class="cls-10" x="319.16" y="692.36" width="13.4" height="2.87"/>
                  <rect class="cls-10" x="319.16" y="699.54" width="13.4" height="2.87"/>
                  <rect class="cls-10" x="319.16" y="706.72" width="13.4" height="2.87"/>
                  <rect class="cls-10" x="319.16" y="713.9" width="13.4" height="2.87"/>
                  <rect class="cls-10" x="319.16" y="721.08" width="13.4" height="2.87"/>
                  <rect class="cls-10" x="319.16" y="728.26" width="13.4" height="2.87"/>
                  <rect class="cls-10" x="319.16" y="735.44" width="13.4" height="2.87"/>
                  <rect class="cls-10" x="319.16" y="742.62" width="13.4" height="2.87"/>
                  <rect class="cls-10" x="319.16" y="749.8" width="13.4" height="2.87"/>
                  <rect class="cls-10" x="319.16" y="756.98" width="13.4" height="2.87"/>
                  <rect class="cls-10" x="319.16" y="764.16" width="13.4" height="2.87"/>
                  <rect class="cls-10" x="319.16" y="771.34" width="13.4" height="2.87"/>
                  <rect class="cls-10" x="319.16" y="778.52" width="13.4" height="2.87"/>
                  <rect class="cls-10" x="319.16" y="785.7" width="13.4" height="2.87"/>
                  <rect class="cls-10" x="319.16" y="792.88" width="13.4" height="2.87"/>
                  <rect class="cls-10" x="319.16" y="800.06" width="13.4" height="2.87"/>
                  <rect class="cls-10" x="319.16" y="807.24" width="13.4" height="2.87"/>
                  <rect class="cls-10" x="319.16" y="814.42" width="13.4" height="2.87"/>
                  <rect class="cls-10" x="319.16" y="821.6" width="13.4" height="2.87"/>
                  <rect class="cls-10" x="319.16" y="828.78" width="13.4" height="2.87"/>
                  <rect class="cls-10" x="319.16" y="835.96" width="13.4" height="2.87"/>
                  <rect class="cls-10" x="319.16" y="843.14" width="13.4" height="2.87"/>
                  <rect class="cls-10" x="319.16" y="850.32" width="13.4" height="2.87"/>
                  <rect class="cls-10" x="319.16" y="857.5" width="13.4" height="2.87"/>
                  <rect class="cls-10" x="319.16" y="864.68" width="13.4" height="2.87"/>
                  <rect class="cls-10" x="319.16" y="871.86" width="13.4" height="2.87"/>
                  <rect class="cls-10" x="319.16" y="879.04" width="13.4" height="2.87"/>
                  <rect class="cls-10" x="319.16" y="886.22" width="13.4" height="2.87"/>
                  <rect class="cls-10" x="319.16" y="893.4" width="13.4" height="2.87"/>
                  <rect class="cls-10" x="347.64" y="655.5" width="6.22" height="2.87"/>
                  <rect class="cls-10" x="347.64" y="662.68" width="6.22" height="2.87"/>
                  <rect class="cls-10" x="347.64" y="669.86" width="6.22" height="2.87"/>
                  <rect class="cls-10" x="347.64" y="677.04" width="6.22" height="2.87"/>
                  <rect class="cls-10" x="347.64" y="684.22" width="6.22" height="2.87"/>
                  <rect class="cls-10" x="347.64" y="691.4" width="6.22" height="2.87"/>
                  <rect class="cls-10" x="347.64" y="698.58" width="6.22" height="2.87"/>
                  <rect class="cls-10" x="347.64" y="705.76" width="6.22" height="2.87"/>
                  <rect class="cls-10" x="347.64" y="712.94" width="6.22" height="2.87"/>
                  <rect class="cls-10" x="347.64" y="720.12" width="6.22" height="2.87"/>
                  <rect class="cls-10" x="347.64" y="727.3" width="6.22" height="2.87"/>
                  <rect class="cls-10" x="347.64" y="734.48" width="6.22" height="2.87"/>
                  <rect class="cls-10" x="347.64" y="741.66" width="6.22" height="2.87"/>
                  <rect class="cls-10" x="347.64" y="748.84" width="6.22" height="2.87"/>
                  <rect class="cls-10" x="347.64" y="756.02" width="6.22" height="2.87"/>
                  <rect class="cls-10" x="347.64" y="763.2" width="6.22" height="2.87"/>
                  <rect class="cls-10" x="347.64" y="770.38" width="6.22" height="2.87"/>
                  <rect class="cls-10" x="347.64" y="777.56" width="6.22" height="2.87"/>
                  <rect class="cls-10" x="347.64" y="784.74" width="6.22" height="2.87"/>
                  <rect class="cls-10" x="347.64" y="791.92" width="6.22" height="2.87"/>
                  <rect class="cls-10" x="347.64" y="799.1" width="6.22" height="2.87"/>
                  <rect class="cls-10" x="347.64" y="806.28" width="6.22" height="2.87"/>
                  <rect class="cls-10" x="347.64" y="813.46" width="6.22" height="2.87"/>
                  <rect class="cls-10" x="347.64" y="820.64" width="6.22" height="2.87"/>
                  <rect class="cls-10" x="347.64" y="827.82" width="6.22" height="2.87"/>
                  <rect class="cls-10" x="347.64" y="835" width="6.22" height="2.87"/>
                  <rect class="cls-10" x="347.64" y="842.18" width="6.22" height="2.87"/>
                  <rect class="cls-10" x="347.64" y="849.37" width="6.22" height="2.87"/>
                  <rect class="cls-10" x="347.64" y="856.55" width="6.22" height="2.87"/>
                  <rect class="cls-10" x="347.64" y="863.73" width="6.22" height="2.87"/>
                  <rect class="cls-10" x="347.64" y="870.91" width="6.22" height="2.87"/>
                  <rect class="cls-10" x="347.64" y="878.09" width="6.22" height="2.87"/>
                  <rect class="cls-10" x="347.64" y="885.27" width="6.22" height="2.87"/>
                  <rect class="cls-10" x="347.64" y="892.45" width="6.22" height="2.87"/>
                  <rect class="cls-10" x="339.27" y="655.5" width="6.22" height="2.87"/>
                  <rect class="cls-10" x="339.27" y="662.68" width="6.22" height="2.87"/>
                  <rect class="cls-10" x="339.27" y="669.86" width="6.22" height="2.87"/>
                  <rect class="cls-10" x="339.27" y="677.04" width="6.22" height="2.87"/>
                  <rect class="cls-10" x="339.27" y="684.22" width="6.22" height="2.87"/>
                  <rect class="cls-10" x="339.27" y="691.4" width="6.22" height="2.87"/>
                  <rect class="cls-10" x="339.27" y="698.58" width="6.22" height="2.87"/>
                  <rect class="cls-10" x="339.27" y="705.76" width="6.22" height="2.87"/>
                  <rect class="cls-10" x="339.27" y="712.94" width="6.22" height="2.87"/>
                  <rect class="cls-10" x="339.27" y="720.12" width="6.22" height="2.87"/>
                  <rect class="cls-10" x="339.27" y="727.3" width="6.22" height="2.87"/>
                  <rect class="cls-10" x="339.27" y="734.48" width="6.22" height="2.87"/>
                  <rect class="cls-10" x="339.27" y="741.66" width="6.22" height="2.87"/>
                  <rect class="cls-10" x="339.27" y="748.84" width="6.22" height="2.87"/>
                  <rect class="cls-10" x="339.27" y="756.02" width="6.22" height="2.87"/>
                  <rect class="cls-10" x="339.27" y="763.2" width="6.22" height="2.87"/>
                  <rect class="cls-10" x="339.27" y="770.38" width="6.22" height="2.87"/>
                  <rect class="cls-10" x="339.27" y="777.56" width="6.22" height="2.87"/>
                  <rect class="cls-10" x="339.27" y="784.74" width="6.22" height="2.87"/>
                  <rect class="cls-10" x="339.27" y="791.92" width="6.22" height="2.87"/>
                  <rect class="cls-10" x="339.27" y="799.1" width="6.22" height="2.87"/>
                  <rect class="cls-10" x="339.27" y="806.28" width="6.22" height="2.87"/>
                  <rect class="cls-10" x="339.27" y="813.46" width="6.22" height="2.87"/>
                  <rect class="cls-10" x="339.27" y="820.64" width="6.22" height="2.87"/>
                  <rect class="cls-10" x="339.27" y="827.82" width="6.22" height="2.87"/>
                  <rect class="cls-10" x="339.27" y="835" width="6.22" height="2.87"/>
                  <rect class="cls-10" x="339.27" y="842.18" width="6.22" height="2.87"/>
                  <rect class="cls-10" x="339.27" y="849.37" width="6.22" height="2.87"/>
                  <rect class="cls-10" x="339.27" y="856.55" width="6.22" height="2.87"/>
                  <rect class="cls-10" x="339.27" y="863.73" width="6.22" height="2.87"/>
                  <rect class="cls-10" x="339.27" y="870.91" width="6.22" height="2.87"/>
                  <rect class="cls-10" x="339.27" y="878.09" width="6.22" height="2.87"/>
                  <rect class="cls-10" x="339.27" y="885.27" width="6.22" height="2.87"/>
                  <rect class="cls-10" x="339.27" y="892.45" width="6.22" height="2.87"/>
                  <rect class="cls-23" x="364.88" y="902.98" width="8.62" height="17.23"/>
                  <rect class="cls-23" x="349.56" y="902.98" width="8.62" height="17.23"/>
                  <rect class="cls-23" x="334.24" y="902.98" width="8.62" height="17.23"/>
                  <rect class="cls-23" x="318.92" y="902.98" width="8.62" height="17.23"/>
                  <rect class="cls-14" x="132.38" y="875.19" width="251.21" height="170.19"/>
                  <rect class="cls-10" x="147.32" y="890.13" width="10.86" height="12.22"/>
                  <rect class="cls-10" x="164.97" y="890.13" width="10.86" height="12.22"/>
                  <rect class="cls-10" x="147.32" y="917.29" width="10.86" height="12.22"/>
                  <rect class="cls-10" x="164.97" y="917.29" width="10.86" height="12.22"/>
                  <rect class="cls-10" x="147.32" y="944.44" width="10.86" height="12.22"/>
                  <rect class="cls-10" x="164.97" y="944.44" width="10.86" height="12.22"/>
                  <rect class="cls-10" x="147.32" y="971.6" width="10.86" height="12.22"/>
                  <rect class="cls-10" x="164.97" y="971.6" width="10.86" height="12.22"/>
                  <rect class="cls-10" x="147.32" y="998.76" width="10.86" height="12.22"/>
                  <rect class="cls-10" x="164.97" y="998.76" width="10.86" height="12.22"/>
                  <rect class="cls-10" x="245.09" y="890.81" width="10.86" height="12.22"/>
                  <rect class="cls-10" x="262.74" y="890.81" width="10.86" height="12.22"/>
                  <rect class="cls-10" x="245.09" y="917.97" width="10.86" height="12.22"/>
                  <rect class="cls-10" x="262.74" y="917.97" width="10.86" height="12.22"/>
                  <rect class="cls-10" x="245.09" y="945.12" width="10.86" height="12.22"/>
                  <rect class="cls-10" x="262.74" y="945.12" width="10.86" height="12.22"/>
                  <rect class="cls-10" x="245.09" y="972.28" width="10.86" height="12.22"/>
                  <rect class="cls-10" x="262.74" y="972.28" width="10.86" height="12.22"/>
                  <rect class="cls-10" x="245.09" y="999.44" width="10.86" height="12.22"/>
                  <rect class="cls-10" x="262.74" y="999.44" width="10.86" height="12.22"/>
                  <rect class="cls-10" x="342.86" y="891.49" width="10.86" height="12.22"/>
                  <rect class="cls-10" x="360.51" y="891.49" width="10.86" height="12.22"/>
                  <rect class="cls-10" x="342.86" y="918.65" width="10.86" height="12.22"/>
                  <rect class="cls-10" x="360.51" y="918.65" width="10.86" height="12.22"/>
                  <rect class="cls-10" x="342.86" y="945.8" width="10.86" height="12.22"/>
                  <rect class="cls-10" x="360.51" y="945.8" width="10.86" height="12.22"/>
                  <rect class="cls-10" x="342.86" y="972.96" width="10.86" height="12.22"/>
                  <rect class="cls-10" x="360.51" y="972.96" width="10.86" height="12.22"/>
                  <rect class="cls-10" x="342.86" y="1000.12" width="10.86" height="12.22"/>
                  <rect class="cls-10" x="360.51" y="1000.12" width="10.86" height="12.22"/>
                  <rect class="cls-6" x="189.87" y="875.19" width="14.48" height="170.19"/>
                  <rect class="cls-6" x="215.67" y="875.19" width="14.48" height="170.19"/>
                  <rect class="cls-6" x="288.09" y="875.19" width="14.48" height="170.19"/>
                  <rect class="cls-6" x="313.89" y="875.19" width="14.48" height="170.19"/>
                  <rect class="cls-6" x="680.55" y="737.65" width="120.85" height="25.8"/>
                  <rect class="cls-6" x="687.34" y="730.73" width="107.27" height="15.87"/>
                  <rect class="cls-14" x="666.52" y="759.37" width="147.1" height="286.04"/>
                  <rect class="cls-6" x="569.61" y="901.91" width="286" height="0.91" transform="translate(-192.82 1611.08) rotate(-89.75)"/>
                  <rect class="cls-6" x="622.57" y="901.91" width="286" height="0.91" transform="translate(-140.09 1664.04) rotate(-89.75)"/>
                  <rect class="cls-6" x="675.12" y="767.52" width="10.86" height="12.22"/>
                  <rect class="cls-6" x="692.78" y="767.52" width="10.86" height="12.22"/>
                  <rect class="cls-6" x="775.9" y="768.58" width="10.86" height="12.22"/>
                  <rect class="cls-6" x="793.55" y="768.58" width="10.86" height="12.22"/>
                  <rect class="cls-6" x="724.75" y="768.13" width="10.86" height="12.22"/>
                  <rect class="cls-6" x="742.41" y="768.13" width="10.86" height="12.22"/>
                  <rect class="cls-6" x="675.12" y="794.67" width="10.86" height="12.22"/>
                  <rect class="cls-6" x="692.78" y="794.67" width="10.86" height="12.22"/>
                  <rect class="cls-6" x="775.9" y="795.74" width="10.86" height="12.22"/>
                  <rect class="cls-6" x="793.55" y="795.74" width="10.86" height="12.22"/>
                  <rect class="cls-6" x="724.75" y="795.29" width="10.86" height="12.22"/>
                  <rect class="cls-6" x="742.41" y="795.29" width="10.86" height="12.22"/>
                  <rect class="cls-6" x="675.12" y="821.83" width="10.86" height="12.22"/>
                  <rect class="cls-6" x="692.78" y="821.83" width="10.86" height="12.22"/>
                  <rect class="cls-6" x="775.9" y="822.9" width="10.86" height="12.22"/>
                  <rect class="cls-6" x="793.55" y="822.9" width="10.86" height="12.22"/>
                  <rect class="cls-6" x="724.75" y="822.45" width="10.86" height="12.22"/>
                  <rect class="cls-6" x="742.41" y="822.45" width="10.86" height="12.22"/>
                  <rect class="cls-6" x="675.12" y="848.99" width="10.86" height="12.22"/>
                  <rect class="cls-6" x="692.78" y="848.99" width="10.86" height="12.22"/>
                  <rect class="cls-6" x="775.9" y="850.06" width="10.86" height="12.22"/>
                  <rect class="cls-6" x="793.55" y="850.06" width="10.86" height="12.22"/>
                  <rect class="cls-6" x="724.75" y="849.6" width="10.86" height="12.22"/>
                  <rect class="cls-6" x="742.41" y="849.6" width="10.86" height="12.22"/>
                  <rect class="cls-6" x="675.12" y="876.15" width="10.86" height="12.22"/>
                  <rect class="cls-6" x="692.78" y="876.15" width="10.86" height="12.22"/>
                  <rect class="cls-6" x="775.9" y="877.21" width="10.86" height="12.22"/>
                  <rect class="cls-6" x="793.55" y="877.21" width="10.86" height="12.22"/>
                  <rect class="cls-6" x="724.75" y="876.76" width="10.86" height="12.22"/>
                  <rect class="cls-6" x="742.41" y="876.76" width="10.86" height="12.22"/>
                  <rect class="cls-6" x="675.12" y="903.3" width="10.86" height="12.22"/>
                  <rect class="cls-6" x="692.78" y="903.3" width="10.86" height="12.22"/>
                  <rect class="cls-6" x="775.9" y="904.37" width="10.86" height="12.22"/>
                  <rect class="cls-6" x="793.55" y="904.37" width="10.86" height="12.22"/>
                  <rect class="cls-6" x="724.75" y="903.92" width="10.86" height="12.22"/>
                  <rect class="cls-6" x="742.41" y="903.92" width="10.86" height="12.22"/>
                  <rect class="cls-6" x="675.12" y="930.46" width="10.86" height="12.22"/>
                  <rect class="cls-6" x="692.78" y="930.46" width="10.86" height="12.22"/>
                  <rect class="cls-6" x="775.9" y="931.53" width="10.86" height="12.22"/>
                  <rect class="cls-6" x="793.55" y="931.53" width="10.86" height="12.22"/>
                  <rect class="cls-6" x="724.75" y="931.08" width="10.86" height="12.22"/>
                  <rect class="cls-6" x="742.41" y="931.08" width="10.86" height="12.22"/>
                  <rect class="cls-6" x="675.12" y="957.62" width="10.86" height="12.22"/>
                  <rect class="cls-6" x="692.78" y="957.62" width="10.86" height="12.22"/>
                  <rect class="cls-6" x="775.9" y="958.69" width="10.86" height="12.22"/>
                  <rect class="cls-6" x="793.55" y="958.69" width="10.86" height="12.22"/>
                  <rect class="cls-6" x="724.75" y="958.24" width="10.86" height="12.22"/>
                  <rect class="cls-6" x="742.41" y="958.24" width="10.86" height="12.22"/>
                  <rect class="cls-6" x="675.12" y="984.78" width="10.86" height="12.22"/>
                  <rect class="cls-6" x="692.78" y="984.78" width="10.86" height="12.22"/>
                  <rect class="cls-6" x="775.9" y="985.85" width="10.86" height="12.22"/>
                  <rect class="cls-6" x="793.55" y="985.85" width="10.86" height="12.22"/>
                  <rect class="cls-6" x="724.75" y="985.39" width="10.86" height="12.22"/>
                  <rect class="cls-6" x="742.41" y="985.39" width="10.86" height="12.22"/>
                  <rect class="cls-12" x="530.87" y="805.66" width="136.69" height="237.18"/>
                  <rect class="cls-6" x="530.87" y="1027.37" width="136.69" height="4.53"/>
                  <rect class="cls-6" x="530.87" y="1014.23" width="136.69" height="4.53"/>
                  <rect class="cls-6" x="530.87" y="1001.02" width="136.69" height="4.53"/>
                  <rect class="cls-6" x="530.87" y="987.88" width="136.69" height="4.53"/>
                  <rect class="cls-6" x="530.87" y="974.68" width="136.69" height="4.53"/>
                  <rect class="cls-6" x="530.87" y="961.53" width="136.69" height="4.53"/>
                  <rect class="cls-6" x="530.87" y="948.33" width="136.69" height="4.53"/>
                  <rect class="cls-6" x="530.87" y="935.19" width="136.69" height="4.53"/>
                  <rect class="cls-6" x="530.87" y="921.98" width="136.69" height="4.53"/>
                  <rect class="cls-6" x="530.87" y="908.78" width="136.69" height="4.53"/>
                  <rect class="cls-6" x="530.87" y="895.64" width="136.69" height="4.53"/>
                  <rect class="cls-6" x="530.87" y="882.44" width="136.69" height="4.53"/>
                  <rect class="cls-6" x="530.87" y="869.29" width="136.69" height="4.53"/>
                  <rect class="cls-6" x="530.87" y="856.09" width="136.69" height="4.53"/>
                  <rect class="cls-6" x="530.87" y="842.94" width="136.69" height="4.53"/>
                  <rect class="cls-6" x="530.87" y="829.74" width="136.69" height="4.53"/>
                  <rect class="cls-6" x="530.87" y="816.6" width="136.69" height="4.53"/>
                  <rect class="cls-12" x="579.75" y="781.22" width="69.71" height="24.44"/><rect class="cls-6" x="424.28" y="921.98" width="237.18" height="4.53" transform="translate(-382.54 1465.13) rotate(-89.88)"/>
                  <rect class="cls-6" x="463.57" y="920.66" width="133.69" height="9.31"/><rect class="cls-6" x="522.76" y="637.2" width="21.15" height="408.27"/>
                  <rect class="cls-10" x="519.38" y="577.97" width="27.08" height="104.08"/>
                  <path class="cls-6" d="M543.91,521.7c0,43.69-4.92,79.11-11,79.11s-11-35.42-11-79.11,4.93-79.12,11-79.12S543.91,478,543.91,521.7Z"/>
                  <path class="cls-5" d="M608.22,380c0,5.86-19.54,11.59-43.15,19.46-12.69,4.23-49.29,3.8-60.93,0-23.91-7.83-44-13.39-44-19.46,0-8.42,33.15-15.24,74-15.24S608.22,371.55,608.22,380Z"/>
                  <path class="cls-5" d="M626.84,442.51c-.16-5-23.81-1.43-52.46-3.31-12.48-.82-63.62-.7-75.31,0-30.38,1.8-53.89-1.88-54.16,3.31-.32,6.19,40.45,16.92,90.12,16.92S627,448.71,626.84,442.51Z"/>
                  <rect class="cls-10" x="512.6" y="354.58" width="48.23" height="16.08"/>
                  <polygon class="cls-5" points="534.61 228.69 528.68 357.12 543.07 356 534.61 228.69"/>
                  <rect class="cls-6" x="449.14" y="422.27" width="170.93" height="17.77"/>
                  <path class="cls-10" d="M609.11,923.51c-11.9-5.51-41.76-9.43-76.75-9.43s-64.85,3.92-76.74,9.43Z"/>
                  <path class="cls-10" d="M609.11,927.13c-9.4,5.51-39.26,9.42-74.25,9.42s-64.85-3.91-79.24-9.42Z"/>
                  <rect class="cls-10" x="510.91" y="716.74" width="44.85" height="10.15"/>
                  <rect class="cls-10" x="515.14" y="775.97" width="35.54" height="10.15"/>
                  <rect class="cls-10" x="515.99" y="819.97" width="35.54" height="10.15"/>
                  <rect class="cls-10" x="510.91" y="863.97" width="41.46" height="10.15"/>
                  <rect class="cls-10" x="503.3" y="951.97" width="59.23" height="10.15"/>
                  <rect class="cls-10" x="497.38" y="995.97" width="71.08" height="10.15"/>
                  <path class="cls-5" d="M626,416.35c0,4.32-25.63,6.79-54.29,8.66-12.47.82-62.32.7-74,0-30.37-1.8-53.62-4.18-53.62-8.66,0-6.2,40.44-16.92,90.11-16.92S626,410.15,626,416.35Z"/>
                  <path class="cls-5" d="M649.68,418.67c0,1.87-30,5.39-66.28,6.21-15.77.35-78.79.3-93.58,0-38.4-.78-67.58-4.27-67.58-6.21,0-2.68,50.92-4.86,113.72-4.86S649.68,416,649.68,418.67Z"/>
                  <rect class="cls-24" x="454.64" y="411.27" width="157.39" height="8.46"/>
                  <path class="cls-10" d="M612.66,420.37H454v-9.73H612.66ZM455.28,419.1H611.39v-7.19H455.28Z"/>
                  <path class="cls-10" d="M612.66,420.37H454v-9.73H612.66ZM455.28,419.1H611.39v-7.19H455.28Z"/>
                  <rect class="cls-10" x="601.56" y="411.27" width="1.27" height="8.46"/>
                  <rect class="cls-10" x="591.72" y="411.27" width="1.27" height="8.46"/>
                  <rect class="cls-10" x="581.88" y="411.27" width="1.27" height="8.46"/>
                  <rect class="cls-10" x="572.05" y="411.27" width="1.27" height="8.46"/>
                  <rect class="cls-10" x="562.21" y="411.27" width="1.27" height="8.46"/>
                  <rect class="cls-10" x="552.37" y="411.27" width="1.27" height="8.46"/>
                  <rect class="cls-10" x="542.54" y="411.27" width="1.27" height="8.46"/>
                  <rect class="cls-10" x="532.7" y="411.27" width="1.27" height="8.46"/>
                  <rect class="cls-10" x="522.86" y="411.27" width="1.27" height="8.46"/>
                  <rect class="cls-10" x="513.03" y="411.27" width="1.27" height="8.46"/>
                  <rect class="cls-10" x="503.19" y="411.27" width="1.27" height="8.46"/>
                  <rect class="cls-10" x="493.35" y="411.27" width="1.27" height="8.46"/>
                  <rect class="cls-10" x="483.52" y="411.27" width="1.27" height="8.46"/>
                  <rect class="cls-10" x="473.68" y="411.27" width="1.27" height="8.46"/>
                  <rect class="cls-10" x="463.85" y="411.27" width="1.27" height="8.46"/>
                  <path class="cls-10" d="M510.07,663.26c-4,119.11-38.07,322.24-63.85,382.64h11c25.95-66.05,59.12-264.9,63-382.3C523.6,562.14,475.48,443.53,475,442.35l-9.39,3.85C466.08,447.37,513.38,564,510.07,663.26Z"/>
                  <path class="cls-10" d="M532.06,645.45c-3.36-79.8-24.39-201.67-24.61-202.89l-10,1.74c.21,1.21,21.14,122.44,24.47,201.57.79,18.77-5,99.21-15.46,215.19-8.15,90.19-15.51,161.77-18.56,184.84h10.23c1.12-8.51,2.84-23.51,5.62-50.36,3.71-35.94,8.27-83.35,12.5-130.06C520.27,821.14,533.27,674.24,532.06,645.45Z"/>
                  <path class="cls-10" d="M562.08,998.08c2.52,24.36,4.17,39,5.29,47.82H577.6c-3.23-25.45-10.37-95.2-18.23-182.3-10.47-116-16.25-196.42-15.46-215.19,3.33-79.16,23.43-203.77,23.63-205l-10-1.62c-.21,1.25-20.4,126.45-23.76,206.21-1.21,28.8,11.8,175.7,15.81,220C553.8,914.73,558.36,962.14,562.08,998.08Z"/>
                  <path class="cls-10" d="M618.3,1045.26c-25.61-64-58.64-262.36-62.54-379.46-3.31-99.25,44-215.9,44.47-217.06l-9.4-3.85c-.48,1.18-48.6,119.79-45.22,221.25,3.85,115.57,36.07,310.09,61.82,379.12Z"/>
                  <polygon class="cls-25" points="1004.27 1356.33 78.75 1356.5 79 1043.66 1005 1046.66 1004.27 1356.33"/>
                  <path class="cls-3" d="M518.78,1106.78s4.65-.41,11.63-.7c1.74-.07,3.63-.16,5.63-.21s4.11-.13,6.29-.16,4.44-.1,6.73-.11l6.94,0,6.94,0c2.29,0,4.55.07,6.73.1,4.36.09,8.43.22,11.92.38,7,.29,11.63.7,11.63.7s-4.65.41-11.63.7c-3.49.16-7.56.29-11.92.37-2.18,0-4.44.11-6.73.11l-6.94,0-6.94,0c-2.29,0-4.55-.08-6.73-.11s-4.29-.1-6.29-.16-3.89-.14-5.63-.21C523.43,1107.19,518.78,1106.78,518.78,1106.78Z"/>
                  <path class="cls-3" d="M462.12,1151.9s4.65-.4,11.63-.69c1.74-.08,3.63-.16,5.63-.21s4.11-.14,6.29-.17,4.44-.1,6.73-.1l6.94,0,6.94,0c2.29,0,4.55.07,6.73.1,4.36.08,8.43.22,11.92.37,7,.29,11.63.7,11.63.7s-4.65.42-11.63.71c-3.49.15-7.56.28-11.92.37-2.18,0-4.44.1-6.73.1l-6.94,0-6.94,0c-2.29,0-4.55-.07-6.73-.1s-4.29-.11-6.29-.17-3.89-.13-5.63-.21C466.77,1152.31,462.12,1151.9,462.12,1151.9Z"/>
                  <path class="cls-3" d="M478.39,1268.26s4.65-.41,11.63-.7c1.75-.07,3.64-.16,5.64-.21s4.1-.13,6.29-.16,4.43-.1,6.72-.11l6.94,0,6.95,0c2.29,0,4.54.07,6.72.11,4.36.08,8.44.21,11.93.37,7,.29,11.63.7,11.63.7s-4.66.41-11.63.7c-3.49.16-7.57.29-11.93.37-2.18,0-4.43.11-6.72.11l-6.95,0-6.94,0c-2.29,0-4.54-.08-6.72-.11s-4.29-.1-6.29-.16-3.89-.14-5.64-.21C483,1268.67,478.39,1268.26,478.39,1268.26Z"/>
                  <path class="cls-3" d="M384.58,1173.69s4.65-.41,11.63-.7c1.75-.07,3.64-.15,5.64-.21s4.11-.13,6.29-.16,4.43-.1,6.72-.11l6.95,0,6.94,0c2.29,0,4.54.08,6.72.11,4.37.08,8.44.21,11.93.37,7,.29,11.63.7,11.63.7s-4.65.41-11.63.7c-3.49.16-7.56.29-11.93.38-2.18,0-4.43.1-6.72.1l-6.94,0-6.95,0c-2.29,0-4.54-.07-6.72-.11s-4.29-.1-6.29-.16-3.89-.13-5.64-.21C389.23,1174.1,384.58,1173.69,384.58,1173.69Z"/>
                  <path class="cls-3" d="M532.82,1176.7l7.87-.15,9-.14c3.49-.06,7.42-.12,11.71-.16l13.86-.13,15.47-.12,16.54-.07,17.08,0,17.08,0L658,1176c10.73,0,20.74.18,29.33.25,4.29,0,8.22.1,11.71.16l9,.14,7.87.15-7.87.16-9,.14c-3.49.06-7.42.12-11.71.15-8.59.07-18.6.21-29.33.26l-16.54.06-17.08,0-17.08,0-16.54-.06-15.47-.13-13.86-.13c-4.29,0-8.22-.09-11.71-.15l-9-.14Z"/>
                  <path class="cls-3" d="M420.66,1302l12-.23,13.78-.22c5.33-.09,11.33-.18,17.88-.23l21.15-.2,23.61-.19,25.25-.1,26.06,0,26.07,0,25.25.11c16.37.07,31.66.28,44.76.39,6.55,0,12.55.14,17.88.23l13.78.21,12,.24-12,.24-13.78.22c-5.33.08-11.33.18-17.88.23-13.1.11-28.39.31-44.76.39l-25.25.1-26.07,0-26.06,0-25.25-.11-23.61-.18-21.15-.2c-6.55,0-12.55-.15-17.88-.24l-13.78-.21Z"/>
                  <path class="cls-3" d="M620.81,1267.3s3.05-.41,7.63-.7c1.14-.08,2.38-.16,3.69-.21s2.7-.14,4.13-.16,2.9-.1,4.41-.11l4.55,0,4.55,0c1.5,0,3,.07,4.41.1,2.86.09,5.53.22,7.82.38,4.58.29,7.63.7,7.63.7s-3,.41-7.63.7c-2.29.16-5,.29-7.82.37-1.43,0-2.91.11-4.41.11l-4.55,0-4.55,0c-1.51,0-3-.08-4.41-.11s-2.82-.11-4.13-.16-2.55-.14-3.69-.21C623.86,1267.71,620.81,1267.3,620.81,1267.3Z"/>
                  <path class="cls-3" d="M710.26,1220.64s3-.41,7.63-.7c1.14-.07,2.38-.16,3.69-.21s2.7-.13,4.13-.16,2.9-.1,4.41-.11l4.55,0,4.55,0c1.5,0,3,.07,4.41.1,2.86.09,5.53.22,7.82.38,4.58.29,7.63.7,7.63.7s-3.05.41-7.63.7c-2.29.16-5,.29-7.82.37-1.43,0-2.91.11-4.41.11l-4.55,0-4.55,0c-1.51,0-3-.08-4.41-.11s-2.82-.1-4.13-.16-2.55-.14-3.69-.21C713.31,1221.05,710.26,1220.64,710.26,1220.64Z"/>
                  <path class="cls-3" d="M581.93,1218.81s.69-.1,1.89-.24,2.92-.31,5-.45c1-.08,2.14-.16,3.32-.21s2.43-.14,3.72-.17,2.61-.1,4-.1l4.1-.05,4.1,0c1.35,0,2.68.08,4,.11,2.57.08,5,.22,7,.37s3.77.33,5,.46,1.89.24,1.89.24-.69.11-1.89.25-2.91.31-5,.46-4.47.28-7,.37c-1.29,0-2.62.1-4,.11l-4.1,0-4.1,0c-1.35,0-2.68-.07-4-.1s-2.54-.11-3.72-.17-2.29-.13-3.32-.21c-2.06-.14-3.78-.32-5-.45S581.93,1218.81,581.93,1218.81Z"/>
                  <path class="cls-3" d="M480.93,1210.78s3.05-.41,7.63-.69c1.14-.08,2.38-.16,3.69-.21s2.7-.14,4.13-.17,2.91-.1,4.41-.1l4.55,0,4.55,0c1.51,0,3,.08,4.41.11,2.86.08,5.53.21,7.82.37,4.58.29,7.63.7,7.63.7s-3,.41-7.63.7c-2.29.16-5,.29-7.82.38-1.43,0-2.9.1-4.41.1l-4.55,0-4.55,0c-1.5,0-3-.07-4.41-.11s-2.81-.1-4.13-.16-2.55-.13-3.69-.21C484,1211.19,480.93,1210.78,480.93,1210.78Z"/>
                  <path class="cls-3" d="M870.68,1110.27s.48-.11,1.31-.24,2-.32,3.46-.46,3.09-.28,4.88-.38,3.7-.14,5.6-.14,3.82,0,5.61.14,3.45.22,4.88.38,2.62.32,3.46.45,1.31.25,1.31.25-.48.1-1.31.24-2,.32-3.46.46-3.1.28-4.88.38-3.7.13-5.61.14-3.81,0-5.6-.14-3.45-.22-4.88-.38-2.63-.32-3.46-.46S870.68,1110.27,870.68,1110.27Z"/>
                  <path class="cls-3" d="M347.56,1129.34s.48-.1,1.31-.24,2-.31,3.46-.45,3.1-.28,4.89-.39,3.69-.13,5.6-.14,3.81.05,5.6.14,3.46.22,4.89.38,2.62.32,3.45.46,1.31.24,1.31.24-.47.11-1.31.25-2,.31-3.45.45-3.1.28-4.89.39-3.7.13-5.6.13-3.82,0-5.6-.14-3.46-.22-4.89-.38-2.62-.32-3.46-.46S347.56,1129.34,347.56,1129.34Z"/>
                  <path class="cls-3" d="M937.14,1173.08s.48-.1,1.31-.24,2-.31,3.46-.46,3.1-.28,4.89-.38,3.69-.14,5.6-.14,3.81.05,5.6.14,3.46.22,4.89.38,2.62.32,3.45.46,1.31.24,1.31.24-.47.11-1.31.24-2,.32-3.45.46-3.1.28-4.89.38-3.69.14-5.6.14-3.82,0-5.6-.14-3.46-.22-4.89-.38-2.62-.32-3.46-.46S937.14,1173.08,937.14,1173.08Z"/>
                  <path class="cls-3" d="M772.74,1097.22s.48-.11,1.32-.24,2-.32,3.45-.46,3.1-.28,4.89-.38,3.69-.14,5.6-.14,3.81,0,5.6.14,3.46.22,4.89.38,2.62.32,3.45.46,1.32.24,1.32.24-.48.11-1.32.24-2,.32-3.45.46-3.1.28-4.89.38-3.69.14-5.6.14-3.81,0-5.6-.14-3.46-.22-4.89-.38-2.62-.32-3.45-.46S772.74,1097.22,772.74,1097.22Z"/>
                  <polygon class="cls-6" points="1004.75 1063.17 78.83 1062.8 78.98 1040.35 1004.92 1040.42 1004.75 1063.17"/>
                  <polygon class="cls-26" points="743.56 1355.66 757.2 1355.66 797.57 1352.66 803.02 1355.66 810.27 1355.66 803.99 1352.19 824.52 1350.66 831.41 1355.66 948 1355.66 949.88 1351.58 1001.56 1337.26 996.34 1320.66 757.93 1320.89 755.48 1326.31 755.7 1326.31 743.56 1355.66"/>
                  <path class="cls-10" d="M837.42,1102.94l-35.18,170.61,61.56-18.47S835.66,1121.41,837.42,1102.94Z"/>
                  <polygon class="cls-10" points="788.88 1298.04 866.33 1255.22 866.04 1251.56 787.19 1294.96 788.88 1298.04"/>
                  <rect class="cls-27" x="900.07" y="1266.36" width="49.65" height="1.76" transform="translate(-641.06 1171.78) rotate(-50.39)"/>
                  <rect class="cls-10" x="864.34" y="1249.11" width="80.38" height="4.4" transform="translate(-145.27 119.12) rotate(-6.98)"/>
                  <polygon class="cls-10" points="867.21 1017.62 867.32 1253.33 935.04 1245.41 867.21 1017.62"/>
                  <rect class="cls-28" x="863.8" y="956.95" width="2.64" height="330.73"/>
                  <polygon class="cls-10" points="743.71 1285.15 758.39 1320.69 995.39 1320.15 1000.08 1304.45 948.81 1290.25 945.7 1283.47 839.84 1279.98 824.45 1291.16 743.71 1285.15"/>
                  <polygon class="cls-28" points="758.39 1320.69 755.96 1315.32 996.05 1316.2 995.39 1320.15 758.39 1320.69"/>
                  <polygon class="cls-29 boat" points="729.96 1150.62 670.93 1150.62 667 1143.4 729.96 1147.34 729.96 1150.62"/>
                  <path class="cls-30 boat" d="M668.33,1139.47s-35.41-45.26,14.43-89.85c1.31,19.67,14.43,80.66,43.94,93.13C695.88,1142.09,668.33,1139.47,668.33,1139.47Z"/>
                  <path class="cls-30 boat" d="M372.4,1087.12s-23.72-30.31,9.66-60.18c.88,13.18,9.66,54,29.43,62.38C390.85,1088.88,372.4,1087.12,372.4,1087.12Z"/>
                  <polygon class="cls-29 boat" points="411.93 1092.83 372.4 1092.83 369.76 1088 411.93 1090.63 411.93 1092.83"/>
                  <path class="cls-3" d="M434.44,1080s3.05-.4,7.62-.69c1.15-.08,2.39-.16,3.7-.21s2.69-.14,4.12-.17,2.91-.1,4.41-.1l4.56,0,4.55,0c1.5,0,3,.08,4.41.11,2.86.08,5.53.21,7.82.37,4.57.29,7.63.7,7.63.7s-3.06.41-7.63.7c-2.29.16-5,.29-7.82.38-1.43,0-2.91.1-4.41.1l-4.55,0-4.56,0c-1.5,0-3-.07-4.41-.1s-2.81-.11-4.12-.17-2.55-.13-3.7-.21C437.49,1080.37,434.44,1080,434.44,1080Z"/>
                  <path class="cls-3" d="M323.14,1083.81s.48-.11,1.31-.24,2-.31,3.46-.46,3.1-.28,4.89-.38,3.69-.14,5.6-.14,3.81.05,5.6.14,3.46.22,4.89.38,2.62.32,3.45.46,1.31.24,1.31.24-.47.11-1.31.24-2,.32-3.45.46-3.1.28-4.89.38-3.7.14-5.6.14-3.82,0-5.6-.14-3.46-.22-4.89-.38-2.62-.32-3.46-.46S323.14,1083.81,323.14,1083.81Z"/>
                  <path class="cls-31" d="M216.76,1299.61c-46.29-1.84-59.33-28.48-59.33-28.48s11.08,1.83,25.43,11-.66-13.78-.66-13.78,12.39,3.68,30.65,7.35-8.48-13.78-8.48-13.78,18.91,0,33.25.92-11.08-16.54-11.08-16.54,5.21-4.6,18.25-5.52,5.21-14.7,2-23c18.25-3.67,7.82-11-2-14.7,13-6.43-3.26-10.1-17.6-.91s-46.29,4.59-62.59,1.83c-9.78-6.43-9.12-14.7.65-16.54,12.39,10.11,16.95,3.68,10.43-8.27,30.65,1.84,24.78-8.27,9.13-18.37,28.69.92,34.56-3.68,22.82-12.87,20.21-.92,20.86-10.1,11.08-20.21,24.78-7.35-14.34-8.27-37.81-12.86q13.69-2.76,9.78-11c15.65,0,13.69-11.94,3.91-21.14,20.21-3.67,15-18.37,7.17-16.53s-22.16-1.84-41.72-11c22.82-.92,28-17.46,13.69-23,26.08-8.27,24.12-16.54,17.6-23,8.48-6.43,9.78-12.86-2.6-12.86S136.57,1012,136.57,1012l.65-20.21s7.17,0,25.43-7.35c24.77-13.78-5.22-10.11-5.22-10.11s-3.91,2.76,7.82-9.19,5.87-20.21-5.86-6.42-20.86,16.53-20.86,16.53L149,962.4c10.43-12.86-5.22-6.43-5.22-6.43l-9.13,5.51,2-14.7s.85,2.46,14.34-8.27c28.91-23-7.17-10.11-7.17-10.11s5.87-7.35,18.25-28.48-5.86-7.35-5.86-7.35L143.74,910l5.87-15.62c5.87-15.63-2-17.46-7.17-2.76-2.35,6.63-13,23.27-13,23.27a358.52,358.52,0,0,1-2-37c0-20.22-7.17-21.14-7.17-.92s-.43,38.59-.43,38.59-11.65-17.3-14.77-23.89c-4.35-9.19-13-12.87-7.17,2.76L103.76,910s-7.39,3.06-17-5.52c-.71-.63-5.28-4.74-8.06-6v6.52c.64,1.25,1.42,2.68,2.4,4.35,10.78,18.38,19.9,19.15,22.1,19l.51-.05a3,3,0,0,1-.51.05c-3.18.35-19.67,2.56-6.66,10.06l14.34,8.27,2,14.7L103.76,956s-15.64-6.43-5.21,6.43L109,975.26s-9.13-2.75-20.86-16.53c-3.93-4.62-7.19-6.75-9.37-7.11V961a33.66,33.66,0,0,0,3.5,4.13c11.73,12,7.82,9.19,7.82,9.19s-6.87-.84-11.32-.2v6.5a58.31,58.31,0,0,0,6.11,3.81c18.25,7.35,25.42,7.35,25.42,7.35l-.6,13.83S100.59,999.2,79,987.86l-.28,66.05a38.63,38.63,0,0,0,8.71,1.29c-3,1.43-5.93,2.71-8.71,3.87v131a35.24,35.24,0,0,0,3.5-2.53c9.78,1.84,10.43,10.11.65,16.54-1.29.22-2.68.45-4.15.68v70a57.73,57.73,0,0,1,11.32-3.6s-3,6.17-11.32,12.77v72.58c21.27,0,40.21,0,40.22,0l8.88-.11-.41-2.6c.36.9,1.39,1.63,1.81,2.6h98.62c0-1.63-1.07-3.25-1.33-5.33,18.25,4.6,18.9-2.75,9.77-14.7,26.08,6.43,20.22-8.27,11.09-18.37C282.6,1308.8,263,1301.45,216.76,1299.61Z"/>
                  <path class="cls-31" d="M383.28,1264.79c9.37-3.28-2.35-5.16-12.66-.47s-33.29,2.35-45,.94c-7-3.28-6.56-7.5.47-8.44,8.91,5.16,12.19,1.88,7.5-4.22,22,.94,17.82-4.22,6.57-9.37,20.62.46,24.84-1.88,16.41-6.57,14.53-.47,15-5.15,8-10.31,17.81-3.75-10.32-4.22-27.2-6.57q9.85-1.4,7-5.62c11.25,0,9.84-6.1,2.81-10.78,14.53-1.88,10.78-9.38,5.16-8.44s-15.94-.94-30-5.63c16.41-.47,20.16-8.91,9.85-11.72,18.75-4.22,17.34-8.44,12.66-11.72,6.09-3.28,7-6.56-1.88-6.56s-37.51,8-37.51,8l.47-10.32s5.16,0,18.29-3.75c17.81-7-3.75-5.15-3.75-5.15s-2.82,1.4,5.62-4.69,4.22-10.32-4.22-3.28-15,8.44-15,8.44l7.5-6.57c7.5-6.56-3.75-3.28-3.75-3.28l-6.56,2.81,1.4-7.5s.61,1.26,10.32-4.22c20.78-11.72-5.16-5.15-5.16-5.15s4.22-3.75,13.13-14.54-4.22-3.75-4.22-3.75l-8.91,8.91,4.22-8c4.22-8-1.41-8.91-5.16-1.41-1.69,3.39-9.37,11.88-9.37,11.88a130.52,130.52,0,0,1-1.41-18.91c0-10.31-5.15-10.78-5.15-.47s-.32,19.69-.32,19.69-8.38-8.83-10.62-12.19c-3.13-4.68-9.38-6.56-5.16,1.41l4.22,8s-5.31,1.56-12.19-2.81c-1-.64-13-8.29-4.06,2.5,7.74,9.37,14.3,9.77,15.88,9.71l.37,0-.37,0c-2.28.18-14.14,1.31-4.78,5.13L287,1134l1.41,7.5-6.57-2.81s-11.25-3.28-3.75,3.28l7.5,6.57s-6.56-1.41-15-8.44-12.66-2.82-4.22,3.28,5.63,4.69,5.63,4.69-21.57-1.88-3.75,5.15c13.12,3.75,18.28,3.75,18.28,3.75l.47,10.32s-28.6-8-37.5-8-8,3.28-1.88,6.56c-4.69,3.28-6.1,7.5,12.66,11.72-10.32,2.81-6.57,11.25,9.84,11.72-14.06,4.69-24.38,6.57-30,5.63s-9.38,6.56,5.16,8.44c-7,4.68-8.44,10.78,2.81,10.78q-2.82,4.21,7,5.62c-16.88,2.35-45,2.82-27.19,6.57-7,5.16-6.56,9.84,8,10.31-8.44,4.69-4.22,7,16.41,6.57-11.25,5.15-15.47,10.31,6.56,9.37-4.69,6.1-1.41,9.38,7.5,4.22,7,.94,7.5,5.16.47,8.44-11.72,1.41-34.69,3.75-45-.94s-22-2.81-12.66.47c-7,1.88-14.54,5.63-1.41,7.5-2.34,4.22-8,11.25,1.41,11.72s13.12,2.82,13.12,2.82-18.28,8.9-8,8.43,23.91-.47,23.91-.47-19.22,8.91-6.09,7,22-3.75,22-3.75-10.78,11.72-.47,7a68.42,68.42,0,0,1,18.29-5.63s-7.8,16.47-41.09,17.41-25.6,7.33-10.46,8.27c-6.56,5.16-23.93,10.89-5.18,7.61-6.56,6.09-6.09,9.84,7,7.5-.93,5.16-.46,8,12.19,5.16-2.34,7-1.4,12.19,15,3.28-2,2.76-3.66,5.75-3.56,7.88h37.27c1.45-1.73,2.79-3.79,4.73-6.48a67.54,67.54,0,0,0,4.84-7.07l-.08,13.55H299l-.15-14.93a65.56,65.56,0,0,0,5.63,8.45c1.94,2.69,3.54,4.75,5,6.48h37c.1-2.13-1.53-5.12-3.5-7.88,16.41,8.91,17.35,3.75,15-3.28,12.66,2.81,13.13,0,12.19-5.16,13.13,2.34,13.6-1.41,7-7.5,18.75,3.28,14.54-4.22,8-9.38,10.33-4.32,9.08-11.34-22-9.37-33.23,2.1-42.66-14.54-42.66-14.54a68.3,68.3,0,0,1,18.28,5.63c10.32,4.69-.47-7-.47-7s8.91,1.87,22,3.75-6.1-7-6.1-7,13.6,0,23.91.47-8-8.43-8-8.43,3.75-2.35,13.13-2.82,3.75-7.5,1.4-11.72C397.81,1270.42,390.31,1266.67,383.28,1264.79Z"/>
                  <path class="cls-6" d="M502.63,1327.36c8.18,0,4.84-4.84-2.6-8.56,9.3.75,7.44-3,2.6-7.44,16.36,2.61,7.81-4.46-3-11.15,12.28-.37-.74-8.18-9.29-12.27,8.18,0,9.67-2.24,6.32-5.58,11.9-.38.37-4.46-7.81-9.3,14.88-1.86,10.78-8.55,2.6-8.93s-11.15,0-12.27-4.46c14.13-3.34,5.58-6-3-8.18,3.72-2.23,3-3-.37-3.72,11.15-1.86,9.29-5.2.74-7.43,8.55-2.61,2.23-5.58-1.86-7.44,10-.37,8.55-6.32-4.84-9.3,8.93-4.09,1.49-6.69-6.69-8.18,9.3-3.72,7.81-4.83,3.72-8.55,9.3-4.47,3-4.84,0-9.67,10.41-6.7-3.35-4.47-12.64-2.23,8.55-4.1,4.09-7.44-.75-8.56,6.69-4.83,4.47-7.81,1.49-8.92,9.67-7.44-1.49-7.07-8.55-4.84,4.09-6.32-3.72-3.35-1.12-7.81,4.09-7.06-4.09-4.09-4.09-4.09l4.09-6.32c4.84-8.55-2.6-4.46-2.6-4.46l-4.09,4.09.37-10.41c-1.49-13-6.32-.75-6.32-.75v12.27l-3.72-.74c-9.3-3.72-4.09,2.6-4.09,2.6s3,4.1,3,7.07c-11.53-.37-9.67,1.49-3.34,5.58-8.93,1.86-4.1,4.46-.75,5.58-21.57,5.57-10.41,6-6.69,7.06-12.27,3.72-5.58,6-.75,6.69s3.72,3.35.75,3.35c-12.27,3-7.44,5.21-3,6.32s3,3.35-.74,4.84c-27.15,8.18-16.36,9.67-12.64,10.41-6.7,3.72,3,4.46,3,4.46s-2.6,2.61-11.16,6.7,4.47,5.2,4.47,5.2-1.86,1.12-10.79,8.93c-8.58,7.51,7.59,5.74,8.84,5.59-.83.1-7.51,1.15-9.95,7.43-1.57,4-.45,3.61.7,2.64l-7,7c-8.55,8.56,1.49,7.81,1.49,7.81a75.46,75.46,0,0,0-8.93,10.41c-5.2,7.07,6.7.38,6.7.38s2.23,0-8.18,11.16,1.86,6.32,6.69,3.71c-5.95,9.67-2.6,9.67,3.72,8.56-17.11,16.36-9.3,14.13-4.83,11.9-9.67,8.18-3.35,14.13.74,13.39-17.48,16.36-9.67,22.31-5.95,20.08a37.8,37.8,0,0,0-2.34,7.37H509c.08-.4.28-.69.33-1.05,12.27,4.83.74-8.93-1.12-12.27,7.44.74,5.21-3.72,5.21-3.72l5.57-.75C524.57,1338.14,507.09,1331.08,502.63,1327.36Zm-55.12-118.83a18.69,18.69,0,0,0,3.41-.46,3.54,3.54,0,0,0,2.44-1.59,6,6,0,0,0,.18-3.33,4.37,4.37,0,0,1,.9,3.74,3.36,3.36,0,0,1-1.28,1.77,5.82,5.82,0,0,1-1.87.85,10.74,10.74,0,0,1-3.82.18,12.14,12.14,0,0,1-3.6-1Zm-1.46,19a26.21,26.21,0,0,0,3.81,2.07,5.67,5.67,0,0,0,1.91.49,1,1,0,0,0,1.14-.62c.43-1,.17-2.55-.09-3.91l-.34-1.81,1.49,1.06a19.47,19.47,0,0,0,3.17,1.86,7.63,7.63,0,0,0,3.39.81,2,2,0,0,0,1.36-.6,2.47,2.47,0,0,0,.54-1.52,10,10,0,0,0-.71-3.67,8.89,8.89,0,0,1,1.39,3.66,3.17,3.17,0,0,1-.49,2.1,2.91,2.91,0,0,1-1.95,1.13,7.9,7.9,0,0,1-4.06-.65,14.48,14.48,0,0,1-2.09-1c0,.22.06.44.07.67a5.36,5.36,0,0,1-.39,2.52,2.32,2.32,0,0,1-1.08,1.11,2.84,2.84,0,0,1-1.43.23,6.37,6.37,0,0,1-2.33-.73,20.54,20.54,0,0,1-3.76-2.55,35.05,35.05,0,0,1-3.22-3.11C443.6,1225.94,444.8,1226.81,446.05,1227.58Zm-18.54-46c.41,1.4.79,2.78,1.29,4.06s1.23,2.54,2.12,2.66,2.15-.68,3.16-1.55,2-1.94,3.1-2.94a13.86,13.86,0,0,1-2.28,3.76,8.28,8.28,0,0,1-1.71,1.56,3.65,3.65,0,0,1-2.54.63,3.34,3.34,0,0,1-2.12-1.6,7.5,7.5,0,0,1-.84-2.18A12.1,12.1,0,0,1,427.51,1181.58Zm-11.16,31.61a13.93,13.93,0,0,0,.45,3.92,3.67,3.67,0,0,0,.87,1.63,1.49,1.49,0,0,0,1.54.31,8.12,8.12,0,0,0,3-2.21,30.14,30.14,0,0,0,2.49-3l.59-.78.61.85h0a20.9,20.9,0,0,0,2.2,3.15,9.4,9.4,0,0,0,2.86,2.42,1.92,1.92,0,0,0,1.64.15,2.2,2.2,0,0,0,1-1.42,11.82,11.82,0,0,0,.22-3.9,11.85,11.85,0,0,1,.14,4,2.67,2.67,0,0,1-1.09,1.82,2.55,2.55,0,0,1-2.19.05,10.38,10.38,0,0,1-3.39-2.34,21.27,21.27,0,0,1-2.07-2.38,29.33,29.33,0,0,1-2.25,2.21,8.81,8.81,0,0,1-3.6,2.12,2.14,2.14,0,0,1-2.12-.65,4.15,4.15,0,0,1-.83-1.92A13.85,13.85,0,0,1,416.35,1213.19ZM394,1269a6.1,6.1,0,0,1,.28-1.08,16,16,0,0,1,.87-2,31.6,31.6,0,0,1,2.21-3.67c-.68,1.25-1.31,2.53-1.86,3.83a14.53,14.53,0,0,0-.69,2,2.67,2.67,0,0,0-.06,1.8c.17.3.94.14,1.52-.13a12.81,12.81,0,0,0,1.81-1,42.08,42.08,0,0,0,3.4-2.48l.72-.57.18.93c.38,2,.75,4.09,1.29,6a13.33,13.33,0,0,0,1.05,2.78c.45.85,1.07,1.46,1.72,1.37a4.37,4.37,0,0,0,2.24-1.33,21.64,21.64,0,0,0,2-2.24,58.63,58.63,0,0,0,3.56-5l1.61-2.49-.34,2.93c-.27,2.35-.89,4.59-1.24,6.79a7.1,7.1,0,0,0-.11,1.54.7.7,0,0,0,0,.19,1.11,1.11,0,0,0,.35-.12,13.59,13.59,0,0,0,2.54-2.06c1.63-1.58,3.14-3.3,4.69-5l4.58-5.14c-1.33,1.88-2.72,3.7-4.12,5.52s-2.88,3.59-4.46,5.29a13.94,13.94,0,0,1-2.7,2.38,1.7,1.7,0,0,1-1.23.26,1.08,1.08,0,0,1-.7-.55,2.15,2.15,0,0,1-.19-.6,7,7,0,0,1,.05-1.9c.18-1.23.42-2.42.64-3.6-.57.85-1.17,1.69-1.81,2.51a18.91,18.91,0,0,1-2.18,2.4,5.62,5.62,0,0,1-3.13,1.66,2.69,2.69,0,0,1-1.94-.68,5,5,0,0,1-1.08-1.45,15.36,15.36,0,0,1-1.12-3.07,47.16,47.16,0,0,1-1-5.33c-.92.64-1.85,1.27-2.84,1.84a14,14,0,0,1-2,1,4.45,4.45,0,0,1-1.13.28,1.29,1.29,0,0,1-1.29-.54A1.91,1.91,0,0,1,394,1269Zm-.37,39.34c-.49.46-1,.92-1.52,1.35a10.24,10.24,0,0,1-.87.62,3.86,3.86,0,0,1-.54.28,1.39,1.39,0,0,1-1,.09,1,1,0,0,1-.58-.51,1.33,1.33,0,0,1-.13-.49,2.64,2.64,0,0,1,.05-.66,6.44,6.44,0,0,1,.3-1c.23-.65.5-1.27.78-1.88.57-1.21,1.19-2.38,1.83-3.53,1-1.82,2.11-3.57,3.24-5.29a11.49,11.49,0,0,1-3.23.9,2.24,2.24,0,0,1-.75-.08,1.1,1.1,0,0,1-.72-.58,2,2,0,0,1,.07-1.51,10.18,10.18,0,0,1,1.27-2.21,36.48,36.48,0,0,1,3.22-3.78c.58-.59,1.16-1.18,1.77-1.73a7.84,7.84,0,0,1,2-1.47,8,8,0,0,0-1.84,1.61c-.56.59-1.12,1.2-1.65,1.83a35.55,35.55,0,0,0-2.94,3.9,10.53,10.53,0,0,0-1.08,2.11,1.35,1.35,0,0,0-.08.88c0,.13.34.2.7.17a15.11,15.11,0,0,0,4.43-1.67l1.64-.81-1,1.56c-1.39,2.21-2.67,4.5-3.93,6.78-.62,1.15-1.21,2.31-1.74,3.48a18.61,18.61,0,0,0-.72,1.76c-.08.26-.15.51-.2.75l.05,0c.23-.16.48-.34.72-.54.48-.4.95-.83,1.41-1.28.93-.9,1.82-1.86,2.7-2.82,1.75-1.93,3.5-3.88,5.2-5.87l1.24-1.46v1.91a11.84,11.84,0,0,0,.73,4.65,2.27,2.27,0,0,0,1.28,1.36,2.3,2.3,0,0,0,1.83-.49,12.66,12.66,0,0,0,3.11-3.56,33.16,33.16,0,0,0,2.3-4.38l.39-.89.49.82a21,21,0,0,0,2.65,3.64c1,1,2.36,2.06,3.6,1.4s1.82-2.26,2.3-3.66a33.44,33.44,0,0,0,1.07-4.47,28.16,28.16,0,0,1-.75,4.56,12.62,12.62,0,0,1-.78,2.21,4.51,4.51,0,0,1-1.54,1.89,2.68,2.68,0,0,1-2.52.07,7.09,7.09,0,0,1-2-1.42,19.54,19.54,0,0,1-2.39-2.92,31.87,31.87,0,0,1-1.84,3.76,12.49,12.49,0,0,1-3.4,4,3.12,3.12,0,0,1-5.06-1.38,10.41,10.41,0,0,1-.81-3.4c-1.32,1.56-2.65,3.11-4.05,4.61C395.54,1306.48,394.63,1307.43,393.66,1308.35Zm49.3,25a17.17,17.17,0,0,1-.85,4.91,1.75,1.75,0,0,1-1,1,1.89,1.89,0,0,1-1.43-.26,12,12,0,0,1-2-1.53c-1.05-.91-2.08-1.81-3.16-2.65a26.45,26.45,0,0,1-1.27,4.09,7.52,7.52,0,0,1-1.41,2.29,2.25,2.25,0,0,1-1.49.72,2.1,2.1,0,0,1-1.55-.68,6.7,6.7,0,0,1-1.38-2.35,17.39,17.39,0,0,1-.71-2.48c-.17-.82-.31-1.66-.4-2.49a13.35,13.35,0,0,1-1.1,1.71,3.82,3.82,0,0,1-1,.91,1.71,1.71,0,0,1-.84.28,1.61,1.61,0,0,1-.95-.27,4.23,4.23,0,0,1-1.36-2.26,25.77,25.77,0,0,1-.87-4.42c-.09-.72-.14-1.44-.22-2.17-.61,1.06-1.23,2.11-1.88,3.14a39.7,39.7,0,0,1-3.49,4.83,12.19,12.19,0,0,1-2.24,2.11,4.3,4.3,0,0,1-1.52.73,2.43,2.43,0,0,1-1.87-.25,4.84,4.84,0,0,1-1.79-2.75,17.24,17.24,0,0,1-.42-1.83A38.25,38.25,0,0,1,404,1337a9.52,9.52,0,0,1-4.6,2.94,2.71,2.71,0,0,1-2.61-1,6.63,6.63,0,0,1-1.13-2.48,18.68,18.68,0,0,1-.47-5.31,20.72,20.72,0,0,0,.79,5.21,6.36,6.36,0,0,0,1.17,2.27,2.17,2.17,0,0,0,2.15.72,9.5,9.5,0,0,0,4.1-2.91,39.66,39.66,0,0,0,3.28-4.11l.7-1,.2,1.2a17.93,17.93,0,0,0,.67,2.76,3.88,3.88,0,0,0,1.34,2.06c.56.33,1.34,0,2.06-.48a11.61,11.61,0,0,0,2-1.92,40.6,40.6,0,0,0,3.32-4.71c1-1.64,2-3.33,2.89-5l1.11-2.05.22,2.32c.14,1.45.29,2.9.49,4.33a29.43,29.43,0,0,0,.81,4.18,3.39,3.39,0,0,0,.76,1.5c.09,0,0,.06.26,0a2.52,2.52,0,0,0,.62-.58,18.36,18.36,0,0,0,2.05-3.65l1.21-2.63.1,2.88a29.75,29.75,0,0,0,.53,4.81,9.57,9.57,0,0,0,1.69,4.2c.48.45.77.46,1.31,0a6.38,6.38,0,0,0,1.23-1.88,27.89,27.89,0,0,0,1.53-4.6l.18-.72.57.45c1.31,1,2.52,2.18,3.7,3.29a14.16,14.16,0,0,0,1.84,1.51,1.27,1.27,0,0,0,.9.25c.26,0,.49-.34.66-.67a16.36,16.36,0,0,0,1.05-4.69c.2-1.62.35-3.25.49-4.89C443.11,1330.11,443.08,1331.75,443,1333.39Zm.61-77.73a8.16,8.16,0,0,1-2.58-2.26,25.91,25.91,0,0,1-1.84-2.67c-.93-1.53-1.75-3.09-2.53-4.67a25.64,25.64,0,0,1-3.17,2.78,9.38,9.38,0,0,1-2.42,1.32,3.38,3.38,0,0,1-3.06-.26,4.64,4.64,0,0,1-1.62-2.47,13.08,13.08,0,0,1-.51-2.64,30,30,0,0,1,0-4.34,31.62,31.62,0,0,1-3.45,1.42,12.46,12.46,0,0,1-2.3.56,3.27,3.27,0,0,1-2.48-.43,2.46,2.46,0,0,1-.6-2.42,10.45,10.45,0,0,1,.75-2.23,24.3,24.3,0,0,1,2.35-4,29.35,29.35,0,0,0-2,4.1,9.45,9.45,0,0,0-.57,2.16,1.88,1.88,0,0,0,.49,1.81,2.81,2.81,0,0,0,1.95.18,11.61,11.61,0,0,0,2.12-.61,35.49,35.49,0,0,0,4.1-1.92l.81-.44,0,.95a36.56,36.56,0,0,0,.17,5,12.25,12.25,0,0,0,.49,2.38,3.36,3.36,0,0,0,1.13,1.76c1,.7,2.65-.14,3.91-1.09a27.69,27.69,0,0,0,3.64-3.4l.73-.8.47,1c.91,1.87,1.83,3.75,2.89,5.52a22.47,22.47,0,0,0,1.7,2.54,6.78,6.78,0,0,0,2.07,1.92c.75.39,1.36.12,1.93-.64a9.65,9.65,0,0,0,1.23-2.65,38,38,0,0,0,1.32-6.06l.11-.68.58.32a13,13,0,0,0,3.34,1.34c1.12.24,2.45.37,3.27-.34a1.68,1.68,0,0,0,.43-1.5,4.78,4.78,0,0,0-.6-1.68,15.5,15.5,0,0,0-2.2-3,14.45,14.45,0,0,1,2.47,2.82,5.63,5.63,0,0,1,.77,1.77,2.16,2.16,0,0,1-.47,2,2.94,2.94,0,0,1-1.87.81,6.43,6.43,0,0,1-2-.1,12.65,12.65,0,0,1-3-1,38.08,38.08,0,0,1-1,5.65,9.78,9.78,0,0,1-1.36,3.06,3.24,3.24,0,0,1-1.5,1.22A2.6,2.6,0,0,1,443.57,1255.66Zm3.95,18.72a35.2,35.2,0,0,0,2.89,4,5.91,5.91,0,0,0,1.74,1.47c.64.29.9.06,1.22-.63a14.63,14.63,0,0,0,.61-4.67l0-2.39,1.23,2.08a20.17,20.17,0,0,0,3.1,3.88,15.68,15.68,0,0,0,3.95,2.91,3.74,3.74,0,0,0,2.07.44c.58-.08,1-.53,1.19-1.23a11.5,11.5,0,0,0,0-4.82l-.2-1.36,1.15.71c1.2.73,2.34,1.54,3.48,2.32a26.17,26.17,0,0,0,3.48,2.15c.58.26,1.25.44,1.53.1a2.86,2.86,0,0,0,.35-1.79,27.81,27.81,0,0,0-.61-4.1,21.45,21.45,0,0,1,1.06,4.06,3.34,3.34,0,0,1-.29,2.24,1.4,1.4,0,0,1-1.22.5,3.54,3.54,0,0,1-1.12-.27,26.14,26.14,0,0,1-3.74-2c-.8-.49-1.6-1-2.41-1.44a10.32,10.32,0,0,1-.1,4.13,3.71,3.71,0,0,1-.77,1.41,2.7,2.7,0,0,1-1.52.83,5.14,5.14,0,0,1-2.94-.54,15.59,15.59,0,0,1-4.36-3.21,20.63,20.63,0,0,1-2.15-2.51,9.74,9.74,0,0,1-.74,3.08,2.43,2.43,0,0,1-1.08,1.18,1.85,1.85,0,0,1-1.67-.12,6.78,6.78,0,0,1-2-1.83,25.49,25.49,0,0,1-2.66-4.29c-.76-1.49-1.47-3-2.08-4.55C445.8,1271.54,446.63,1273,447.52,1274.38Zm30.29,39.18a17.15,17.15,0,0,0-5,.07,12.76,12.76,0,0,1,.54,2.79,4.71,4.71,0,0,1-.23,1.86,2.6,2.6,0,0,1-1.41,1.56,5.55,5.55,0,0,1-3.68-.08,20.77,20.77,0,0,1-3.15-1.28,49.15,49.15,0,0,1-5.68-3.42c-1.45-1-2.83-2-4.2-3.09a21.06,21.06,0,0,1-.05,2.63,6.91,6.91,0,0,1-.49,2.08,2.23,2.23,0,0,1-.77,1,1.66,1.66,0,0,1-1.25.22,4.35,4.35,0,0,1-1.87-1.06,15.93,15.93,0,0,1-1.4-1.45,25,25,0,0,1-2.31-3.23,34.94,34.94,0,0,0,2.64,2.92,7.3,7.3,0,0,0,3.07,2c1,.21,1.3-1.33,1.34-2.52a24.93,24.93,0,0,0-.25-3.84l-.16-1.44,1.18.87a85.73,85.73,0,0,0,10.86,7.05,18.61,18.61,0,0,0,2.9,1.22,4.57,4.57,0,0,0,2.74.21c.68-.23.95-1.14.94-2.15a12.86,12.86,0,0,0-.47-3.08l-.14-.57.54-.08a15.7,15.7,0,0,1,5.88.21,17.94,17.94,0,0,1,5.37,2.15A20.06,20.06,0,0,0,477.81,1313.56Z"/></g></g></svg>
