<svg xmlns="http://www.w3.org/2000/svg" viewBox="0 0 61.44 61.44"><defs><style>.cls-1{fill:#00a8e1;}.cls-2{fill:#fff;fill-rule:evenodd;}</style></defs><g id="Layer_2" data-name="Layer 2"><g id="Capa_1" data-name="Capa 1"><circle class="cls-1" cx="30.72" cy="30.72" r="30.72" transform="translate(-6.31 53.44) rotate(-76.54)"/><path class="cls-2" d="M44.82,33.23a14.71,14.71,0,0,0,.22-2.5,14.36,14.36,0,0,0-17-14.09A8.36,8.36,0,0,0,16.61,28.18a14.33,14.33,0,0,0,14.1,16.89,13.92,13.92,0,0,0,2.68-.26A8.37,8.37,0,0,0,44.82,33.23ZM31.21,40.76h0c-4.08,0-8.18-1.85-8.16-5a1.79,1.79,0,0,1,1.68-1.84c2.4,0,2.38,3.57,6.21,3.57,2.68,0,3.6-1.46,3.6-2.48,0-3.69-11.61-1.43-11.61-8.37,0-3.75,3.09-6.34,7.93-6.05,4.62.27,7.33,2.3,7.6,4.2A2,2,0,0,1,36.33,27c-2.09,0-2.31-2.79-5.91-2.79-1.62,0-3,.67-3,2.14,0,3.06,11.54,1.28,11.54,8C39,38.21,35.86,40.76,31.21,40.76Z"/></g></g></svg>