<svg height="30px" width="30px" xmlns="http://www.w3.org/2000/svg" viewBox="0 0 61.44 61.44"><defs><style>.cls-1{fill:#36c5f0;}.cls-2{fill:#fff;fill-rule:evenodd;}</style></defs><g id="Layer_2" data-name="Layer 2"><g id="Capa_1" data-name="Capa 1"><circle class="cls-1" cx="30.72" cy="30.72" r="30.72" transform="translate(-10.5 44.46) rotate(-63.43)"/><path class="cls-2" d="M15.37,26.51a3.06,3.06,0,0,0,1,2.49,3.27,3.27,0,0,0,2.22.92h8.15a3.25,3.25,0,0,0,.2-6.48H18.44a3.22,3.22,0,0,0-3.07,3.07Zm8.07-8.07a3.06,3.06,0,0,0,1,2.49,3.27,3.27,0,0,0,2.22.91h3.27V18.57A3.31,3.31,0,0,0,29,16.38a3.08,3.08,0,0,0-.88-.66,3.24,3.24,0,0,0-4.72,2.72Zm8.08,24.43a3.31,3.31,0,0,0,.88,2.19A3.24,3.24,0,0,0,38,43a3.06,3.06,0,0,0-1-2.49,3.27,3.27,0,0,0-2.22-.91H31.52v3.27ZM15.37,34.53v.4A3.22,3.22,0,0,0,18.44,38a3.06,3.06,0,0,0,2.49-1,3.27,3.27,0,0,0,.91-2.22V31.52H18.57a3.31,3.31,0,0,0-2.19.88,3.23,3.23,0,0,0-1,2.13ZM39.6,26.65v3.27h3.27a3.27,3.27,0,0,0,3.2-3v-.41A3.22,3.22,0,0,0,43,23.44a3.06,3.06,0,0,0-2.49,1,3.27,3.27,0,0,0-.91,2.22Zm-8.08,8.08A3.3,3.3,0,0,0,32.4,37a3.22,3.22,0,0,0,.88.66,3,3,0,0,0,1.25.36H43a3.22,3.22,0,0,0,3.07-3.07,3.06,3.06,0,0,0-1-2.49,3.27,3.27,0,0,0-2.22-.92H34.73a3.29,3.29,0,0,0-3.21,3.21Zm0-16.16v8.15A3.25,3.25,0,0,0,37,29a3.08,3.08,0,0,0,.66-.88A3,3,0,0,0,38,26.92V18.44a3.22,3.22,0,0,0-3.07-3.07,3.06,3.06,0,0,0-2.49,1,3.27,3.27,0,0,0-.92,2.22Zm-8.08,16V43a3.23,3.23,0,0,0,3.08,3.07,3.05,3.05,0,0,0,2.48-1,3.27,3.27,0,0,0,.92-2.22V34.73a3.24,3.24,0,0,0-6.48-.2Z"/></g></g></svg>