<svg xmlns="http://www.w3.org/2000/svg" viewBox="0 0 61.44 61.44"><defs><style>.cls-1{fill:#0079bf;}.cls-2{fill:#fff;fill-rule:evenodd;}</style></defs><g id="Layer_2" data-name="Layer 2"><g id="Capa_1" data-name="Capa 1"><circle class="cls-1" cx="30.72" cy="30.72" r="30.72" transform="translate(-1.96 2.09) rotate(-3.78)"/><path class="cls-2" d="M17.23,16.79c-1.46.42-1.87,1.5-1.87,3.27V40.48c0,2-.14,3,1.2,3.89.93.65,3.4.41,4.7.41,7.59,0,6.89.67,6.89-8.46V21c0-1.82.1-3-1.17-3.89-1-.65-3.38-.42-4.71-.42a31.82,31.82,0,0,0-5,.13Zm17.89,0c-2.39.71-1.86,3.23-1.86,5.81v7.72c0,2.42-.11,4.25,3.34,4.24,1.4,0,6.65.17,7.59-.1C46.5,33.8,46,31.19,46,28.7V21c0-2.43.17-4.32-3.34-4.31C41.24,16.67,36.12,16.49,35.12,16.79Z"/></g></g></svg>