<svg height="30px" width="30px" xmlns="http://www.w3.org/2000/svg" viewBox="0 0 61.44 61.44"><defs><style>.cls-1{fill:#56a8dd;}.cls-2{fill:#fff;fill-rule:evenodd;}</style></defs><g id="Layer_2" data-name="Layer 2"><g id="Capa_1" data-name="Capa 1"><circle class="cls-1" cx="30.72" cy="30.72" r="30.72" transform="translate(-6.24 53.56) rotate(-76.72)"/><path class="cls-2" d="M42.94,24.45C43.33,33.32,36.72,43.2,25,43.2a17.82,17.82,0,0,1-9.66-2.83,12.64,12.64,0,0,0,9.33-2.61,6.31,6.31,0,0,1-5.89-4.38,6.34,6.34,0,0,0,2.85-.1A6.31,6.31,0,0,1,16.59,27a6.43,6.43,0,0,0,2.86.79,6.32,6.32,0,0,1-1.95-8.42,17.93,17.93,0,0,0,13,6.59,6.31,6.31,0,0,1,10.74-5.75,12.92,12.92,0,0,0,4-1.53,6.33,6.33,0,0,1-2.77,3.49,12.85,12.85,0,0,0,3.62-1A12.49,12.49,0,0,1,42.94,24.45Z"/></g></g></svg>